<svg xmlns="http://www.w3.org/2000/svg" viewBox="0 0 58.09 26.06"><defs><style>.cls-1{fill:#351544;}</style></defs><title>aod</title><g id="Layer_2" data-name="Layer 2"><g id="Layer_1-2" data-name="Layer 1"><path class="cls-1" d="M56.83,2.59C55.65,1,52.64.16,48.12.18l-5.33,0a.49.49,0,0,0-.5.49l.13,24.66a.5.5,0,0,0,.5.49c4.06,0,7.75-.05,8.25-.1a10.54,10.54,0,0,0,4.13-.94c1.87-.91,2.81-2.75,2.79-5.48l0-10.22c0-4.18-.38-5.35-1.23-6.52m-4.58,6.9c0,.21,0,.5,0,.78v.06c0,.33,0,7.53,0,7.59,0,2.27-.93,2.46-2.15,2.46H48.24L48.16,5.58c1.17,0,3.17,0,3.61.64s.47,1.77.48,3.27"/><path class="cls-1" d="M29.86,0c-1.75,0-4.8.44-6.46,2.44-1.81,2.16-2,5-2,6.9l0,6.49a20.52,20.52,0,0,0,.62,5c1.36,4.78,6.52,5.12,7.89,5.12a7.81,7.81,0,0,0,6.21-2.54c1.42-1.67,2-3.82,2-7.43l0-5.86C38.07,6.39,37.43,4,36,2.4S32.58,0,29.86,0m-.11,20.72c-1.22,0-2.25-.77-2.27-2.87L27.43,8a2.33,2.33,0,0,1,2.29-2.44c1.52,0,2.22,1,2.22,2.42l0,9.88c0,1.53-.68,2.89-2.24,2.9"/><path class="cls-1" d="M19,25.4,14.77.74a.5.5,0,0,0-.5-.38L4.37.42a.52.52,0,0,0-.5.39L0,25.48a.46.46,0,0,0,.11.4.48.48,0,0,0,.39.18l5,0a.5.5,0,0,0,.5-.39l.42-3.9a11.85,11.85,0,0,0,3,.36,11.62,11.62,0,0,0,3.07-.42L13,25.59v0a.5.5,0,0,0,.49.37l5,0a.55.55,0,0,0,.39-.18.44.44,0,0,0,.1-.39M7,16.72,8.15,6.34h2.43l1.29,10.31A6.91,6.91,0,0,1,7,16.72"/></g></g></svg>