<svg xmlns="http://www.w3.org/2000/svg" viewBox="0 0 71.62 22.24"><defs><style>.cls-1{fill:#ec1c24;}.cls-2{fill:#231f20;}</style></defs><title>Asset 1</title><g id="Layer_2" data-name="Layer 2"><g id="Layer_1-2" data-name="Layer 1"><path class="cls-1" d="M56.89,3.57V3.39l.17-.08.2-.05,0-2.58L57,.62,56.87.55V.38h.72l.24,0h.44a2.15,2.15,0,0,1,.7.1,1.44,1.44,0,0,1,.54.31,1.32,1.32,0,0,1,.33.49,1.83,1.83,0,0,1,.12.68,1.85,1.85,0,0,1-.11.69,1.35,1.35,0,0,1-.32.53,1.62,1.62,0,0,1-.55.35,2.39,2.39,0,0,1-.79.12h-1.3ZM58.21.63H58l-.14,0V3.29h.33a.87.87,0,0,0,.44-.11.72.72,0,0,0,.3-.3,1.39,1.39,0,0,0,.18-.43,3.1,3.1,0,0,0,.05-.54,1.91,1.91,0,0,0-.06-.48A1.44,1.44,0,0,0,59,1a1,1,0,0,0-.31-.29.93.93,0,0,0-.45-.1"/><path class="cls-1" d="M62.36,3.15a.42.42,0,0,1-.11.16.72.72,0,0,1-.2.14,1.16,1.16,0,0,1-.27.11,1.66,1.66,0,0,1-.33,0,1.59,1.59,0,0,1-.5-.08.93.93,0,0,1-.36-.25.93.93,0,0,1-.23-.37,1.53,1.53,0,0,1-.07-.49,1.14,1.14,0,0,1,.3-.89,1.1,1.1,0,0,1,.84-.31,1.56,1.56,0,0,1,.44.06.75.75,0,0,1,.34.21.71.71,0,0,1,.18.38,1.41,1.41,0,0,1,0,.58H61a.91.91,0,0,0,.19.57.66.66,0,0,0,.53.21,1.12,1.12,0,0,0,.31,0,.79.79,0,0,0,.26-.12Zm-1-1.68a.41.41,0,0,0-.16,0,.28.28,0,0,0-.12.12.76.76,0,0,0-.08.23,2.39,2.39,0,0,0,0,.36h.73a1.28,1.28,0,0,0,0-.55.27.27,0,0,0-.28-.19"/><path class="cls-1" d="M63.91,3a.27.27,0,0,0-.09-.2.89.89,0,0,0-.21-.16l-.27-.15a1.17,1.17,0,0,1-.28-.17,1.1,1.1,0,0,1-.21-.22.67.67,0,0,1-.08-.33.54.54,0,0,1,.06-.25A.75.75,0,0,1,63,1.36a.89.89,0,0,1,.26-.12,1.15,1.15,0,0,1,.33,0,3.23,3.23,0,0,1,.46,0,1.62,1.62,0,0,1,.37.11,1.25,1.25,0,0,1-.07.31c0,.11-.07.21-.1.31h-.16l-.19-.47-.12,0h-.13a.22.22,0,0,0-.2.08.24.24,0,0,0-.07.18.32.32,0,0,0,.08.2l.21.15.28.15a1.2,1.2,0,0,1,.27.16.87.87,0,0,1,.21.22.54.54,0,0,1,.09.31.57.57,0,0,1-.26.49,1.19,1.19,0,0,1-.68.19,2.48,2.48,0,0,1-.45,0,1.9,1.9,0,0,1-.4-.12,1.47,1.47,0,0,1,.07-.34q.08-.17.15-.3h.15l.23.5.11,0h.12a.41.41,0,0,0,.24-.08A.28.28,0,0,0,63.91,3"/><path class="cls-1" d="M66.06,3.52H64.8V3.35a.59.59,0,0,1,.14-.06l.16,0V1.56l-.3,0V1.35L65,1.3l.21-.05.23,0,.19,0h.16V3.24l.17,0,.14.06Zm-1-3a.28.28,0,0,1,.1-.25.39.39,0,0,1,.28-.1.43.43,0,0,1,.28.09.33.33,0,0,1,.11.25.28.28,0,0,1-.11.25.41.41,0,0,1-.28.09.45.45,0,0,1-.28-.09A.3.3,0,0,1,65,.5"/><path class="cls-1" d="M67.36,1.18a1.68,1.68,0,0,1,.49.06.84.84,0,0,1,.3.15,1.12,1.12,0,0,1,.49-.33l.07.07.05.09a.42.42,0,0,1,0,.1.25.25,0,0,1,0,.08l-.06.11h-.48a.69.69,0,0,1,.1.17.61.61,0,0,1,0,.24.58.58,0,0,1-.06.29.69.69,0,0,1-.19.23,1,1,0,0,1-.33.17,1.56,1.56,0,0,1-.46.06h-.25l0,.06a.24.24,0,0,0,0,.08c0,.05,0,.09.11.12a1.58,1.58,0,0,0,.28.08l.37.08a2.17,2.17,0,0,1,.36.12.82.82,0,0,1,.28.19.44.44,0,0,1,.12.32.46.46,0,0,1-.09.32.87.87,0,0,1-.26.24,1.38,1.38,0,0,1-.39.15,1.86,1.86,0,0,1-.48.06,2.44,2.44,0,0,1-.51-.05,1,1,0,0,1-.35-.13.47.47,0,0,1-.19-.18.46.46,0,0,1-.06-.22.51.51,0,0,1,0-.22.56.56,0,0,1,.15-.16.6.6,0,0,1,.21-.11,1.58,1.58,0,0,1,.26-.09l-.13,0a.41.41,0,0,1-.11-.07.26.26,0,0,1-.09-.09.21.21,0,0,1,0-.12.19.19,0,0,1,0-.12.41.41,0,0,1,.09-.1l.13-.09A.61.61,0,0,1,67,2.62a.82.82,0,0,1-.46-.24.68.68,0,0,1-.17-.47.61.61,0,0,1,.28-.54,1.3,1.3,0,0,1,.76-.19M68,3.85a.26.26,0,0,0-.08-.19.7.7,0,0,0-.19-.13l-.27-.08-.29-.07a.56.56,0,0,0-.17.18.48.48,0,0,0,0,.22.37.37,0,0,0,.15.32.6.6,0,0,0,.4.12.57.57,0,0,0,.38-.11A.34.34,0,0,0,68,3.85M67,1.93a.62.62,0,0,0,.09.36.34.34,0,0,0,.31.12.33.33,0,0,0,.3-.13.6.6,0,0,0,.09-.36.6.6,0,0,0-.09-.36.46.46,0,0,0-.62,0,.7.7,0,0,0-.08.37"/><path class="cls-1" d="M71.62,3.49H70.41V3.32l.12-.06.13,0V2.14a1,1,0,0,0-.09-.45.29.29,0,0,0-.29-.16.43.43,0,0,0-.3.11.86.86,0,0,0-.19.31V3.22l.13,0,.12.06V3.5h-1.2V3.33a1.46,1.46,0,0,1,.3-.11V1.54l-.31,0V1.33L69,1.28l.21-.05.22,0,.22,0h.15v.47h0a1.07,1.07,0,0,1,.28-.33.82.82,0,0,1,.47-.14,1.08,1.08,0,0,1,.32,0,.51.51,0,0,1,.23.15.78.78,0,0,1,.16.3,2,2,0,0,1,0,.47V3.21a.67.67,0,0,1,.3.11Z"/><path class="cls-1" d="M58.14,8.76a.29.29,0,0,0-.09-.21,1.13,1.13,0,0,0-.21-.15l-.27-.15a1.61,1.61,0,0,1-.28-.17.93.93,0,0,1-.21-.23A.53.53,0,0,1,57,7.53a.45.45,0,0,1,.07-.25.61.61,0,0,1,.17-.19A.89.89,0,0,1,57.49,7a1.14,1.14,0,0,1,.33,0,3.28,3.28,0,0,1,.46,0,2.8,2.8,0,0,1,.37.1,1.32,1.32,0,0,1-.07.32l-.1.3h-.16l-.19-.46a.27.27,0,0,0-.12,0h-.13a.25.25,0,0,0-.2.08.29.29,0,0,0-.08.19.25.25,0,0,0,.09.19,1.16,1.16,0,0,0,.21.16l.27.14a1.89,1.89,0,0,1,.28.17.88.88,0,0,1,.21.22.49.49,0,0,1,.09.3.59.59,0,0,1-.26.5,1.14,1.14,0,0,1-.68.18,2.28,2.28,0,0,1-.45,0,1.34,1.34,0,0,1-.4-.13A1,1,0,0,1,57,8.81q.07-.17.15-.3h.15l.23.49a.22.22,0,0,0,.11.05h.12A.37.37,0,0,0,58,9a.25.25,0,0,0,.11-.21"/><path class="cls-1" d="M58.91,7.09a1.14,1.14,0,0,1,.36-.16V6.56a.81.81,0,0,1,.18-.08,1.5,1.5,0,0,1,.32-.09h.16V7h.6v.3h-.6V8.44a.75.75,0,0,0,.07.39.25.25,0,0,0,.24.1h.18l.19,0,0,.15a.31.31,0,0,1-.12.09.75.75,0,0,1-.18.08l-.22.07a1.09,1.09,0,0,1-.26,0,.6.6,0,0,1-.44-.15.7.7,0,0,1-.15-.5V7.27h-.37Z"/><path class="cls-1" d="M62.84,8.57a.81.81,0,0,0,0,.17.92.92,0,0,0,0,.16l.31,0V9.1L63,9.16l-.2.05-.2,0-.18,0h-.16a.8.8,0,0,1,0-.21c0-.07,0-.15,0-.25h0a.38.38,0,0,1-.08.17.47.47,0,0,1-.13.15.64.64,0,0,1-.2.11.71.71,0,0,1-.26,0,.86.86,0,0,1-.28,0A.71.71,0,0,1,61,9.12a.62.62,0,0,1-.15-.2.53.53,0,0,1-.06-.26.64.64,0,0,1,.08-.33.52.52,0,0,1,.24-.22A1.37,1.37,0,0,1,61.57,8a5.18,5.18,0,0,1,.64-.06,1.41,1.41,0,0,0,0-.58.29.29,0,0,0-.3-.18.75.75,0,0,0-.26,0l-.21.55h-.2s-.05-.08-.07-.13a1.16,1.16,0,0,1-.06-.15.75.75,0,0,1,0-.16.45.45,0,0,1,0-.16A1.19,1.19,0,0,1,61.43,7,2.2,2.2,0,0,1,62,6.9a1.25,1.25,0,0,1,.42.06.6.6,0,0,1,.26.15.53.53,0,0,1,.13.23.86.86,0,0,1,0,.28c0,.19,0,.35,0,.5s0,.3,0,.45m-1,.36a.38.38,0,0,0,.16,0,.27.27,0,0,0,.12-.09.41.41,0,0,0,.07-.11l0-.1V8.13a2.69,2.69,0,0,0-.35,0,.51.51,0,0,0-.22.08.26.26,0,0,0-.1.13.54.54,0,0,0,0,.19.41.41,0,0,0,.08.27.28.28,0,0,0,.23.1"/><path class="cls-1" d="M64.55,7.47l-.12.09a.51.51,0,0,0-.13.21V8.94l.19,0,.18.08v.17H63.35V9.06A.34.34,0,0,1,63.5,9l.15-.05V7.27l-.3,0V7.06L63.52,7l.22,0,.22,0,.18,0h.15V7.5h0a1.06,1.06,0,0,1,.11-.21.82.82,0,0,1,.17-.2.7.7,0,0,1,.2-.15A.42.42,0,0,1,65,6.89a.74.74,0,0,1,.09.18l.06.22v.18Z"/><path class="cls-1" d="M65.23,7.05a1.34,1.34,0,0,1,.37-.16V6.52l.18-.08.32-.08h.16v.58h.6v.3h-.61V8.4a.73.73,0,0,0,.07.39.26.26,0,0,0,.24.11h.18l.19,0L67,9a.48.48,0,0,1-.12.08l-.18.09-.22.07a1.07,1.07,0,0,1-.25,0,.61.61,0,0,1-.45-.15.82.82,0,0,1-.15-.5V7.23h-.37Z"/><path class="cls-1" d="M68.33,8.71a.28.28,0,0,0-.08-.21A1.16,1.16,0,0,0,68,8.34l-.28-.14L67.49,8a1.15,1.15,0,0,1-.21-.23.57.57,0,0,1-.09-.32.43.43,0,0,1,.07-.25A.52.52,0,0,1,67.43,7a.89.89,0,0,1,.26-.12,1.14,1.14,0,0,1,.33,0,2.25,2.25,0,0,1,.46,0,1.81,1.81,0,0,1,.37.1,2.34,2.34,0,0,1-.07.32c0,.11-.07.21-.1.3h-.16l-.19-.46a.27.27,0,0,0-.12,0h-.13a.29.29,0,0,0-.21.08.31.31,0,0,0-.07.18.27.27,0,0,0,.09.2,1.16,1.16,0,0,0,.21.16l.27.14.28.16a1.15,1.15,0,0,1,.21.23.48.48,0,0,1,.08.3.57.57,0,0,1-.25.5,1.14,1.14,0,0,1-.68.18,2.28,2.28,0,0,1-.45,0,1.71,1.71,0,0,1-.4-.13,1,1,0,0,1,.07-.33,2.79,2.79,0,0,1,.15-.3h.15l.23.49a.15.15,0,0,0,.11,0H68a.46.46,0,0,0,.25-.08.22.22,0,0,0,.1-.21"/><path class="cls-1" d="M59.72,15H58.51v-.17l.11-.06.14-.05v-.93a1.61,1.61,0,0,0-.07-.57.29.29,0,0,0-.3-.19.42.42,0,0,0-.31.13.79.79,0,0,0-.18.29v1.27l.13,0,.12.07V15H56.94v-.17a1.34,1.34,0,0,1,.3-.12V11.9l-.35,0V11.7l.17-.06.23-.05.24,0,.2,0h.16v1.61h0a.63.63,0,0,1,.13-.2.91.91,0,0,1,.17-.17,1.06,1.06,0,0,1,.21-.11.67.67,0,0,1,.24,0,1.11,1.11,0,0,1,.33,0,.55.55,0,0,1,.24.15.87.87,0,0,1,.15.29,2,2,0,0,1,0,.47v1.09l.15,0,.15.07Z"/><path class="cls-1" d="M62,14.55a.51.51,0,0,1-.11.16.78.78,0,0,1-.2.14.85.85,0,0,1-.27.1,1.12,1.12,0,0,1-.32,0,1.37,1.37,0,0,1-.51-.08,1.13,1.13,0,0,1-.36-.24A1,1,0,0,1,60,14.3a1.31,1.31,0,0,1-.08-.5,1.24,1.24,0,0,1,.3-.89,1.14,1.14,0,0,1,.84-.3,1,1,0,0,1,.44.06.83.83,0,0,1,.34.2.89.89,0,0,1,.19.39,1.57,1.57,0,0,1,0,.57h-1.4a.91.91,0,0,0,.19.57.64.64,0,0,0,.53.22,1.25,1.25,0,0,0,.32-.05.73.73,0,0,0,.25-.12ZM61,12.86a.29.29,0,0,0-.16,0,.4.4,0,0,0-.12.11,1,1,0,0,0-.08.23,1.79,1.79,0,0,0,0,.36h.73a1.27,1.27,0,0,0,0-.55.28.28,0,0,0-.28-.19"/><path class="cls-1" d="M63.53,13.17l-.12.09a.7.7,0,0,0-.14.21v1.17l.18,0a.67.67,0,0,1,.18.07v.17H62.32v-.17a.71.71,0,0,1,.16-.07l.14,0V13l-.3,0v-.18l.18-.06.22,0,.23,0,.17,0h.16v.61h0A.71.71,0,0,1,63.4,13a1,1,0,0,1,.16-.2l.21-.15a.52.52,0,0,1,.24-.05.74.74,0,0,1,.09.18,2.25,2.25,0,0,1,.05.22v.18Z"/><path class="cls-1" d="M66.4,14.53a.79.79,0,0,1-.12.15.7.7,0,0,1-.19.15,1.69,1.69,0,0,1-.27.1,1.19,1.19,0,0,1-.33,0,1.5,1.5,0,0,1-.5-.08,1.08,1.08,0,0,1-.37-.24,1,1,0,0,1-.22-.38,1.48,1.48,0,0,1-.08-.49,1.23,1.23,0,0,1,.3-.89,1.15,1.15,0,0,1,.85-.31,1.49,1.49,0,0,1,.43.06.7.7,0,0,1,.34.21.85.85,0,0,1,.19.38,1.87,1.87,0,0,1,0,.58H65a.91.91,0,0,0,.19.57.67.67,0,0,0,.54.21,1.15,1.15,0,0,0,.31,0,1,1,0,0,0,.25-.12Zm-1-1.69a.33.33,0,0,0-.15,0,.29.29,0,0,0-.13.12.87.87,0,0,0-.08.23,2.8,2.8,0,0,0,0,.36h.73a1.27,1.27,0,0,0,0-.55.26.26,0,0,0-.28-.19"/><path class="cls-1" d="M66.92,14.58a.34.34,0,0,1,.1-.26.37.37,0,0,1,.28-.1.39.39,0,0,1,.28.1.33.33,0,0,1,.11.26.3.3,0,0,1-.11.26.37.37,0,0,1-.28.1.41.41,0,0,1-.28-.09.36.36,0,0,1-.1-.27"/><path class="cls-2" d="M48.5,2.21C47.49.85,44.92.13,41.07.15l-4.56,0a.42.42,0,0,0-.42.41l.11,21.05a.42.42,0,0,0,.43.42c3.46,0,6.61,0,7-.08a9.17,9.17,0,0,0,3.52-.81c1.59-.77,2.39-2.35,2.38-4.68l0-8.72c0-3.57-.33-4.56-1-5.56M44.59,8.1c0,.18,0,.42,0,.66v.06c0,.28,0,6.42,0,6.48,0,1.93-.79,2.09-1.84,2.09H41.16L41.1,4.76c1,0,2.7,0,3.08.55a5.62,5.62,0,0,1,.41,2.79"/><path class="cls-2" d="M25.48,0C24,0,21.39.38,20,2.08A8.9,8.9,0,0,0,18.26,8l0,5.54a17,17,0,0,0,.53,4.23c1.16,4.08,5.56,4.37,6.73,4.37a6.65,6.65,0,0,0,5.3-2.17c1.21-1.42,1.69-3.26,1.68-6.34l0-5c0-3.15-.56-5.17-1.77-6.55a6.49,6.49,0,0,0-5.25-2m-.09,17.68c-1,0-1.93-.66-1.94-2.45l0-8.44a2,2,0,0,1,1.95-2.08c1.3,0,1.89.81,1.9,2.06l0,8.44c0,1.3-.58,2.47-1.91,2.47"/><path class="cls-2" d="M16.23,21.67,12.6.63a.41.41,0,0,0-.42-.32L3.73.35a.44.44,0,0,0-.42.34L0,21.75a.36.36,0,0,0,.09.34.45.45,0,0,0,.34.15l4.29,0a.45.45,0,0,0,.42-.34l.37-3.33a9.74,9.74,0,0,0,2.53.31,9.77,9.77,0,0,0,2.62-.36l.42,3.34v0a.43.43,0,0,0,.42.32l4.3,0a.41.41,0,0,0,.33-.16.34.34,0,0,0,.09-.33M6,14.27,7,5.41H9l1.1,8.8A5.84,5.84,0,0,1,6,14.27"/></g></g></svg>