<?xml version="1.0" encoding="utf-8"?>
<!-- Generator: Adobe Illustrator 22.0.1, SVG Export Plug-In . SVG Version: 6.00 Build 0)  -->
<svg version="1.1" id="Layer_1" xmlns="http://www.w3.org/2000/svg" xmlns:xlink="http://www.w3.org/1999/xlink" x="0px" y="0px"
	 viewBox="0 0 123.5 48.9" style="enable-background:new 0 0 123.5 48.9;" xml:space="preserve">
<style type="text/css">
	.st0{fill:#351544;}
	.st1{fill:#FFFFFF;}
</style>
<title>embassy</title>
<g id="Layer_2_1_">
	<g id="Layer_1-2">
		<rect y="0" class="st0" width="24.5" height="48.9"/>
		<path class="st1" d="M12.7,37.8h-0.4v-1.2h0.4V37.8z M14.6,32.6h-0.4v-1.2h0.4V32.6z M6.7,30.6c0,0-0.2,0-0.2,0S6.5,30.7,6.7,30.6
			c0.3,0.1,0.5,0.3,0.7,0.3c0.2,0,0.3-0.1,0.4-0.3c0-0.1,0-0.1,0-0.2c0,0,0,0,0,0s-0.2,0.2-0.4,0.2S7.1,30.6,6.7,30.6L6.7,30.6z
			 M4.4,31.8c0,0,0.4,0.6-0.2,0.8l0,0c0.2,0.1,0.5,0.1,0.7-0.2C5,32.6,5,33,4.7,33.2c0.2,0.2,0.4,0.3,0.6,0.3
			c0.2-0.1,0.3-0.2,0.4-0.4c0,0.1,0,0.3,0,0.5c0.9,0.1,1.2-0.7,2-0.5l0,0c0-0.7-0.5-1.3-1.2-1.4c-0.9-0.2-0.6-0.5-0.6-0.5
			c0.2,0,0.4,0,0.6,0.1c0-0.1,0-0.2,0-0.2c0-0.1,0-0.1,0-0.2c-0.4,0-0.5-0.1-0.5-0.1c-0.1-0.2,0.1-0.6,0.7-0.2
			c0.1-0.1,0.1-0.2,0.1-0.4C6.9,30.1,7,30.1,7,30c0-0.1-0.5-0.4-0.6-0.4s-0.2-0.4-0.8-0.3c-0.3,0-0.5,0-0.4-0.2s0,0-0.1,0
			S5,29.3,5.2,29.4c0.2,0.1,0.3,0.3,0.3,0.5c0,0.1-0.1,0.1-0.1,0c-0.2-0.4-0.6-0.5-1-0.4c0,0-0.1,0-0.1,0.1c0,0.2,0.2,0.4,0.4,0.4
			c0.1,0,0.2-0.1,0.2-0.2c0,0,0,0,0,0c0,0.2-0.1,0.3-0.3,0.4c-0.1,0-0.2,0-0.2-0.1c-0.2,0.3-0.3,0.7-0.2,1c0.1,0.3-0.1,0.6-0.3,0.5
			l0,0C3.9,31.7,4.1,31.8,4.4,31.8C4.3,31.8,4.3,31.8,4.4,31.8z M6.4,29.9c-0.2,0.2-0.4,0.1-0.5-0.2C6.2,29.7,6.3,29.8,6.4,29.9
			L6.4,29.9z M17.1,30.7c-0.2,0-0.4-0.1-0.4-0.2s0,0,0,0c-0.1,0.2,0,0.4,0.2,0.4c0.1,0,0.1,0,0.2,0c0.2,0,0.4-0.2,0.7-0.2
			c0.1,0,0.3,0,0.3,0s-0.2,0-0.3,0C17.4,30.6,17.4,30.7,17.1,30.7L17.1,30.7z M20.6,31.5L20.6,31.5c-0.3,0.1-0.4-0.1-0.4-0.5
			c0.1-0.3,0.1-0.7-0.2-1c-0.1,0.1-0.3,0.1-0.5,0c-0.1-0.1-0.1-0.2-0.1-0.2c0,0,0,0,0,0c0,0.1,0.1,0.2,0.2,0.2
			c0.2,0,0.4-0.2,0.4-0.4c-0.3-0.2-0.8-0.2-1,0.2c0,0-0.1,0.1-0.1,0.1c0,0.1-0.1,0.1-0.1,0c0-0.2,0.1-0.4,0.3-0.5
			c0.2-0.1,0.1-0.3,0.1-0.4s-0.1,0-0.1,0s-0.1,0.2-0.4,0.2c-0.6-0.1-0.8,0.1-0.8,0.3s-0.6,0.3-0.6,0.4c0,0.1,0,0.1,0.1,0.1
			c0,0.1,0.1,0.3,0.1,0.4c0.6-0.4,0.8,0,0.7,0.2c0,0-0.1,0.1-0.5,0.1c0,0.1,0,0.1,0,0.2c0,0.1,0,0.2,0,0.2c0.2-0.1,0.4-0.2,0.6-0.1
			c0,0,0.2,0.4-0.6,0.5c-0.7,0.1-1.2,0.8-1.2,1.5l0,0c0.7-0.1,1,0.6,2,0.5c0-0.1,0-0.3,0-0.5c0.1,0.2,0.2,0.3,0.4,0.4
			c0.2,0,0.4-0.1,0.6-0.3c-0.2-0.2-0.3-0.5-0.1-0.8c0.2,0.2,0.4,0.3,0.7,0.2l0,0c-0.6-0.2-0.2-0.7-0.2-0.8c0.1,0.1,0.4,0.1,0.5-0.1
			C20.6,31.7,20.6,31.6,20.6,31.5L20.6,31.5z M18.6,29.8c-0.1,0.3-0.3,0.4-0.5,0.2C18.1,29.8,18.3,29.7,18.6,29.8L18.6,29.8z
			 M12.1,24.5c0,0.1,0,0.1,0.1,0.2c0,0.1,0,0.1,0,0.1s-0.1,0-0.1,0c-0.1,0-0.1-0.1-0.2-0.1c-0.1,0-0.2,0.1-0.2,0.2s0.1,0.2,0.2,0.2
			c0.1,0,0.1,0,0.2-0.1c0.1,0,0.1,0,0.1,0c0,0.2,0,0.3,0,0.5c-0.2,0-0.3,0.2-0.3,0.3c0,0.3,0.3,0.4,0.4,0.5c0.2-0.1,0.4-0.2,0.4-0.5
			c0-0.2-0.1-0.3-0.3-0.3c0-0.2,0-0.3,0-0.5c0,0,0.1,0,0.1,0c0.1,0,0.1,0.1,0.2,0.1c0.1,0,0.2-0.1,0.2-0.2s-0.1-0.2-0.2-0.2
			c-0.1,0-0.1,0-0.2,0.1c-0.1,0-0.1,0-0.1,0s0-0.1,0-0.1c0-0.1,0.1-0.1,0.1-0.2c0-0.1-0.1-0.2-0.2-0.2
			C12.2,24.3,12.1,24.4,12.1,24.5C12.1,24.5,12.1,24.5,12.1,24.5L12.1,24.5z M12.2,26.5c-0.2,0-0.3,0.1-0.3,0.3
			c0,0.2,0.1,0.3,0.3,0.3c0,0,0,0,0,0c0.2,0,0.3-0.1,0.3-0.3C12.6,26.7,12.4,26.5,12.2,26.5C12.3,26.5,12.2,26.5,12.2,26.5
			L12.2,26.5z M12.2,29.7c0.7,0,1.3,0.1,2,0.2c0-0.7,0-1,0.4-1c-0.2-0.5,0.7-0.8,0.7-1.5c0-0.5-0.3-0.5-0.4-0.5
			c-0.3,0-0.2,0.2-0.5,0.2h-0.1c0,0,0.1,0.2,0.2,0.2s0.2-0.1,0.3-0.1s0.1,0,0.1,0.2c0,0.3-0.2,0.7-0.4,0.9c-0.1-0.1-0.1-0.1-0.2-0.1
			c-0.2,0-0.3,0.2-0.3,0.3c0,0.1,0,0.1,0,0.2c-0.1,0-0.1,0.1-0.2,0.1c-0.1,0-0.3-0.1-0.3-0.2c0,0,0,0,0-0.1c0-0.5,0.7-1,0.7-1.6
			c0-0.3-0.3-0.6-0.6-0.6c0,0,0,0-0.1,0c-0.5,0-0.4,0.4-0.8,0.4l0,0c0,0,0.1,0.3,0.3,0.3s0.3-0.4,0.5-0.4s0.2,0,0.2,0.3
			c0,0.3-0.1,0.6-0.2,0.9c-0.1-0.1-0.1-0.1-0.2-0.1c-0.2,0-0.3,0.2-0.3,0.4c0,0,0,0,0,0.1c0,0.1,0,0.2,0.1,0.3
			c-0.1,0.1-0.2,0.2-0.4,0.2c-0.3,0-0.4-0.2-0.4-0.3s0.4-0.2,0.4-0.5c0-0.2-0.1-0.3-0.3-0.3c-0.1,0-0.2,0-0.2,0.1
			c-0.1-0.1-0.1-0.1-0.2-0.1c-0.2,0-0.3,0.2-0.3,0.3c0,0,0,0,0,0c0,0.3,0.3,0.4,0.3,0.5s-0.1,0.3-0.4,0.3c-0.1,0-0.3-0.1-0.4-0.2
			c0.1-0.1,0.1-0.2,0.1-0.3c0-0.2-0.1-0.4-0.3-0.4c0,0,0,0,0,0c-0.1,0-0.2,0-0.2,0.1c-0.1-0.3-0.2-0.6-0.2-0.9
			c0-0.3,0.1-0.3,0.2-0.3s0.3,0.4,0.5,0.4s0.3-0.2,0.3-0.3s0,0,0,0c-0.4,0-0.3-0.4-0.8-0.4c-0.3,0-0.6,0.2-0.6,0.6c0,0,0,0,0,0.1
			c0,0.7,0.7,1.1,0.7,1.6c0,0.1-0.1,0.3-0.2,0.3c0,0,0,0-0.1,0c-0.1,0-0.1,0-0.2-0.1c0-0.1,0-0.1,0-0.2c0-0.2-0.1-0.3-0.3-0.3
			c-0.1,0-0.2,0-0.2,0.1c-0.2-0.2-0.4-0.6-0.4-0.9c0-0.1,0.1-0.2,0.1-0.2s0.1,0.1,0.3,0.1s0.2-0.1,0.2-0.2s0,0-0.1,0
			c-0.2,0-0.2-0.2-0.5-0.2c-0.1,0-0.4,0-0.4,0.5c0,0.7,0.9,0.9,0.7,1.5c0.4-0.1,0.4,0.3,0.4,1C10.9,29.8,11.5,29.7,12.2,29.7
			L12.2,29.7z M9.9,30.7c-0.4,0.1-0.6,0.2-0.7,0.2c0-0.2,0.1-0.3,0.2-0.3l0,0c-0.3-0.2-0.5,0.2-0.5,0.2s-0.3,0-0.3,0.2
			c0,0.5-1,0.7-1.3,0.7c0.3,0.1,0.5,0.4,0.6,0.7c0.2-0.2,0.5-0.4,0.7-0.6c0.1,0,0.1,0.1,0.1,0.2s0,0,0,0c0.2-0.2,0.1-0.3,0.1-0.4
			c0-0.1,0-0.2,0.1-0.2c0,0,0.1,0,0.1,0v3l-0.1,0c-0.1,0-0.5-0.4-1-0.7s-0.8-0.1-1.3,0.2c-0.5,0.2-1,0.2-1.5,0
			c-0.5,0.5-0.8,1.1-0.9,1.8c-0.2,0.1-0.4,0.1-0.5,0.1c-0.5,0-0.6-0.3-0.6-0.5c0-0.8,1-1.1,1-1.8c0-0.5-0.4-0.9-0.9-0.9
			c0,0-0.1,0-0.1,0H2.2c-0.2,0-0.4-0.1-0.5-0.3c0,0,0,0,0,0s0,0.2,0,0.3c0,0.3,0.2,0.5,0.4,0.5c0,0,0.1,0,0.1,0c0.1,0,0.2,0,0.3-0.1
			l0,0c-0.1,0.2-0.2,0.4-0.1,0.6l0,0c0.1-0.4,0.4-0.6,0.8-0.6c0.3,0,0.5,0.2,0.5,0.4c0,0,0,0.1,0,0.1c0,0.6-1.1,1.1-1.1,1.9
			s0.9,1,1.4,0.9c0,0.8-1,1.2-1,0.5l0,0C3,37,3,37.2,3.4,37.3l0,0c-0.4,0.2-0.2,1.2-0.2,1.5s-0.4,0.3-0.4,0.3s0,0,0,0
			c0.2,0.2,0.4,0.2,0.6,0c0,0,0,0,0,0c0.3,0.1,0.1,0.3-0.1,0.4l0,0c0,0,0.5,0,0.5-0.3c0.1,0.1,0.3,0.2,0.5,0.1
			c0.1,0,0.5-0.2,0.5,0.2l0,0c0.1-0.1,0.2-0.3,0-0.5C4.9,39.1,4.8,39,4.7,39C4.8,38.9,5,38.9,5.1,39c0,0,0,0,0.1,0.1l0,0
			c0-0.5-0.4-0.5-0.6-0.3c0,0-0.1-0.3,0.3-0.3l0,0c-0.1-0.2-0.3-0.2-0.5-0.1c0,0-0.1,0.1-0.1,0.1c-0.1,0.2-0.4,0.1-0.5,0.1
			c0.1-1.6,1.5-1,1.7-1.8l0,0c0.1,0.2,0.5,0.2,0.6-0.2l0,0c-0.4,0.4-1.3-0.9-0.1-1.9c0.7-0.6,1.7-0.7,2.4-0.1c0,0.1,0,0.2-0.1,0.2
			c0,0,0,0,0,0l0,0c0.1,0,0.2,0,0.3-0.1c0.2,0.2,0,0.4-0.1,0.4s0,0,0,0c0.2,0,0.4-0.1,0.4-0.3l0,0V36c0,1.3,1.5,1.5,3.1,2.6
			c1.6-1.1,3.1-1.3,3.1-2.6v-0.9l0,0c0,0.2,0.2,0.3,0.4,0.3l0,0c0,0-0.3-0.3-0.1-0.4c0.1,0.1,0.2,0.1,0.3,0.1l0,0
			c-0.1,0-0.1,0-0.1-0.2c0.7-0.6,1.7-0.5,2.4,0.1c1.3,1,0.3,2.3-0.1,1.9l0,0c0.1,0.4,0.6,0.3,0.6,0.2l0,0c0.2,0.8,1.6,0.2,1.7,1.8
			c0,0-0.3,0.1-0.5-0.1c-0.1-0.2-0.3-0.2-0.5-0.1c0,0-0.1,0.1-0.1,0.1l0,0c0.4,0,0.3,0.2,0.3,0.3c-0.2-0.2-0.6-0.2-0.6,0.3l0,0
			c0.1-0.1,0.3-0.2,0.4-0.1c0,0,0,0,0.1,0.1c-0.2,0-0.3,0.2-0.3,0.4c0,0.1,0.1,0.2,0.1,0.2l0,0c0-0.4,0.4-0.3,0.5-0.2
			c0.2,0.1,0.4,0,0.5-0.1c0.1,0.3,0.5,0.3,0.5,0.3s0,0,0,0s-0.3-0.3-0.1-0.4c0.2,0.2,0.4,0.2,0.6,0c0,0,0,0,0,0l0,0
			c0,0-0.4,0.1-0.4-0.3s0.2-1.2-0.2-1.5l0,0c0.4-0.1,0.4-0.3,0.3-0.7l0,0c0,0.6-1,0.3-1-0.5c0.5,0.1,1.4,0,1.4-0.9s-1-1.6-1-2.2
			c0-0.2,0.1-0.5,0.4-0.5c0,0,0.1,0,0.1,0c0.4,0,0.7,0.3,0.8,0.6l0,0c0.1-0.2,0-0.4-0.1-0.6l0,0c0.1,0,0.2,0.1,0.3,0.1
			c0.3,0,0.5-0.1,0.5-0.4c0,0,0-0.1,0-0.1c0-0.2-0.1-0.3,0-0.3s0,0,0,0c-0.1,0.2-0.3,0.4-0.5,0.3h-0.8c-0.5,0-0.9,0.3-1,0.8
			c0,0,0,0.1,0,0.1c0,0.8,1,1.1,1,1.8c0,0.2-0.1,0.5-0.6,0.5c-0.2,0-0.4,0-0.5-0.1c-0.1-0.7-0.4-1.3-0.9-1.8c-0.5,0.2-1,0.2-1.5,0
			c-0.6-0.3-0.9-0.5-1.4-0.2s-0.9,0.7-1,0.7h-0.1v-3c0.1,0,0.2,0,0.2,0.1c0,0,0,0.1,0,0.1c0,0.1-0.1,0.1,0.1,0.4l0,0
			c0,0,0-0.2,0.1-0.2c0.3,0.1,0.5,0.3,0.8,0.6c0.1-0.3,0.3-0.6,0.6-0.7c-0.2,0-1.3-0.3-1.3-0.7c0-0.1-0.2-0.2-0.3-0.2
			s-0.2-0.4-0.5-0.2l0,0c0.1,0,0.2,0.2,0.2,0.3c-1-0.3-2.1-0.4-3.1-0.5c-0.7,0-1.3,0.1-2,0.2v1H9.8L9.9,30.7L9.9,30.7 M7,41.4
			c-0.1,0-0.2-0.1-0.2-0.3v-0.7c-0.6-0.2-1.1-0.3-1.7-0.3c-0.8,0-1.1,0.2-1.1,0.2l-0.2,1.2c0,0,0.3-0.3,1.6-0.2c1.5,0.1,3,1,3,0V41
			C7.2,41,7,41.3,7,41.4z M16.1,41v0.5c0,0.9,1.5,0,3,0c1.2-0.1,1.6,0.2,1.6,0.2l-0.2-1.2c0-0.1-0.3-0.2-1.1-0.2
			c-0.6,0-1.2,0.1-1.7,0.3v0.7c0,0.1-0.1,0.2-0.2,0.3C17.4,41.5,17.3,41,16.1,41z M12.2,40.4c2.4,0,4.8,0.1,5.1,0.5l0,0v-1.3
			c0-0.4-2.5-0.6-5.1-0.6s-5.1,0.2-5.1,0.6v1.3l0,0C7.4,40.5,9.9,40.4,12.2,40.4L12.2,40.4z M10.1,34.5l-0.2-0.1l0,0l-0.3-0.1h0.2
			l0,0l-0.2-0.2l0.3,0.1l0,0l-0.2-0.3l0.3,0.2l0,0l-0.1-0.3l0.2,0.2l0,0l-0.1-0.3l0.2,0.3l0,0v-0.3l0.1,0.3l0,0l0.1-0.2V34l0,0v0.4
			c0.4-0.1,0.8-0.7,1.1-0.7s0.6,0.5,1.3,0.2c0.2,0.3,0.3,0.6,0.3,0.9c0.3,0.3,0.7,0.2,0.7-0.1s-0.4-0.5-0.4-0.9
			c0-0.2,0.2-0.4,0.4-0.4c0,0,0,0,0,0c0.2,0,0.5,0.1,0.6,0.1c0.1,0,0.2-0.1,0.2-0.2 M14.9,33.3c0,0,0,0.1,0,0.2
			c0,0.3-0.4,0.3-0.4,0.3s0,0,0,0c0.1,0.1,0.1,0.2,0,0.3l0,0c-0.1-0.2-0.2-0.4-0.4-0.4c-0.1,0-0.2,0.1-0.2,0.2c0,0,0,0,0,0
			c0,0.2,0.5,0.4,0.5,0.9s-0.5,0.6-1,0.5c0,0.5,0.7,0.8,0.7,0.4l0,0c0,0,0.1,0.3-0.1,0.3c0.1,0.1,0.1,0.3,0.2,0.5s0.3,0.1,0.3,0.1
			s0,0,0,0c-0.1,0.1-0.2,0.2-0.3,0.2c-0.1,0.1,0,0.2,0.1,0.2s0,0,0,0s-0.3,0.1-0.4-0.1c0,0.1-0.1,0.2-0.2,0.2
			c-0.1,0-0.1,0.1-0.1,0.2s0,0,0,0c-0.1,0-0.1-0.2-0.1-0.3c0,0,0.1-0.1,0.1-0.1c-0.1,0-0.2,0-0.2,0.1c0,0,0,0,0,0l0,0
			c-0.1-0.2,0.1-0.3,0.3-0.3c0-0.1-0.2-0.2-0.3-0.1l0,0c0-0.1,0.1-0.1,0.2-0.1c0,0,0,0,0.1,0c0.1,0.1,0.2,0,0.3,0
			c-0.3-0.6-0.9-0.1-1.1-0.6l0,0c0,0-0.3,0.1-0.4-0.1l0,0c0,0,0.1,0.1,0.2-0.1c0.1-0.1,0.1-0.2,0.1-0.3c0-0.5-0.5-1-1-1
			c-0.4,0-0.8,0.1-1.1,0.4l0.3,0.1c0,0.2-0.2,0.4-0.5,0.4c0,0-0.1,0-0.1,0v-0.3c-0.1,0-0.2,0.1-0.2,0.1l0,0c0-0.1,0-0.3,0.1-0.3l0,0
			c-0.1,0-0.2,0.1-0.2,0.1l0,0c-0.1-0.1-0.1-0.2,0-0.3c0,0,0,0,0,0L14.9,33.3z M10.9,36.7c-0.1,0.1-0.2,0-0.3,0
			c-0.1,0-0.2,0.1-0.2,0.2l0,0c-0.1-0.2,0-0.3,0.1-0.3c-0.1-0.1-0.2-0.1-0.2,0c0,0,0,0,0,0l0,0c0-0.2,0.2-0.3,0.3-0.2
			c0-0.1,0-0.2-0.1-0.2s0,0,0,0c0,0,0.1-0.1,0.1-0.1c0.1,0,0.2,0.2,0.2,0.2s0.3-0.2,0.4-0.2c-0.1-0.2-0.1-0.4-0.1-0.6l0,0
			c-0.1,0-0.2,0-0.2-0.2l0,0c0,0,0.2,0,0.2-0.1s0.4-0.6,0.9-0.6c0.1,0,0.2,0.1,0.3,0.1c-0.2,0.2,0,0.4,0.1,0.4s0,0,0,0
			c-0.6,0.2-0.9,0.3-0.9,0.8c0,0.3,0.1,0.4,0.2,0.4l0,0c0,0.1-0.1,0.1-0.2,0.1c-0.1,0-0.1-0.1-0.2-0.1s-0.3,0.1-0.3,0.2
			c0,0.1,0.1,0.1,0.1,0.2l0,0C11.2,36.8,11,36.8,10.9,36.7L10.9,36.7z M12.6,31.7c-0.2,0-0.3,0-0.3,0.1S12.5,31.8,12.6,31.7
			L12.6,31.7z M11.9,32.2c0.1,0,0.2,0,0.3,0l0,0c-0.3,0-0.3,0.2-0.5,0.2c-0.1,0-0.2-0.1-0.2-0.2c0,0,0-0.1,0-0.1l0,0
			C11.5,32,11.6,32.2,11.9,32.2L11.9,32.2z M8.2,38.4c0.2,0.2,0.4,0,0.6,0s0.3,0,0.3,0.3l0,0c0.1-0.1,0.1-0.4,0-0.5
			C9,38.1,9,38.1,8.9,38.1c0.1-0.1,0.3-0.1,0.5,0c0,0,0,0,0,0l0,0c0-0.5-0.4-0.5-0.6-0.3c0-0.2,0.1-0.3,0.3-0.3l0,0
			c-0.3-0.3-0.6,0.1-0.6,0.2s-0.6-0.1-0.7-0.3c0.2-0.2,0.3-0.5,0.4-0.8v-0.1l0,0c0,0,0.1,0,0.1,0c0.1,0,0.3,0,0.3-0.3l0,0
			c0,0.1-0.1,0.1-0.1,0.1c-0.3,0-1-1-1.8-1c-0.3,0-0.6,0.1-0.8,0.3c0.1,0.1,0.1,0.2,0.1,0.3c0,0.1-0.1,0.2-0.2,0.2l0,0
			c0.5,0.2,0.9,0.4,1.3,0.6c0.2,0.2,0.2,0.5,0,0.9s-0.3,0.4-0.4,0.3s0,0,0,0C6.7,38,6.8,38,6.9,38c0.2,0,0.3-0.1,0.4-0.1
			s0.6,0.2,0.6,0.5c0,0.1-0.1,0.2-0.2,0.3l0,0C7.7,38.6,8.1,38.7,8.2,38.4z M16.8,38.6L16.8,38.6c-0.1-0.1-0.2-0.2-0.2-0.3
			c0-0.2,0.4-0.5,0.5-0.5s0.2,0.1,0.4,0.1c0.1,0,0.3-0.1,0.3-0.2l0,0c0,0-0.3,0.1-0.4-0.3s-0.1-0.8,0-0.9c0.4-0.2,0.9-0.4,1.3-0.6
			l0,0c-0.1,0-0.2-0.1-0.2-0.2c0-0.1,0-0.2,0.1-0.3c-0.2-0.2-0.5-0.3-0.8-0.3c-0.8,0-1.4,1-1.8,1c-0.1,0-0.1,0-0.1-0.1l0,0
			c0,0.3,0.2,0.3,0.3,0.3c0,0,0.1,0,0.1,0l0,0c0,0,0,0,0,0.1c0,0.3,0.2,0.6,0.4,0.8c-0.2,0.2-0.6,0.5-0.8,0.3s-0.3-0.5-0.6-0.2l0,0
			c0.2,0,0.3,0.1,0.3,0.3c-0.3-0.2-0.6-0.2-0.6,0.3l0,0c0.1-0.1,0.3-0.1,0.5,0c0,0,0,0,0,0c-0.2,0-0.3,0.2-0.3,0.4
			c0,0.1,0,0.2,0.1,0.2l0,0c0-0.2,0.2-0.3,0.3-0.3s0.4,0.2,0.6,0C16.4,38.7,16.7,38.7,16.8,38.6z M10.5,32.6c0,0-0.1,0-0.1,0
			s0,0,0,0c0,0.1,0.1,0.2,0.2,0.2c0.1,0,0.1,0,0.1-0.1l0.7,0.2c-0.1,0.1-0.1,0.3-0.1,0.4l-0.9-0.5l-0.2,0.3c0,0.1-0.2-0.1-0.2-0.1
			l0.2-0.2c-0.1-0.1-0.2,0-0.2,0s0,0,0,0c0.1-0.1,0.2-0.2,0.3-0.1c0,0,0,0,0,0c0-0.1-0.2-0.1-0.2-0.1l0,0c0.1-0.1,0.3-0.1,0.4-0.1
			l0.1-0.1l-0.2-0.2l0.1-0.1l0.1,0.1l0.8-1.2c0.1,0,0.2-0.1,0.2-0.1c0,0.1,0,0.2,0,0.3l-0.8,1.2l0.2,0.1l-0.1,0.1l-0.2-0.1
			L10.5,32.6z M13.5,32.4c0,0.1,0.1,0.3,0.2,0.2s0,0,0,0s-0.2,0.2-0.3,0.1c-0.1,0.1-0.1,0.3,0.1,0.4c0,0,0,0,0,0l0,0
			c-0.1,0.1-0.3,0.1-0.3-0.1c0,0,0,0,0,0c-0.1,0.1-0.1,0.3,0,0.4c0,0,0,0,0,0c-0.2,0.1-0.5,0.2-0.8,0.1c-0.2-0.2-0.5-0.3-0.8-0.3
			c0-0.5,0.3-0.6,0.7-0.6s0.4-0.2,0.3-0.3c-0.1,0-0.2,0-0.3,0.1c0-0.1,0-0.1,0-0.1c0,0,0-0.1,0-0.1c0.2,0,0.3,0,0.3,0
			c0.1-0.2-0.2-0.3-0.4-0.1C12,32,12,31.9,12,31.8c0,0,0,0,0-0.1c0-0.1,0.3-0.2,0.4-0.2s0.1-0.2,0.4-0.2c0-0.1,0-0.3,0-0.4l0,0
			c0,0,0.2,0.3,0.3,0.3c0.1-0.1,0.2-0.1,0.4-0.2c0,0.1,0.1,0.3,0.1,0.4c0,0,0.3,0,0.4,0s0,0,0,0c-0.1,0-0.3,0.1-0.4,0.2
			C13.5,31.9,13.5,32.1,13.5,32.4L13.5,32.4z"/>
		<path class="st0" d="M31.7,32.1l-0.2,0.1h-0.2h-0.7c-0.1,0-0.2,0-0.3-0.1v-0.2c0.1,0,0.3-0.1,0.4-0.2c0.1-0.1,0.1-0.3,0.1-0.4
			v-4.1l-0.5-0.1v-0.2c0.2,0,0.3-0.1,0.5-0.1h0.5h0.4c0.1,0,0.2,0,0.4,0.1v0.2l-0.2,0.1c-0.1,0-0.1,0.1-0.1,0.1
			c0,0.1-0.1,0.1-0.1,0.2c0,0.1,0,0.2,0,0.2v4.1l0.5,0.1v0.2L31.7,32.1z M34.3,32.2c-0.1,0-0.2,0.1-0.3,0.1c-0.1,0-0.2,0-0.3,0
			c-0.1,0-0.2-0.1-0.2-0.1c-0.1-0.1-0.2-0.1-0.2-0.2c-0.1-0.1-0.2-0.2-0.3-0.3l-1.5-2.1l0,0l2-2.2l0,0L33,27.2V27l0.2-0.1h0.2h0.4
			h0.3c0.1,0,0.2,0,0.3,0v0.1c-0.1,0-0.2,0.1-0.3,0.2c-0.1,0.1-0.2,0.2-0.3,0.3l-1.7,1.8l1.5,1.9c0.1,0.1,0.1,0.2,0.2,0.2l0.2,0.2
			c0.1,0.1,0.1,0.1,0.2,0.2l0.3,0.1v0.2L34.3,32.2z"/>
		<path class="st0" d="M36.2,32.1c-0.1,0-0.2,0-0.2,0h-0.2h-0.6c-0.1,0-0.2,0-0.3-0.1v-0.1c0.1,0,0.1,0,0.2-0.1l0.1-0.1
			c0,0,0.1-0.1,0.1-0.1c0,0,0-0.1,0-0.1v-2.7l-0.5-0.2v-0.2c0.2-0.1,0.4-0.1,0.5-0.1c0.1,0,0.3,0,0.4,0H36v0.4v3.1l0.5,0.1v0.2
			L36.2,32.1z M36.1,27.1c0,0.1-0.1,0.1-0.1,0.2c0,0-0.1,0.1-0.1,0.1c-0.1,0-0.1,0-0.2,0c-0.1,0-0.1,0-0.2,0l-0.1-0.1
			c0,0-0.1-0.1-0.1-0.1c0-0.1,0-0.1,0-0.2c0-0.1,0-0.1,0-0.2c0-0.1,0.1-0.1,0.1-0.2c0,0,0.1-0.1,0.1-0.1c0.1,0,0.1,0,0.2,0h0.2
			c0.1,0,0.1,0.1,0.1,0.1c0,0,0.1,0.1,0.1,0.1c0,0.1,0,0.1,0,0.2C36.1,27,36.1,27,36.1,27.1z"/>
		<path class="st0" d="M40.1,32.2h-0.3c-0.1,0-0.2,0-0.3-0.1V32c0.1,0,0.2-0.1,0.2-0.2c0.1-0.1,0.1-0.2,0.1-0.3v-1.6
			c0-0.2,0-0.3,0-0.5c0-0.1-0.1-0.2-0.2-0.3c-0.1-0.1-0.2-0.2-0.3-0.2c-0.1,0-0.2-0.1-0.3-0.1c-0.2,0-0.3,0-0.5,0.1
			c-0.1,0-0.3,0.1-0.4,0.2v2.8l0.5,0.1v0.2l-0.2,0.1c-0.1,0-0.2,0-0.2,0H38h-0.6c-0.1,0-0.2,0-0.3-0.1v-0.1c0.1,0,0.1,0,0.2-0.1
			l0.1-0.1c0,0,0.1-0.1,0.1-0.1c0,0,0-0.1,0-0.1v-2.7L37,28.5v-0.2c0.2-0.1,0.4-0.1,0.5-0.1H38h0.2v0.4c0.2-0.1,0.3-0.3,0.5-0.3
			c0.2-0.1,0.5-0.1,0.7-0.1c0.2,0,0.3,0,0.5,0.1c0.1,0.1,0.3,0.1,0.4,0.2c0.1,0.1,0.2,0.3,0.2,0.4c0.1,0.2,0.1,0.4,0.1,0.6v2.3
			l0.4,0.1v0.2C40.7,32.2,40.4,32.2,40.1,32.2z"/>
		<path class="st0" d="M45.2,28.7l-0.4-0.1h-0.5l0,0l0.2,0.2c0.1,0.1,0.1,0.1,0.2,0.2c0,0.1,0.1,0.2,0.1,0.2c0,0.1,0,0.2,0,0.3
			c0,0.2,0,0.5-0.1,0.7c-0.1,0.2-0.2,0.4-0.4,0.5C44,30.9,43.9,31,43.7,31c-0.2,0.1-0.4,0.1-0.6,0.1h-0.3l-0.2-0.1
			c0,0-0.1,0-0.1,0.1c0,0-0.1,0.1-0.1,0.1c0,0,0,0.1,0,0.1c0,0,0,0.1,0,0.1c0,0.1,0.1,0.2,0.1,0.3c0.1,0.1,0.3,0.1,0.4,0.1H44
			c0.3,0,0.6,0.1,0.8,0.2c0.2,0.2,0.3,0.4,0.3,0.7c0,0.2-0.1,0.4-0.2,0.6c-0.1,0.2-0.3,0.3-0.4,0.5c-0.2,0.1-0.4,0.3-0.6,0.3
			c-0.3,0.1-0.5,0.1-0.8,0.1c-0.2,0-0.5,0-0.7-0.1c-0.2,0-0.3-0.1-0.5-0.2c-0.1-0.1-0.2-0.2-0.3-0.3c-0.1-0.1-0.1-0.2-0.1-0.4
			c0-0.1,0-0.2,0-0.3c0-0.1,0.1-0.2,0.2-0.3c0.1-0.1,0.1-0.1,0.2-0.2c0.1-0.1,0.2-0.1,0.3-0.1l0,0c-0.1-0.1-0.2-0.2-0.3-0.3
			c-0.1-0.1-0.1-0.2-0.1-0.4c0-0.1,0-0.2,0-0.2c0-0.1,0.1-0.2,0.1-0.2c0.1-0.1,0.1-0.1,0.2-0.2c0.1-0.1,0.1-0.1,0.2-0.1l0,0
			c-0.1,0-0.2-0.1-0.3-0.2c-0.1-0.1-0.2-0.2-0.2-0.2c-0.1-0.1-0.1-0.2-0.2-0.3c0-0.1-0.1-0.3-0.1-0.4c0-0.2,0-0.4,0.1-0.7
			c0.1-0.2,0.2-0.4,0.3-0.5c0.2-0.1,0.3-0.3,0.5-0.3c0.2-0.1,0.4-0.1,0.6-0.1h0.3l0.2,0.1l0.2,0.1l0.2,0.1c0,0,0.1-0.1,0.1-0.1
			l0.2-0.1l0.2-0.1c0.1,0,0.1,0,0.2,0H45l0.1,0V28.7z M44.3,32.6c-0.1-0.1-0.3-0.1-0.5-0.1h-1.4c-0.1,0-0.1,0.1-0.2,0.1
			c-0.1,0-0.1,0.1-0.1,0.2c0,0.1-0.1,0.1-0.1,0.2c0,0.1,0,0.1,0,0.2c0,0.1,0,0.2,0.1,0.2c0,0.1,0.1,0.2,0.2,0.2
			c0.1,0.1,0.2,0.1,0.3,0.1c0.2,0,0.3,0,0.5,0c0.2,0,0.4,0,0.5-0.1c0.1,0,0.3-0.1,0.4-0.2c0.1-0.1,0.2-0.2,0.3-0.3
			c0.1-0.1,0.1-0.2,0.1-0.3C44.4,32.8,44.4,32.6,44.3,32.6L44.3,32.6z M44,29.1c0-0.1-0.1-0.2-0.2-0.3c-0.1-0.1-0.2-0.1-0.3-0.2
			c-0.1,0-0.2-0.1-0.3-0.1c-0.1,0-0.2,0-0.3,0.1c-0.1,0.1-0.2,0.1-0.3,0.2c-0.1,0.1-0.1,0.2-0.2,0.4c0,0.2-0.1,0.3-0.1,0.5
			c0,0.2,0,0.3,0.1,0.5c0,0.1,0.1,0.2,0.2,0.3c0.1,0.1,0.2,0.1,0.3,0.2c0.1,0,0.2,0.1,0.3,0.1c0.1,0,0.2,0,0.3-0.1
			c0.1,0,0.2-0.1,0.3-0.2c0.1-0.1,0.2-0.2,0.2-0.4c0.1-0.2,0.1-0.4,0.1-0.5C44,29.4,44,29.3,44,29.1L44,29.1z"/>
		<path class="st0" d="M48.8,32.1l-0.3,0.2c-0.1-0.1-0.2-0.1-0.2-0.2c-0.1-0.1-0.1-0.2-0.2-0.3c-0.1,0.1-0.1,0.1-0.2,0.2
			c-0.1,0.1-0.2,0.1-0.3,0.2c-0.1,0-0.2,0.1-0.3,0.1c-0.1,0-0.2,0-0.3,0c-0.2,0-0.4,0-0.6-0.1c-0.2-0.1-0.3-0.2-0.5-0.4
			c-0.1-0.2-0.3-0.4-0.3-0.6c-0.1-0.2-0.1-0.5-0.1-0.7c0-0.3,0-0.7,0.2-1c0.1-0.3,0.2-0.5,0.4-0.7c0.2-0.2,0.4-0.3,0.6-0.4
			c0.2-0.1,0.5-0.2,0.8-0.2h0.3c0.1,0,0.2,0,0.3,0v-1.4l-0.6-0.2v-0.2c0.2-0.1,0.4-0.1,0.6-0.1h0.5h0.3v0.5v4.7
			c0,0.1,0.1,0.2,0.1,0.2c0,0.1,0.1,0.2,0.2,0.2C49,32,48.9,32,48.8,32.1z M48,28.7c-0.1,0-0.2-0.1-0.3-0.1h-0.3
			c-0.2,0-0.3,0-0.5,0.1c-0.2,0.1-0.3,0.2-0.4,0.3c-0.1,0.2-0.2,0.3-0.3,0.5c0,0.2-0.1,0.5,0,0.7c0,0.2,0,0.4,0.1,0.6
			c0,0.2,0.1,0.3,0.2,0.4c0.1,0.1,0.2,0.2,0.3,0.3c0.1,0.1,0.2,0.1,0.4,0.1h0.2l0.2-0.1l0.2-0.1c0.1,0,0.1-0.1,0.2-0.1L48,28.7z"/>
		<path class="st0" d="M53.2,31c-0.1,0.3-0.2,0.5-0.4,0.7c-0.2,0.2-0.4,0.3-0.6,0.4c-0.2,0.1-0.5,0.2-0.7,0.2c-0.2,0-0.5,0-0.7-0.1
			c-0.2-0.1-0.4-0.2-0.6-0.4c-0.2-0.2-0.3-0.4-0.4-0.6c-0.1-0.3-0.1-0.5-0.1-0.8c0-0.3,0-0.6,0.2-0.9c0.1-0.3,0.2-0.5,0.4-0.7
			c0.2-0.2,0.4-0.3,0.6-0.5c0.5-0.2,1-0.2,1.5,0c0.2,0.1,0.4,0.2,0.6,0.4c0.2,0.2,0.3,0.4,0.4,0.6c0.1,0.2,0.1,0.5,0.1,0.8
			C53.4,30.4,53.4,30.7,53.2,31z M52.6,29.5c-0.1-0.2-0.1-0.3-0.2-0.5c-0.1-0.1-0.2-0.2-0.4-0.3c-0.3-0.1-0.6-0.1-0.8,0
			c-0.1,0.1-0.3,0.2-0.4,0.3c-0.1,0.2-0.2,0.3-0.2,0.5c-0.1,0.2-0.1,0.5-0.1,0.7c0,0.2,0,0.4,0.1,0.7c0,0.2,0.1,0.3,0.2,0.5
			c0.1,0.1,0.2,0.2,0.4,0.3c0.1,0.1,0.3,0.1,0.4,0.1c0.1,0,0.3,0,0.4-0.1c0.1-0.1,0.3-0.2,0.4-0.3c0.1-0.2,0.2-0.3,0.2-0.5
			c0.1-0.2,0.1-0.5,0.1-0.7C52.6,29.9,52.6,29.7,52.6,29.5z"/>
		<path class="st0" d="M59.7,32.2c-0.2,0-0.3,0-0.5,0H59c-0.1,0-0.2,0-0.3-0.1V32c0.1,0,0.2-0.1,0.2-0.2c0-0.1,0.1-0.2,0.1-0.3v-1.6
			c0-0.2,0-0.3,0-0.5c0-0.1-0.1-0.2-0.2-0.3c-0.1-0.1-0.2-0.2-0.3-0.2c-0.1,0-0.2-0.1-0.4-0.1c-0.1,0-0.3,0-0.4,0.1
			c-0.1,0-0.3,0.1-0.4,0.1c0,0.1,0,0.2,0,0.3c0,0.1,0,0.2,0,0.3v2.2l0.4,0.1v0.2c-0.1,0.1-0.2,0.1-0.4,0.1c-0.2,0-0.3,0-0.5,0h-0.3
			c-0.1,0-0.2,0-0.3-0.1V32c0.1,0,0.2-0.1,0.2-0.2c0.1-0.1,0.1-0.2,0.1-0.4v-1.5c0-0.2,0-0.4,0-0.6c0-0.1-0.1-0.3-0.2-0.4
			c-0.1-0.1-0.1-0.1-0.2-0.2c-0.1,0-0.2-0.1-0.3-0.1h-0.2l-0.2,0.1c-0.1,0-0.1,0-0.2,0.1l-0.2,0.1v2.8l0.5,0.1V32
			c-0.1,0.1-0.3,0.1-0.4,0.1c-0.2,0-0.4,0-0.5,0h-0.3c-0.1,0-0.2,0-0.3-0.1v-0.1c0.1,0,0.1,0,0.2-0.1c0.1,0,0.1-0.1,0.1-0.1
			c0,0,0.1-0.1,0.1-0.1c0,0,0-0.1,0-0.1v-2.7l-0.5-0.2v-0.2c0.2-0.1,0.4-0.1,0.5-0.1l0.4-0.1h0.2v0.4c0.1-0.2,0.3-0.3,0.5-0.3
			c0.2-0.1,0.4-0.1,0.7-0.1c0.1,0,0.2,0,0.3,0l0.3,0.1c0.1,0,0.2,0.1,0.2,0.2c0.1,0.1,0.1,0.1,0.2,0.2c0.1-0.1,0.2-0.1,0.2-0.2
			c0.1-0.1,0.2-0.1,0.3-0.2c0.1,0,0.2-0.1,0.4-0.1c0.1,0,0.2,0,0.4,0c0.2,0,0.3,0,0.5,0.1c0.1,0,0.3,0.1,0.4,0.2
			c0.1,0.1,0.2,0.3,0.2,0.4c0.1,0.2,0.1,0.4,0.1,0.6v2.3l0.4,0.1V32C60,32.1,59.9,32.1,59.7,32.2z"/>
		<path class="st0" d="M65.9,31c-0.1,0.3-0.2,0.5-0.4,0.7c-0.2,0.2-0.4,0.3-0.6,0.4c-0.5,0.2-1,0.2-1.4,0c-0.2-0.1-0.4-0.2-0.6-0.4
			c-0.2-0.2-0.3-0.4-0.4-0.6c-0.1-0.3-0.1-0.5-0.1-0.8c0-0.3,0-0.6,0.2-0.9c0.1-0.3,0.2-0.5,0.4-0.7c0.2-0.2,0.4-0.3,0.6-0.5
			c0.5-0.2,1-0.2,1.5,0c0.2,0.1,0.4,0.2,0.6,0.4c0.2,0.2,0.3,0.4,0.4,0.6c0.1,0.2,0.1,0.5,0.1,0.8C66.1,30.3,66,30.7,65.9,31z
			 M65.2,29.5c-0.1-0.2-0.1-0.3-0.2-0.5c-0.1-0.1-0.2-0.2-0.3-0.3c-0.3-0.1-0.6-0.1-0.8,0c-0.1,0.1-0.3,0.2-0.4,0.3
			c-0.1,0.2-0.2,0.3-0.3,0.5c-0.1,0.2-0.1,0.5-0.1,0.7c0,0.2,0,0.4,0.1,0.7c0,0.2,0.1,0.3,0.2,0.5c0.1,0.1,0.2,0.2,0.4,0.3
			c0.1,0.1,0.3,0.1,0.4,0.1c0.1,0,0.3,0,0.4-0.1c0.1-0.1,0.3-0.2,0.4-0.3c0.1-0.2,0.2-0.3,0.3-0.5c0.1-0.2,0.1-0.5,0.1-0.7
			C65.3,29.9,65.3,29.7,65.2,29.5z"/>
		<path class="st0" d="M69.6,26.7v0.1l-0.3-0.1L69,26.7c-0.1,0-0.2,0-0.3,0h-0.3c-0.1,0-0.2,0-0.2,0.1c-0.1,0-0.1,0.1-0.2,0.2
			c-0.1,0.1-0.1,0.2-0.1,0.3c0,0.1,0,0.3,0,0.4v0.1c0,0.1,0,0.1,0,0.2c0,0.1,0,0.2,0,0.2c0,0.1,0,0.1,0,0.2H69l-0.1,0.4h-1v3
			l0.5,0.1v0.2c-0.1,0-0.1,0.1-0.2,0.1c-0.1,0-0.1,0-0.2,0h-0.3h-0.6c-0.1,0-0.2,0-0.3-0.1V32c0.1,0,0.1,0,0.2-0.1
			c0.1,0,0.1-0.1,0.1-0.1c0,0,0.1-0.1,0.1-0.1c0,0,0-0.1,0-0.1v-2.7h-0.5v-0.3l0.5-0.2v-0.6c0-0.2,0-0.4,0.1-0.6
			c0.1-0.2,0.2-0.3,0.3-0.5c0.1-0.1,0.3-0.2,0.5-0.3c0.2-0.1,0.4-0.1,0.7-0.1c0.2,0,0.4,0,0.6,0.1c0.1,0.1,0.2,0.2,0.2,0.3
			C69.6,26.6,69.6,26.7,69.6,26.7z"/>
		<path class="st0" d="M72.3,32.2c-0.3,0-0.5-0.1-0.7-0.3c-0.2-0.3-0.3-0.6-0.2-0.9c0-0.2,0-0.4,0-0.6s0-0.4,0-0.6v-1.1h-0.5v-0.3
			l0.9-0.9h0.3v0.7h1.1v0.4h-1.1v1.1c0,0.2,0,0.3,0,0.5v0.5c0,0.1,0,0.3,0,0.4c0,0.1,0.1,0.2,0.1,0.3c0,0.1,0.1,0.1,0.2,0.2
			c0.1,0,0.1,0,0.2,0c0.1,0,0.2,0,0.3-0.1c0.1,0,0.2-0.1,0.3-0.2h0.1C73.2,32,72.9,32.2,72.3,32.2z"/>
		<path class="st0" d="M77.1,32.2c-0.2,0-0.3,0-0.5,0h-0.3c-0.1,0-0.2,0-0.3-0.1V32c0.1,0,0.2-0.1,0.2-0.2c0.1-0.1,0.1-0.2,0.1-0.3
			v-1.6c0-0.2,0-0.3,0-0.5c0-0.1-0.1-0.2-0.2-0.3c-0.1-0.1-0.2-0.2-0.3-0.2c-0.1,0-0.2-0.1-0.4-0.1h-0.2l-0.2,0.1
			c-0.1,0-0.1,0-0.2,0.1L74.8,29v2.8l0.5,0.1V32c-0.1,0-0.1,0.1-0.2,0.1c-0.1,0-0.1,0-0.2,0h-0.2H74c-0.1,0-0.2,0-0.3-0.1v-0.1
			l0.2-0.1l0.1-0.1c0,0,0.1-0.1,0.1-0.1c0,0,0-0.1,0-0.1v-4.7l-0.5-0.2v-0.2c0.2-0.1,0.3-0.1,0.5-0.1h0.5h0.3v0.5v2
			c0.2-0.1,0.3-0.3,0.5-0.3c0.2-0.1,0.4-0.1,0.7-0.1c0.2,0,0.3,0,0.5,0.1c0.1,0.1,0.3,0.1,0.4,0.2c0.1,0.1,0.2,0.3,0.2,0.4
			c0.1,0.2,0.1,0.4,0.1,0.6v2.3l0.4,0.1v0.2C77.5,32.1,77.3,32.2,77.1,32.2z"/>
		<path class="st0" d="M81.2,30.2h-2.5c0,0.2,0,0.4,0.1,0.6c0.1,0.2,0.2,0.3,0.3,0.5c0.2,0.2,0.5,0.4,0.9,0.4c0.1,0,0.2,0,0.3,0
			c0.1,0,0.2,0,0.3-0.1c0.1,0,0.2-0.1,0.3-0.1l0.3-0.1v0.1c0,0,0,0.1,0,0.1c0,0.1,0,0.2-0.1,0.3c-0.1,0.1-0.2,0.2-0.3,0.2
			c-0.1,0.1-0.3,0.1-0.5,0.2c-0.2,0-0.4,0.1-0.6,0.1c-0.2,0-0.5,0-0.7-0.1c-0.2-0.1-0.4-0.2-0.5-0.4c-0.2-0.2-0.3-0.4-0.4-0.6
			c-0.1-0.3-0.1-0.5-0.1-0.8c0-0.3,0-0.7,0.2-1c0.1-0.3,0.2-0.5,0.4-0.7c0.1-0.2,0.3-0.3,0.5-0.4c0.2-0.1,0.5-0.2,0.7-0.1
			c0.2,0,0.4,0,0.6,0.1c0.2,0.1,0.3,0.2,0.4,0.3c0.1,0.1,0.2,0.3,0.3,0.5c0.1,0.2,0.1,0.4,0.1,0.6v0.2C81.3,30,81.2,30.1,81.2,30.2z
			 M80.5,29.2c0-0.1-0.1-0.3-0.2-0.4c-0.1-0.2-0.4-0.3-0.6-0.3c-0.1,0-0.2,0-0.3,0.1c-0.1,0.1-0.2,0.2-0.3,0.3
			C79,29,79,29.2,78.9,29.3c-0.1,0.1-0.1,0.3-0.1,0.5h1.8C80.6,29.6,80.6,29.4,80.5,29.2z"/>
		<path class="st0" d="M87.8,27.1c-0.1,0-0.1,0.1-0.2,0.1c0,0.1-0.1,0.1-0.1,0.2c0,0.1,0,0.2,0,0.3v4.3l-0.4,0.1l-2.6-4.3l0,0v3.8
			l0.5,0.1V32c-0.1,0-0.2,0.1-0.4,0.1c-0.1,0-0.3,0-0.4,0h-0.4c-0.1,0-0.2,0-0.3-0.1v-0.2c0.1,0,0.1,0,0.2-0.1
			c0.1,0,0.1-0.1,0.2-0.1c0-0.1,0.1-0.1,0.1-0.2c0-0.1,0-0.2,0-0.3v-3.9l-0.5-0.2v-0.2H84h0.7l2.3,3.8l0,0v-3.4l-0.5-0.2v-0.2
			c0.1,0,0.3-0.1,0.4-0.1c0.1,0,0.3,0,0.4,0h0.4c0.1,0,0.1,0,0.2,0h0.2v0.3C88,27.1,87.9,27.1,87.8,27.1z"/>
		<path class="st0" d="M91.8,30.2h-2.5c0,0.2,0,0.4,0.1,0.6c0.1,0.2,0.2,0.3,0.3,0.5c0.1,0.1,0.2,0.2,0.4,0.3
			c0.2,0.1,0.3,0.1,0.5,0.1c0.1,0,0.2,0,0.3,0c0.1,0,0.2,0,0.3-0.1c0.1,0,0.2-0.1,0.3-0.1l0.3-0.1c0,0,0,0,0,0.1c0,0,0,0.1,0,0.1
			c0,0.1,0,0.2-0.1,0.3c-0.1,0.1-0.2,0.2-0.3,0.2c-0.1,0.1-0.3,0.1-0.4,0.2c-0.2,0-0.4,0.1-0.6,0.1c-0.2,0-0.5,0-0.7-0.1
			c-0.2-0.1-0.4-0.2-0.5-0.4c-0.2-0.2-0.3-0.4-0.4-0.6c-0.1-0.3-0.1-0.5-0.1-0.8c0-0.3,0-0.7,0.2-1c0.1-0.3,0.2-0.5,0.4-0.7
			c0.1-0.2,0.3-0.3,0.5-0.4c0.2-0.1,0.4-0.1,0.6-0.1c0.2,0,0.4,0,0.6,0.1c0.2,0.1,0.3,0.2,0.4,0.3c0.1,0.1,0.2,0.3,0.3,0.5
			c0.1,0.2,0.1,0.4,0.1,0.6v0.2C91.7,30,91.7,30.1,91.8,30.2z M91,29.2c0-0.1-0.1-0.3-0.2-0.4c-0.1-0.2-0.4-0.3-0.6-0.3
			c-0.1,0-0.2,0-0.3,0.1c-0.1,0.1-0.2,0.2-0.3,0.3c-0.1,0.1-0.2,0.2-0.2,0.4c-0.1,0.1-0.1,0.3-0.1,0.5h1.8
			C91.1,29.6,91.1,29.4,91,29.2z"/>
		<path class="st0" d="M93.7,32.2c-0.3,0-0.5-0.1-0.7-0.3c-0.2-0.3-0.3-0.6-0.2-0.9c0-0.2,0-0.4,0-0.6s0-0.4,0-0.6v-1.1h-0.5v-0.3
			l0.9-0.9h0.3v0.7h1.1v0.4h-1.1v1.1c0,0.2,0,0.3,0,0.5v0.5c0,0.1,0,0.3,0,0.4c0,0.1,0.1,0.2,0.1,0.3c0,0.1,0.1,0.1,0.2,0.2
			c0.1,0,0.1,0,0.2,0c0.1,0,0.2,0,0.3-0.1c0.1,0,0.2-0.1,0.3-0.2h0.1C94.6,32,94.3,32.2,93.7,32.2z"/>
		<path class="st0" d="M98.6,32.2c-0.2,0-0.3,0-0.5,0h-0.3c-0.1,0-0.2,0-0.3-0.1V32c0.1,0,0.2-0.1,0.2-0.2c0.1-0.1,0.1-0.2,0.1-0.3
			v-1.6c0-0.2,0-0.3-0.1-0.5c0-0.1-0.1-0.2-0.2-0.3c-0.1-0.1-0.2-0.2-0.3-0.2c-0.1,0-0.2-0.1-0.4-0.1h-0.2l-0.2,0.1
			c-0.1,0-0.1,0-0.2,0.1L96.2,29v2.8l0.5,0.1V32c-0.1,0-0.1,0.1-0.2,0.1c-0.1,0-0.1,0-0.2,0H96h-0.6c-0.1,0-0.2,0-0.3-0.1v-0.1
			c0.1,0,0.1,0,0.2-0.1l0.1-0.1c0,0,0.1-0.1,0.1-0.1c0,0,0-0.1,0-0.1v-4.7l-0.5-0.2v-0.2c0.2-0.1,0.4-0.1,0.5-0.1h0.5h0.3v0.5v2
			c0.1-0.1,0.3-0.3,0.5-0.3c0.2-0.1,0.4-0.1,0.7-0.1c0.2,0,0.3,0,0.5,0.1c0.1,0.1,0.3,0.1,0.4,0.2c0.1,0.1,0.2,0.3,0.2,0.4
			c0.1,0.2,0.1,0.4,0.1,0.6v2.3l0.4,0.1v0.2C98.8,32.1,98.7,32.2,98.6,32.2z"/>
		<path class="st0" d="M102.6,30.2h-2.4c0,0.2,0,0.4,0.1,0.6c0.1,0.2,0.2,0.3,0.3,0.5c0.2,0.2,0.5,0.4,0.9,0.4c0.1,0,0.2,0,0.3,0
			c0.1,0,0.2,0,0.3-0.1c0.1,0,0.2-0.1,0.3-0.1l0.3-0.1l0,0.1c0,0,0,0.1,0,0.1c0,0.1,0,0.2-0.1,0.3c-0.1,0.1-0.2,0.2-0.3,0.2
			c-0.1,0.1-0.3,0.1-0.5,0.2c-0.2,0-0.4,0.1-0.6,0.1c-0.2,0-0.5,0-0.7-0.1c-0.2-0.1-0.4-0.2-0.5-0.4c-0.2-0.2-0.3-0.4-0.4-0.6
			c-0.1-0.3-0.1-0.5-0.1-0.8c0-0.3,0-0.7,0.2-1c0.1-0.3,0.2-0.5,0.4-0.7c0.1-0.2,0.3-0.3,0.5-0.4c0.2-0.1,0.4-0.1,0.6-0.1
			c0.2,0,0.4,0,0.6,0.1c0.2,0.1,0.3,0.2,0.4,0.3c0.1,0.1,0.2,0.3,0.3,0.5c0.1,0.2,0.1,0.4,0.1,0.6v0.2
			C102.6,30,102.6,30.1,102.6,30.2z M101.9,29.2c0-0.1-0.1-0.3-0.2-0.4c-0.1-0.1-0.2-0.2-0.3-0.2c-0.1-0.1-0.2-0.1-0.3-0.1
			c-0.1,0-0.2,0-0.3,0.1c-0.1,0.1-0.2,0.2-0.3,0.3c-0.1,0.1-0.2,0.2-0.2,0.4c-0.1,0.1-0.1,0.3-0.1,0.5h1.8
			C102,29.6,102,29.4,101.9,29.2z"/>
		<path class="st0" d="M105.8,28.7c0,0.1-0.1,0.2-0.1,0.2c-0.1-0.1-0.2-0.1-0.2-0.1c-0.1,0-0.2,0-0.3,0c-0.3,0-0.5,0.1-0.7,0.3v2.6
			L105,32v0.2c-0.1,0-0.1,0.1-0.2,0.1c-0.1,0-0.2,0-0.2,0h-0.3h-0.6c-0.1,0-0.2,0-0.3-0.1V32c0.1,0,0.1,0,0.2-0.1l0.1-0.1l0.1-0.1
			c0,0,0-0.1,0-0.1v-2.8l-0.5-0.2v-0.2c0.2-0.1,0.4-0.1,0.5-0.1h0.5h0.2v0.6l0,0l0.2-0.2c0.1-0.1,0.2-0.2,0.3-0.3
			c0.1-0.1,0.2-0.1,0.4-0.1c0.3,0,0.4,0.1,0.4,0.4C105.8,28.6,105.8,28.7,105.8,28.7z"/>
		<path class="st0" d="M107.6,32.1c-0.1,0-0.1,0-0.2,0h-0.2h-0.6c-0.1,0-0.2,0-0.3-0.1v-0.1c0.1,0,0.1,0,0.2-0.1l0.1-0.1
			c0,0,0.1-0.1,0.1-0.1c0,0,0-0.1,0-0.1v-4.7l-0.5-0.2v-0.2l0.3-0.1l0.3-0.1h0.2h0.5v0.5v5.1l0.5,0.1v0.2L107.6,32.1z"/>
		<path class="st0" d="M111.3,32.1c-0.1,0.1-0.2,0.1-0.3,0.2l-0.2-0.2c-0.1-0.1-0.1-0.2-0.2-0.2c-0.1,0.1-0.1,0.1-0.2,0.2l-0.3,0.1
			c-0.1,0-0.2,0.1-0.3,0.1c-0.1,0-0.2,0-0.3,0c-0.1,0-0.3,0-0.4-0.1c-0.1,0-0.2-0.1-0.3-0.2c-0.1-0.1-0.2-0.2-0.2-0.3
			c0-0.1-0.1-0.2-0.1-0.4c0-0.2,0.1-0.4,0.2-0.5c0.1-0.2,0.2-0.3,0.4-0.4c0.2-0.1,0.4-0.2,0.7-0.3c0.3-0.1,0.6-0.1,0.9-0.1v-0.2
			c0-0.2,0-0.4,0-0.5c0-0.1-0.1-0.2-0.1-0.3c-0.1-0.1-0.1-0.1-0.2-0.2c-0.1,0-0.2,0-0.3,0c-0.2,0-0.5,0.1-0.7,0.1
			c-0.2,0.1-0.4,0.2-0.6,0.4c0-0.1,0-0.2,0-0.2c0-0.1,0-0.2,0.1-0.4c0.1-0.1,0.1-0.2,0.2-0.3c0.1-0.1,0.3-0.1,0.4-0.2
			c0.2,0,0.4-0.1,0.6-0.1c0.2,0,0.4,0,0.6,0.1c0.1,0.1,0.3,0.1,0.4,0.2c0.1,0.1,0.2,0.2,0.3,0.3c0.1,0.1,0.1,0.3,0.1,0.5
			c0,0.1,0,0.1,0,0.2v0.2c0,0.1,0,0.2,0,0.2c0,0.1,0,0.2,0,0.2v1.3c0,0.1,0.1,0.2,0.1,0.2c0.1,0.1,0.1,0.1,0.2,0.2
			C111.5,31.9,111.4,32,111.3,32.1z M110.6,30.4c-0.2,0-0.4,0-0.6,0.1c-0.2,0-0.3,0.1-0.5,0.2c-0.1,0.1-0.2,0.2-0.3,0.3
			c-0.1,0.1-0.1,0.2-0.1,0.3c0,0.1,0.1,0.3,0.2,0.4c0.1,0.1,0.3,0.2,0.5,0.2h0.2h0.2l0.2-0.1c0.1,0,0.1,0,0.2-0.1V30.4z"/>
		<path class="st0" d="M115.2,32.2h-0.3c-0.1,0-0.2,0-0.3-0.1V32c0.1,0,0.2-0.1,0.2-0.2c0.1-0.1,0.1-0.2,0.1-0.3v-1.6
			c0-0.2,0-0.3-0.1-0.5c0-0.1-0.1-0.2-0.2-0.3c-0.1-0.1-0.2-0.2-0.3-0.2c-0.1,0-0.2-0.1-0.3-0.1c-0.2,0-0.3,0-0.5,0.1
			c-0.1,0-0.3,0.1-0.4,0.2v2.8l0.5,0.1v0.2l-0.2,0.1c-0.1,0-0.2,0-0.2,0H113h-0.6c-0.1,0-0.2,0-0.3-0.1v-0.1c0.1,0,0.1,0,0.2-0.1
			l0.1-0.1c0,0,0.1-0.1,0.1-0.1c0,0,0-0.1,0-0.1v-2.7l-0.5-0.2v-0.2c0.2-0.1,0.4-0.1,0.5-0.1h0.5h0.2v0.4c0.2-0.2,0.3-0.3,0.5-0.3
			c0.2-0.1,0.4-0.1,0.7-0.1c0.2,0,0.3,0,0.5,0.1c0.1,0.1,0.3,0.1,0.4,0.2c0.1,0.1,0.2,0.3,0.2,0.4c0.1,0.2,0.1,0.4,0.1,0.6v2.3
			l0.4,0.1v0.2C115.7,32.2,115.4,32.2,115.2,32.2z"/>
		<path class="st0" d="M119.9,32.1l-0.3,0.2c-0.1-0.1-0.2-0.1-0.2-0.2c-0.1-0.1-0.1-0.2-0.2-0.3c-0.1,0.1-0.1,0.1-0.2,0.2
			c-0.2,0.1-0.4,0.2-0.6,0.2c-0.1,0-0.2,0-0.3,0c-0.2,0-0.4,0-0.6-0.1c-0.2-0.1-0.3-0.2-0.5-0.4c-0.1-0.2-0.3-0.4-0.3-0.6
			c-0.1-0.2-0.1-0.5-0.1-0.7c0-0.3,0-0.7,0.2-1c0.1-0.3,0.2-0.5,0.4-0.7c0.2-0.2,0.4-0.3,0.6-0.4c0.2-0.1,0.5-0.2,0.8-0.2h0.3h0.3
			v-1.4l-0.6-0.2v-0.2c0.2-0.1,0.4-0.1,0.6-0.1h0.5h0.3v0.5v4.7c0,0.1,0.1,0.2,0.1,0.2c0,0.1,0.1,0.2,0.2,0.2L119.9,32.1z
			 M119.2,28.7c-0.1,0-0.2-0.1-0.3-0.1h-0.3c-0.3,0-0.7,0.2-0.9,0.4c-0.1,0.2-0.2,0.3-0.3,0.5c-0.1,0.2-0.1,0.5-0.1,0.7
			c0,0.2,0,0.4,0.1,0.6c0.1,0.2,0.1,0.3,0.2,0.4c0.1,0.1,0.2,0.2,0.3,0.3c0.1,0.1,0.2,0.1,0.4,0.1h0.2l0.2-0.1l0.2-0.1
			c0.1,0,0.1-0.1,0.2-0.1L119.2,28.7z"/>
		<path class="st0" d="M123.2,31.5c-0.1,0.1-0.2,0.3-0.3,0.4c-0.1,0.1-0.3,0.2-0.5,0.3c-0.2,0.1-0.4,0.1-0.6,0.1
			c-0.3,0-0.6,0-0.8-0.2c-0.2-0.1-0.3-0.3-0.3-0.5c0-0.1,0-0.1,0-0.2c0-0.1,0-0.1,0-0.2c0.2,0.2,0.3,0.3,0.6,0.4
			c0.2,0.1,0.4,0.1,0.6,0.1c0.2,0,0.4,0,0.5-0.2c0.1-0.1,0.2-0.2,0.2-0.4c0-0.1,0-0.1,0-0.2c0-0.1-0.1-0.1-0.1-0.2
			c-0.1-0.1-0.1-0.1-0.2-0.2c-0.1-0.1-0.2-0.1-0.3-0.2l-0.4-0.2c-0.2-0.1-0.4-0.2-0.6-0.4c-0.1-0.2-0.2-0.4-0.2-0.6
			c0-0.2,0-0.3,0.1-0.5c0.2-0.3,0.4-0.5,0.8-0.7c0.2-0.1,0.4-0.1,0.6-0.1c0.1,0,0.3,0,0.4,0c0.1,0,0.2,0,0.3,0.1
			c0.1,0,0.1,0.1,0.2,0.2c0,0.1,0,0.1,0,0.2v0.2c0,0.1,0,0.1,0,0.2c-0.1-0.1-0.3-0.2-0.5-0.2c-0.2-0.1-0.3-0.1-0.5-0.1
			c-0.1,0-0.2,0-0.3,0c-0.1,0-0.2,0.1-0.2,0.1c-0.1,0-0.1,0.1-0.1,0.2c0,0.1,0,0.1,0,0.2c0,0.1,0,0.1,0,0.2c0,0.1,0.1,0.1,0.1,0.2
			c0.1,0.1,0.1,0.1,0.2,0.2c0.1,0.1,0.2,0.1,0.3,0.1l0.5,0.2c0.1,0,0.3,0.1,0.4,0.2c0.1,0.1,0.2,0.1,0.2,0.2
			c0.1,0.1,0.1,0.2,0.1,0.3c0,0.1,0,0.2,0,0.3C123.3,31.1,123.3,31.3,123.2,31.5z"/>
	</g>
</g>
</svg>
