<svg xmlns="http://www.w3.org/2000/svg" viewBox="0 0 313.2 259.3"><defs><style>.cls-1{fill:#351544;}.cls-2{fill:#fff;}</style></defs><title>eee</title><g id="Layer_2" data-name="Layer 2"><g id="Layer_1-2" data-name="Layer 1"><path class="cls-1" d="M121.9,92.3c.7,5,1.2,8.7,1.7,12.8,1.8-.8,2.9-1.1,2.9-1.3-1.6-12.7,5.2-16.3,16.4-15.6,13.6.7,27.3,1.2,41,1.5,5.9.1,12.2,6.3,18-.9.4-.5,4.7,1.6,6.7,3.2,6.3,4.9,12.4,10.2,18.9,15.6-1.5,1.8-4.1,5.1-6.6,8.1-5.7-2.8-10.9-5.5-16.3-8.1v36.2c1.5-.4,2.7-.4,3.3-1,10.6-10,21.7-14,34.8-4.2,1.9,1.4,5.2,1.2,7.8,1.2,16,.2,17.3,1.1,22.5,16.9,1,3,2.1,7.3,4.4,8.2,2.9,1.2,7.9.9,10.2-1,1.7-1.5,1.7-6.9.5-9.7-1.8-4.2-6.4-7.2-7.9-11.5-1.9-5.3-3.9-12.2-1.9-16.6,1.7-3.8,8.7-5.9,13.7-7.3,6.2-1.7,12.8-1.8,21.2-2.8-1.5,3.3-2.4,7.4-4.9,10.3-2.2,2.6-6,3.8-10.9,6.6,2.2.6,1.7.6,1.5.4-3.9-4.7-8.3-11-14.6-5.7-6.5,5.5-.4,10.7,3.3,15.3,1.7,2.1,3.6,4,5.2,6.1,9.1,12.4,4.7,23.7-10.4,26.8-1.6.3-3.2.4-5,.7,4.4,10.1,5.7,10.7,15,6.1-1.1,12.9-3.9,25.6,1,38.7-7.7,8.8-20.2.8-33.6,7.2,1.9-7.5,1.9-13.4,4.8-17.2,2-2.6,7.9-2,13.2-3.1.7-8-5.6-11.4-13-14.4-6.5-2.6-12.8-5.8-19.7-9,12-7.9,12.9-17.4,3.4-27.4-13.1-13.8-28.5-12.6-39.3,3.2-2.3,3.3-4.5,7.1-5.1,11-1.5,8.7-5.9,14.9-13.3,19.1-9.9,5.6-19.8,11.2-30,16.4a10.11,10.11,0,0,1-8,0c-10.2-5.1-20.1-10.6-30-16.2-8.5-4.8-13-11.9-13.2-22.1-.2-10.6-13.2-21.1-24.7-20.9-13.1.3-26.6,11.9-25.7,23.3.4,4.6,4.3,8.9,7.3,14.6-8.1,7.7-27.9,4.9-31.4,23.6,16.9-1.9,19.8,1.6,15.1,17.4-10.5-1.2-21-2.5-32.4-3.8,8.1-14,5.2-26.6,2.4-40.7,8.7,6.1,13.3,3,16.4-5.3-3.2-.7-6.1-1.1-8.8-1.9-11.1-3.3-15-12.9-8.9-22.9,2.6-4.3,7-7.5,9.1-12,1.7-3.7,1.2-8.4,1.6-12.6-4.1.9-8.3,1.5-12.4,2.7a4.06,4.06,0,0,0-2,2c-4-2.3-7.7-3.5-10-6-2.5-2.7-3.5-6.7-5.2-10.1,8.7,1,15.6,1.1,22.1,2.8,5,1.4,11.5,3.8,13.5,7.7s.1,10.8-1.8,15.7-6.8,8.5-8.7,13.3c-1,2.5,1.8,6.5,2.8,9.8,3.8-1.4,8.4-2,11.1-4.6,2.4-2.2,2.5-6.8,3.9-10.2,3.1-8.1,7.1-14.1,17.8-11.2,4,1.1,9.8-.1,13.4-2.4,10.6-7,19.4-4.8,28.1,3.1,1.7,1.5,3.8,2.6,6.8,4.6V107.6c-4.9,2.6-10,5.3-15.9,8.5-2.3-2.8-5-6-7-8.3,6.2-5.2,12-10.6,18.4-15.3,2.9-2.1,6.8-8.5,10.6-.1C115.4,93,119.3,92.3,121.9,92.3Zm56.6,43.2c-.8.4-1.6.7-2.4,1.1,1.4,2.6,3.5,5.1,4.2,8s0,6.4-.1,9.6c-3.2-1.3-9.1-2.3-9.3-3.9-1.1-9.4-8.5-8-14.3-10.4-7.1-2.9-12.6-3.2-18.1,2.4-1.6,1.6-3.7,2.6-6.2,4.2-1.2-2.4-2.2-4.2-3.5-6.8-2.2,1.8-4.1,3.4-6,4.9,3.7,3.9,6.9,7.3,10.1,10.7-.3-1-.6-1.9-1-2.9,5-2.9,9.9-8,15-8.1,4.9-.2,13.5,3.8,14.4,7.5,2.6,11.2,5.5,20.7,19.5,21.7-2.5,3.8-4,6-5.5,8.2,3.6.5,7.3-.3,8-2.1,4.3-10.9-10.4-12.1-11.4-17.9,5.6-4.3,12.6-7.2,12.8-10.5C185.2,146.1,180.9,140.7,178.5,135.5Zm-33.8-6.9c6.8,3,10.3,5.2,14.1,6,2.5.5,6.7,0,7.9-1.7,5.8-7.9,8.9-16.9,6.7-26.8-.4-2.1-3-5.5-4.1-5.3-3.3.6-6.5,2.4-9.4,4.3-1.6,1.1-2.4,3.5-3.1,4.7,1.3,2.3,3.3,5.9,5.5,9.9C156.5,122.7,151.8,125.1,144.7,128.6ZM132,177.8c7,3.4,10.8-.4,14-5.2,2.9-4.4,5.6-8.9,8.3-13.4a8.59,8.59,0,0,0,1.5-5c-.1-.9-3.1-2.4-3.6-2.1-4.1,3.3-11.9,8.1-11.3,10.4C143.4,171.4,140.5,175.4,132,177.8Z"/><path class="cls-1" d="M81.7,241.4c-2-20.9-2-21.4,18.2-23.9a481.07,481.07,0,0,1,119.9.6c13.7,1.7,15.4,5.7,11.9,23.4A542.16,542.16,0,0,0,81.7,241.4Z"/><path class="cls-1" d="M126.4,37.4c2.9-13.7,8.1-14.6,22.4-3.6-.1.9-.3,1.9-.4,2.8-3.7-.5-7.4-1-11.2-1.6-2,7.3-1.3,7.5,4.4,12.2,2.5,2,2.8,6.5,4.5,9.6.8,1.4,2.5,2.3,3.9,3.5a47.54,47.54,0,0,0,3.1-4.1c-5.9-5.1-.7-10.7-1.2-15.8-.6-5.5,4.9-12.1-1.9-17.3-.6-.5,2.6-6.1,4.5-10.1-2.2-.9-4.6-2-8.4-3.6,6.6-1,11.9-1.9,17.2-2.7-2.4-2.2-4.9-4.4-7.3-6.7l8.4,10.5c-.4.2-2.8,1.4-5.9,2.8,4.5,5.5,8.3,10.3,1.6,16.7-1.6,1.5-.5,7.7,1.2,10.7,3.3,5.8,3.8,10.7-.8,15.9-.2.2,1.8,3.4,2.5,3.3,1.6-.2,4.3-1.8,4.3-2.5-.6-6.2,1.7-9.5,7.6-12.1,2.3-1,2.5-6.9,3.9-11.4-5.3,1.6-9.1,2.7-13,3.8-.6-1.6-1.1-3.1-1.7-4.7,5.3-2.2,10.5-5.6,15.9-5.9,2.2-.1,4.8,6.5,7.2,10-2.3,5.1-4.7,10.1-6.7,15.3a98.68,98.68,0,0,0-2.7,9.7l2.2.3c5.6-5.2,11.1-10.4,16.7-15.6-1.2-.2-2.5-.5-3.7-.7-1.9-3-3.7-6-5.6-9a13.07,13.07,0,0,0,2.7,1.2c4.1,1,8.2,1.8,12.3,2.7-1.2,5-1.6,10.3-3.7,14.8-3.9,8.2-8.8,15.8-13.7,24.3H129.6c-5.5-9.1-11.5-18-16.3-27.4a15.71,15.71,0,0,1-.6-12.2c.8-1.9,6.6-1.6,10.2-2.3a12.8,12.8,0,0,1,3.5-.8c-1.9,2.8-3.8,5.7-5.8,8.6-1.2.3-2.4.5-3.6.8,5.8,5.2,11.5,10.4,17.3,15.7.8-.4,1.5-.9,2.3-1.3-1.6-3.7-3.2-7.4-4.8-11.2Z"/><path class="cls-1" d="M47.1,131.7c.7-3,1.3-5.8,2-9.3-3.3-.2-6.2-.4-10.6-.6,8.2-8.6,2.5-11.8-3.1-13.3,2-11.3,3.8-21.8,5.7-32.9,6.8-2,14-6.6,22.8-4.3,9.4,2.4,16,10.5,14.3,19.1H92.5c-4.2,11.2-11.2,3.8-15.3,3.5l-9.4,7.3c6.1,4.5,13.8,9.6,20.7,15.8,2.3,2,2.3,6.6,3.4,10.2C76.9,132.1,63.3,142.6,47.1,131.7Z"/><path class="cls-1" d="M272.3,75.5c2.1,11.4,3.9,21.5,5.9,32.5-8.2,5.6-8.2,5.6-3.7,13.7-3.2.2-6,.4-8.9.6.7,12.1-8.2,17.8-21.7,13.6-7.2-2.3-14.1-5.6-21.5-8.6-.3-17,13.4-20.7,25.3-24.9-3.9-2.7-7.2-5-11.4-7.9-11.7,3.5-11.7,3.5-14.1-4.2,3.2.2,6.4.5,9.5.7a13.52,13.52,0,0,0,2.9-.5C233.3,72.9,245.7,68.2,272.3,75.5Z"/><path class="cls-1" d="M236.3,199.9c-1.4,5.8-16.6-6.6-13.4,9.9-7.2-.6-14.1-1.2-23.8-2,1.1-5.1,2.4-11.4,3.5-16.9,7.5,1,12.2,1.6,16.9,2.2.4-1.1.9-2.2,1.3-3.3-3.2-4.8-6.5-9.6-9.9-14.7,5.3-4.2,10.7-8.9,16.5-13,12.1-8.5,20.6-5,24,9.4-6,3.4-14.1,5.4-17.4,10.6C231.8,186,235.4,193.9,236.3,199.9Z"/><path class="cls-1" d="M102.6,175.2c-2.4,3.6-5.5,7.4-7.8,11.7-3.2,5.9,1.5,7.8,5.5,7.2,13.8-1.8,15.9.7,12.1,13.8-7.2.7-13.8,1.3-21,2,2.1-14.8-11.4-5.9-17-9.9,11-12.3,9.2-16.2-12.2-28.2,3-14.7,12-18.2,24.5-9.2C92.2,166.5,97.4,171,102.6,175.2Z"/><path class="cls-1" d="M280.2,254.6c-18.2-5.3-35-.6-51.8,3.3-5.6,1.3-12.3,3.8-15.3-4.4-2.7-7.2.4-10.9,7.9-10a55.79,55.79,0,0,1,6.9,1.3c1.9.5,3.6,1.5,5.5,2.2,2.5-13.2,11.7-17.2,34-14.9C278,233.3,280.3,236.9,280.2,254.6Z"/><path class="cls-1" d="M33.5,254.6c-.2-17.4,1.9-21.2,11.8-22.4,21.6-2.8,31,1.2,34.4,14.4,6.2-1.3,12.5-2.6,18.6-3.9,4.1,14.3.7,18.4-12.1,15.6C69.1,254.3,52.1,249.1,33.5,254.6Z"/><path class="cls-2" d="M178.5,135.5c2.4,5.3,6.7,10.6,6.4,15.7-.2,3.4-7.3,6.2-12.8,10.5,1,5.8,15.7,6.9,11.4,17.9-.7,1.9-4.4,2.6-8,2.1,1.5-2.2,2.9-4.4,5.5-8.2-14-1-16.9-10.5-19.5-21.7-.9-3.6-9.5-7.6-14.4-7.5-5.1.2-10,5.2-15,8.1.3,1,.6,1.9,1,2.9-3.2-3.4-6.4-6.8-10.1-10.7,1.9-1.6,3.8-3.1,6-4.9,1.3,2.5,2.3,4.4,3.5,6.8,2.4-1.6,4.6-2.6,6.2-4.2,5.5-5.7,11.1-5.3,18.1-2.4,5.8,2.4,13.2,1,14.3,10.4.2,1.7,6,2.7,9.3,3.9.1-3.2.7-6.6.1-9.6-.6-2.8-2.7-5.3-4.2-8A22.5,22.5,0,0,1,178.5,135.5Z"/><path class="cls-2" d="M144.7,128.6c7.2-3.6,11.9-5.9,17.7-8.8-2.2-4-4.2-7.6-5.5-9.9.8-1.3,1.5-3.6,3.1-4.7a25.88,25.88,0,0,1,9.4-4.3c1-.2,3.6,3.2,4.1,5.3,2.1,9.9-.9,19-6.7,26.8-1.2,1.7-5.4,2.2-7.9,1.7C155,133.9,151.5,131.7,144.7,128.6Z"/><path class="cls-2" d="M132,177.8c8.5-2.4,11.4-6.4,8.9-15.3-.6-2.3,7.1-7.1,11.3-10.4.4-.3,3.4,1.2,3.6,2.1a8.59,8.59,0,0,1-1.5,5c-2.6,4.5-5.4,9-8.3,13.4C142.8,177.5,139.1,181.2,132,177.8Z"/><path class="cls-2" d="M187.2,37c1.9,3,3.7,6,5.6,9,1.2.2,2.5.5,3.7.7-5.6,5.2-11.1,10.4-16.7,15.6l-2.2-.3c.9-3.2,1.5-6.6,2.7-9.7,2.2-5.1,4.6-10.1,6.9-15.3Z"/><path class="cls-2" d="M126.4,37.4,131.8,50c1.6,3.7,3.2,7.4,4.8,11.2-.8.4-1.5.9-2.3,1.3-5.8-5.2-11.5-10.4-17.3-15.7,1.2-.3,2.4-.5,3.6-.8,2-2.9,3.9-5.8,5.8-8.6Z"/></g></g></svg>