<svg xmlns="http://www.w3.org/2000/svg" viewBox="0 0 116.12 48.92"><defs><style>.cls-1{fill:#351544;}.cls-2{fill:#fff;}</style></defs><title>embassy</title><g id="Layer_2" data-name="Layer 2"><g id="Layer_1-2" data-name="Layer 1"><rect class="cls-1" width="24.46" height="48.92"/><path class="cls-2" d="M12.66,37.81h-.43V36.63h.43Zm1.91-5.2h-.42V31.43h.42Zm-7.87-2s-.25,0-.25.05.1,0,.25,0c.34.06.47.23.71.23a.33.33,0,0,0,.35-.46c0-.05,0,0,0,0s-.2.22-.38.22S7.05,30.58,6.7,30.58ZM4.36,31.76s.43.57-.18.77c0,0,0,0,0,0a.53.53,0,0,0,.68-.16.69.69,0,0,1-.12.82,1,1,0,0,0,.59.32.76.76,0,0,0,.38-.39.71.71,0,0,1,0,.45c.93.08,1.25-.66,2-.53,0,0,0,0,0,0A1.48,1.48,0,0,0,6.55,31.6c-.88-.17-.64-.54-.64-.54a1,1,0,0,1,.59.15.23.23,0,0,0,0-.23.8.8,0,0,0,0-.2c-.42,0-.53-.09-.53-.09-.06-.25.11-.6.74-.22a.49.49,0,0,0,.14-.35A.19.19,0,0,0,7,30c0-.1-.5-.38-.63-.42s-.23-.37-.81-.29c-.28,0-.48,0-.39-.2s0,0-.06,0-.15.24.09.36a.53.53,0,0,1,.29.45c0,.06-.06.06-.08,0a.74.74,0,0,0-1.11-.31.48.48,0,0,0,.43.41.21.21,0,0,0,.19-.2c0-.05,0-.05,0,0a.33.33,0,0,1-.54.29,1,1,0,0,0-.18,1c.07.3-.08.58-.34.45,0,0,0,0,0,0A.34.34,0,0,0,4.36,31.76Zm2-1.83c-.17.19-.44.15-.51-.16C6.19,29.75,6.34,29.78,6.35,29.93Zm10.79.73c-.18,0-.36-.08-.39-.22s0-.05-.05,0a.33.33,0,0,0,.35.46c.24,0,.37-.17.71-.23.15,0,.26,0,.26,0s-.22-.05-.26-.05C17.41,30.58,17.36,30.66,17.14,30.66Zm3.49.86s0,0,0,0c-.27.13-.41-.15-.35-.45a.94.94,0,0,0-.18-1,.33.33,0,0,1-.54-.29c0-.05.05-.05.05,0a.21.21,0,0,0,.2.2.48.48,0,0,0,.42-.41.74.74,0,0,0-1.11.31c0,.06-.08.06-.08,0a.53.53,0,0,1,.29-.45c.24-.12.15-.3.09-.36s-.08,0-.06,0-.11.24-.39.2c-.58-.08-.78.14-.81.29s-.62.32-.62.42a.21.21,0,0,0,.07.13.47.47,0,0,0,.15.35c.62-.38.79,0,.73.22,0,0-.11.09-.53.09a.8.8,0,0,0,0,.2.22.22,0,0,0,0,.23,1,1,0,0,1,.58-.15s.24.37-.64.54a1.48,1.48,0,0,0-1.17,1.46s0,0,0,0c.72-.13,1.05.61,2,.53a.75.75,0,0,1,0-.45.76.76,0,0,0,.38.39,1,1,0,0,0,.6-.32.68.68,0,0,1-.13-.82.53.53,0,0,0,.68.16s0,0,0,0c-.61-.2-.21-.72-.17-.77A.33.33,0,0,0,20.63,31.52Zm-2-1.75c-.07.31-.34.35-.51.16C18.12,29.78,18.27,29.75,18.62,29.77Zm-6.55-5.23a.33.33,0,0,0,.06.19c0,.08,0,.12,0,.15s-.07,0-.15,0a.3.3,0,0,0-.18-.06c-.14,0-.2.08-.2.16s.06.16.2.16a.3.3,0,0,0,.18-.06c.08,0,.12,0,.15,0a2.27,2.27,0,0,1,0,.51.37.37,0,0,0-.33.33c0,.26.28.42.45.51.17-.09.45-.25.45-.51a.37.37,0,0,0-.32-.33,2.53,2.53,0,0,1,0-.51s.07,0,.15,0a.32.32,0,0,0,.18.06c.14,0,.21-.09.21-.16s-.07-.16-.21-.16a.32.32,0,0,0-.18.06c-.08.05-.12,0-.15,0s0-.07,0-.15a.33.33,0,0,0,.06-.19c0-.13-.08-.2-.16-.2A.18.18,0,0,0,12.07,24.54Zm.16,2a.32.32,0,0,0-.32.32.32.32,0,0,0,.32.33.33.33,0,0,0,.33-.33A.32.32,0,0,0,12.23,26.53Zm0,3.13a7,7,0,0,1,2,.25c0-.66,0-1,.38-1-.21-.55.68-.77.68-1.49,0-.48-.33-.53-.43-.53-.3,0-.25.19-.5.19,0,0-.06,0-.06,0s.07.23.18.23.16-.15.27-.15.12,0,.12.19a1.51,1.51,0,0,1-.43.91.29.29,0,0,0-.22-.12.31.31,0,0,0-.26.33.47.47,0,0,0,0,.17.4.4,0,0,1-.2.07.25.25,0,0,1-.27-.28c0-.52.7-1,.7-1.64a.61.61,0,0,0-.65-.63c-.48,0-.39.43-.8.43,0,0,0,0,0,0s.07.27.28.27.29-.39.49-.39.19,0,.19.31a2.4,2.4,0,0,1-.25.86.27.27,0,0,0-.21-.1A.34.34,0,0,0,13,28a.44.44,0,0,0,.14.33.48.48,0,0,1-.35.24c-.28,0-.41-.16-.41-.34s.35-.25.35-.55a.29.29,0,0,0-.26-.31.34.34,0,0,0-.22.09.34.34,0,0,0-.22-.09.28.28,0,0,0-.25.31c0,.3.34.37.34.55s-.12.34-.41.34a.48.48,0,0,1-.35-.24.44.44,0,0,0,.14-.33.34.34,0,0,0-.3-.38.28.28,0,0,0-.21.1,2.4,2.4,0,0,1-.25-.86c0-.27.11-.31.19-.31s.26.39.49.39.28-.24.28-.27,0,0,0,0c-.41,0-.32-.43-.8-.43a.61.61,0,0,0-.65.63c0,.66.7,1.12.7,1.64a.25.25,0,0,1-.27.28.4.4,0,0,1-.2-.07.33.33,0,0,0,0-.17.31.31,0,0,0-.27-.33.26.26,0,0,0-.21.12,1.47,1.47,0,0,1-.44-.91c0-.15.07-.19.12-.19s.12.15.27.15.19-.14.19-.23,0,0-.07,0c-.25,0-.2-.19-.5-.19-.1,0-.43,0-.43.53,0,.72.89.94.68,1.49.38-.06.37.31.38,1A7,7,0,0,1,12.23,29.66Zm-2.39,1c-.35.08-.61.16-.72.19,0-.16.06-.3.2-.33a0,0,0,0,0,0,0c-.32-.21-.49.19-.49.2s-.29,0-.29.18c0,.45-1,.7-1.27.74a1.26,1.26,0,0,1,.6.7,2.52,2.52,0,0,1,.74-.58c.08,0,.11.1.12.16s0,0,0,0c.17-.24.09-.29.08-.36a.2.2,0,0,1,.24-.24v3L9,34.3c-.06,0-.5-.36-1-.71s-.78-.14-1.35.17a1.79,1.79,0,0,1-1.52,0,3.29,3.29,0,0,0-.88,1.81,1.41,1.41,0,0,1-.55.11c-.49,0-.58-.3-.58-.48,0-.76,1-1.09,1-1.85a.92.92,0,0,0-1-.93H2.2a.5.5,0,0,1-.48-.35s-.05,0,0,0,0,.16,0,.35a.46.46,0,0,0,.52.49.79.79,0,0,0,.34-.07s0,0,0,0a.63.63,0,0,0-.09.57s0,0,0,0a.83.83,0,0,1,.8-.63.46.46,0,0,1,.5.52c0,.62-1.09,1.07-1.09,1.92s.91,1,1.44.91c0,.85-1,1.15-1.05.53,0,0,0,0,0,0-.12.3-.07.57.31.65,0,0,0,0,0,0-.38.24-.17,1.19-.15,1.47s-.38.35-.41.34,0,0,0,0a.43.43,0,0,0,.64,0c.26.08.1.31-.08.43,0,0,0,0,0,0s.45,0,.52-.29a.44.44,0,0,0,.5.11c.08,0,.46-.18.5.25,0,0,0,0,0,0a.35.35,0,0,0-.2-.61.29.29,0,0,1,.46,0s0,0,0,0c0-.46-.36-.51-.6-.31,0,0-.09-.3.28-.29,0,0,0,0,0,0a.34.34,0,0,0-.57,0c-.13.15-.44.09-.47.09.1-1.61,1.51-1,1.71-1.82,0,0,0,0,0,0,.05.19.53.22.62-.16,0,0,0,0,0,0-.4.41-1.33-.87-.07-1.91a1.83,1.83,0,0,1,2.41-.1.14.14,0,0,1-.11.18,0,0,0,0,0,0,0,.29.29,0,0,0,.32-.07c.23.16,0,.36-.06.42s0,0,0,0a.37.37,0,0,0,.39-.3l0,0V36c0,1.3,1.5,1.48,3.14,2.58,1.65-1.1,3.15-1.28,3.15-2.58v-.91l0,0a.37.37,0,0,0,.4.3s0,0,0,0-.29-.26-.06-.42a.29.29,0,0,0,.32.07,0,0,0,0,0,0,0c-.05,0-.12,0-.1-.18a1.82,1.82,0,0,1,2.4.1c1.26,1,.34,2.32-.07,1.91,0,0,0,0,0,0,.09.38.57.35.62.16,0,0,0,0,0,0,.19.78,1.61.21,1.7,1.82,0,0-.34.06-.47-.09a.34.34,0,0,0-.57,0s0,0,0,0c.36,0,.28.25.27.29-.24-.2-.62-.15-.59.31,0,0,0,0,0,0a.29.29,0,0,1,.46,0,.35.35,0,0,0-.19.61s0,0,0,0c0-.43.42-.29.5-.25a.44.44,0,0,0,.5-.11c.08.32.49.29.53.29s0,0,0,0-.34-.35-.08-.43a.43.43,0,0,0,.64,0s0,0,0,0-.43.06-.4-.34.22-1.23-.16-1.47c0,0,0,0,0,0,.38-.08.43-.35.31-.65,0,0,0,0,0,0,0,.62-1,.32-1.05-.53.53.13,1.44,0,1.44-.91S20.7,34,20.7,33.39a.45.45,0,0,1,.49-.52.83.83,0,0,1,.8.63s0,0,0,0a.64.64,0,0,0-.1-.57s0,0,0,0a.79.79,0,0,0,.34.07.46.46,0,0,0,.52-.49c0-.19-.07-.29,0-.35s0-.05,0,0a.49.49,0,0,1-.48.35h-.83a.91.91,0,0,0-1,.93c0,.76,1,1.09,1,1.85,0,.18-.09.48-.59.48a1.41,1.41,0,0,1-.55-.11,3.33,3.33,0,0,0-.87-1.81,1.79,1.79,0,0,1-1.52,0c-.58-.31-.85-.52-1.36-.17s-.95.72-1,.71l-.12,0v-3a.2.2,0,0,1,.24.24c0,.07-.09.12.07.36,0,0,0,0,0,0s0-.16.12-.16a2.64,2.64,0,0,1,.75.58,1.22,1.22,0,0,1,.6-.7c-.25,0-1.28-.29-1.28-.74,0-.15-.17-.19-.28-.18s-.18-.41-.5-.2a0,0,0,0,0,0,0c.14,0,.2.17.21.33a11.62,11.62,0,0,0-3.12-.45,10.92,10.92,0,0,0-2,.18V31.6H9.84v-1h0M7,41.37a.25.25,0,0,1-.18-.26v-.65a4.63,4.63,0,0,0-1.72-.26c-.84,0-1.11.19-1.12.25l-.22,1.24s.34-.31,1.56-.23c1.48.09,3,1,3,0V41C7.19,41,7,41.32,7,41.37ZM16.11,41v.55c0,.93,1.53,0,3,0,1.22-.08,1.57.23,1.57.23l-.23-1.24c0-.06-.28-.25-1.12-.25a4.63,4.63,0,0,0-1.72.26v.65a.25.25,0,0,1-.18.26S17.27,41,16.11,41Zm-3.88-.56c2.38,0,4.79.12,5.11.48,0,0,0,0,0,0V39.59c0-.37-2.5-.58-5.15-.58s-5.14.21-5.14.58v1.26s0,0,0,0C7.44,40.51,9.85,40.39,12.23,40.39Zm-2.12-5.94-.24-.07,0,0-.28-.12h.25s0,0,0,0l-.21-.21.28.11s0,0,0,0l-.18-.27.27.18s0,0,0,0l-.13-.31.25.23s0,0,0,0-.07-.32-.07-.32l.18.27s0,0,0,0v-.29l.12.27s0,0,0,0l.09-.22v.3h0l0,.36c.36-.09.81-.7,1.15-.7s.56.48,1.31.24a2.14,2.14,0,0,1,.33.86c.29.28.7.19.7-.1s-.42-.47-.42-.88a.44.44,0,0,1,.47-.44c.19,0,.46.08.61.08a.26.26,0,0,0,.25-.19,0,0,0,0,1,.06,0s0,.09,0,.18c0,.26-.38.29-.42.26s0,0,0,0a.28.28,0,0,1,0,.3h0a.56.56,0,0,0-.44-.42.2.2,0,0,0-.21.21c0,.23.46.44.46.92s-.5.62-1,.5c0,.47.72.75.74.41,0,0,0,0,0,0s.06.26-.08.31c.12.06.15.31.18.46s.29.09.3.09,0,0,0,0a.26.26,0,0,1-.33.15c-.12.08,0,.16.14.2s0,0,0,0-.26.08-.35-.07a.22.22,0,0,1-.24.15c-.09,0-.15.1-.13.22s0,0,0,0a.2.2,0,0,1,0-.36.17.17,0,0,0-.23.11h0c-.09-.25.11-.33.26-.26a.22.22,0,0,0-.28-.12s0,0,0,0a.19.19,0,0,1,.31-.07c.09.06.24,0,.26,0-.32-.63-.93-.11-1.07-.6,0,0,0,0,0,0s-.3.11-.35-.1c0,0,0,0,0,0s.12.07.23-.09a.58.58,0,0,0,.09-.34,1.09,1.09,0,0,0-1-1,1.9,1.9,0,0,0-1.08.37l.28.06a.43.43,0,0,1-.55.38l0-.32a.41.41,0,0,0-.21.13h0a.25.25,0,0,1,.15-.3s0,0,0,0a.3.3,0,0,0-.24.13h0A.2.2,0,0,1,10.11,34.45Zm.83,2.18c-.11.14-.2,0-.34,0a.16.16,0,0,0-.16.15s0,0,0,0c-.15-.21,0-.32.12-.33a.17.17,0,0,0-.26,0s0,0,0,0c0-.25.2-.27.33-.16,0-.09,0-.16-.14-.16s0,0,0,0a.17.17,0,0,1,.13-.07c.14,0,.16.18.25.18s.34-.19.36-.21a1.45,1.45,0,0,1-.11-.58h0c-.07,0-.24,0-.24-.17,0,0,0,0,0,0s.19,0,.25-.08.42-.58.88-.58a.69.69,0,0,1,.34.13c-.16.2,0,.39.12.36s0,0,0,0c-.61.23-.89.32-.89.84,0,.27.09.41.25.38,0,0,0,0,0,0a.22.22,0,0,1-.18.09c-.13,0-.15-.07-.22-.07s-.3.14-.3.25a.2.2,0,0,0,.11.15h0C11.17,36.79,11,36.81,10.94,36.63Zm1.62-5c-.19,0-.31,0-.31.1S12.47,31.8,12.56,31.62Zm-.71.48a.6.6,0,0,1,.3,0s0,0,0,0c-.28,0-.3.17-.48.17a.22.22,0,0,1-.2-.3s0,0,0,0S11.63,32.16,11.85,32.1ZM8.17,38.38c.19.24.37,0,.62,0s.26,0,.29.28h0a.35.35,0,0,0-.21-.6.32.32,0,0,1,.47,0s0,0,0,0c0-.46-.35-.49-.6-.29,0-.18.08-.3.26-.3,0,0,0,0,0,0-.31-.33-.55.09-.6.15s-.57-.14-.74-.33a1.44,1.44,0,0,0,.39-.78v-.07s0,0,0,0a.37.37,0,0,0,.15,0c.09,0,.26,0,.26-.35,0,0,0,0,0,0a.14.14,0,0,1-.13.08c-.32,0-1-1.05-1.76-1.05a1.3,1.3,0,0,0-.79.35.26.26,0,0,1,.11.26.29.29,0,0,1-.23.23s0,0,0,0A7.59,7.59,0,0,1,7,36.59c.19.16.16.48,0,.91s-.33.36-.42.35,0,0,0,0a.43.43,0,0,0,.33.18c.21,0,.28-.13.39-.13s.55.25.55.45a.36.36,0,0,1-.19.28s0,0,0,0S8.11,38.7,8.17,38.38Zm8.62.27h0a.37.37,0,0,1-.2-.28c0-.2.37-.45.55-.45s.18.13.39.13a.43.43,0,0,0,.33-.18s0,0,0,0-.31.07-.42-.35-.15-.75,0-.91A7.59,7.59,0,0,1,18.75,36s0,0,0,0a.28.28,0,0,1-.22-.23.25.25,0,0,1,.1-.26,1.3,1.3,0,0,0-.79-.35c-.78,0-1.44,1.05-1.75,1.05a.15.15,0,0,1-.14-.08s0,0,0,0c0,.32.17.35.26.35a.33.33,0,0,0,.14,0s0,0,0,0a.56.56,0,0,0,0,.07,1.43,1.43,0,0,0,.4.78c-.18.19-.63.5-.75.33s-.29-.48-.6-.15c0,0,0,0,0,0,.18,0,.31.12.27.3-.26-.2-.6-.17-.6.29,0,0,0,0,0,0a.32.32,0,0,1,.47,0,.35.35,0,0,0-.21.6h0c0-.24.17-.28.29-.28s.43.22.62,0C16.36,38.7,16.71,38.67,16.79,38.65Zm-6.31-6.09s-.11,0-.14,0,0,0,0,0a.26.26,0,0,0,.21.17.23.23,0,0,0,.15-.06l.69.21a.76.76,0,0,0-.15.41l-.92-.51-.23.31c0,.06-.22-.08-.18-.13l.17-.24c-.05-.06-.19,0-.23,0s0,0,0,0a.24.24,0,0,1,.32-.12c0-.13-.2-.09-.25-.08h0a.33.33,0,0,1,.39-.08l.08-.1-.16-.17.1-.13.11.14L11.29,31a.73.73,0,0,1,.25-.09.73.73,0,0,1,0,.26l-.83,1.17.18.06-.1.14-.21-.1Zm3-.19c0,.1.06.26.2.21s0,0,0,0-.24.23-.33.09a.31.31,0,0,0,.11.45s0,0,0,0a.25.25,0,0,1-.37-.09.31.31,0,0,0,0,.44,1,1,0,0,1-.81.08,1.38,1.38,0,0,0-.78-.26c0-.45.27-.57.69-.64s.38-.21.33-.32a.65.65,0,0,0-.32.07c0-.06,0-.13,0-.13a.3.3,0,0,1,0-.11c.23,0,.27,0,.27,0,.05-.24-.2-.27-.39-.14a.23.23,0,0,1-.08-.18.1.1,0,0,1,0-.07c0-.06.28-.22.35-.23s.12-.2.41-.17a1,1,0,0,0,0-.44s0,0,0,0,.2.3.27.31a3.78,3.78,0,0,1,.35-.17,2.92,2.92,0,0,1,.07.39s.3,0,.41,0,0,0,0,0a1.16,1.16,0,0,0-.4.2A1.08,1.08,0,0,1,13.45,32.37Z"/><path class="cls-1" d="M31.61,31.66l-.21.05-.22,0h-.64a1.29,1.29,0,0,1-.31-.07v-.14a.62.62,0,0,0,.34-.21.61.61,0,0,0,.1-.38V27.17l-.48-.12v-.17a3.43,3.43,0,0,1,.44-.09l.43,0,.38,0a1.86,1.86,0,0,1,.34.06V27l-.21.08a.69.69,0,0,0-.13.11.4.4,0,0,0-.08.16,1.27,1.27,0,0,0,0,.22v3.77l.48.12v.17Zm2.39.07a.85.85,0,0,1-.3.05,1,1,0,0,1-.25,0,.92.92,0,0,1-.23-.09,2,2,0,0,1-.22-.2,3,3,0,0,1-.26-.31l-1.38-1.92v0l1.81-2.06h0l-.41-.1v-.16l.23-.06.2,0h.4l.28,0a1.23,1.23,0,0,1,.25,0V27a1.57,1.57,0,0,0-.29.16,1.46,1.46,0,0,0-.27.24L32,29.08l1.36,1.73a2,2,0,0,0,.19.21l.19.17a1.1,1.1,0,0,0,.21.14l.26.13v.15Z"/><path class="cls-1" d="M35.78,31.66a.71.71,0,0,1-.21,0l-.22,0H34.8a.94.94,0,0,1-.29-.06v-.13a.39.39,0,0,0,.15-.06l.13-.1a.4.4,0,0,0,.1-.12.28.28,0,0,0,0-.13V28.54l-.49-.21v-.16a3.16,3.16,0,0,1,.5-.1,2.25,2.25,0,0,1,.41,0h.24l0,.41v2.9l.43.12v.14ZM35.63,27a.38.38,0,0,1-.09.15.41.41,0,0,1-.13.1.35.35,0,0,1-.17,0,.41.41,0,0,1-.16,0L35,27.2a.73.73,0,0,1-.09-.13.57.57,0,0,1,0-.18.51.51,0,0,1,0-.17.42.42,0,0,1,.09-.14.31.31,0,0,1,.13-.1.58.58,0,0,1,.19,0l.15,0a.57.57,0,0,1,.13.08.35.35,0,0,1,.08.13.33.33,0,0,1,0,.17A.41.41,0,0,1,35.63,27Z"/><path class="cls-1" d="M39.33,31.73h-.25a.65.65,0,0,1-.24-.06v-.13a.33.33,0,0,0,.2-.18.56.56,0,0,0,.07-.32V29.57a2.12,2.12,0,0,0,0-.47.74.74,0,0,0-.16-.32.61.61,0,0,0-.24-.19,1.06,1.06,0,0,0-.31-.05,1.27,1.27,0,0,0-.44.07,1.14,1.14,0,0,0-.35.17v2.56l.43.12v.14l-.19.06a.78.78,0,0,1-.21,0l-.23,0h-.55a.82.82,0,0,1-.28-.06v-.13a.47.47,0,0,0,.15-.06l.13-.1a.62.62,0,0,0,.09-.12.19.19,0,0,0,0-.13V28.54l-.49-.21v-.16a2.37,2.37,0,0,1,.5-.11l.41,0h.19v.41a1.37,1.37,0,0,1,.49-.31,1.73,1.73,0,0,1,.64-.12,1.18,1.18,0,0,1,.43.08.89.89,0,0,1,.34.23,1,1,0,0,1,.22.37,1.62,1.62,0,0,1,.08.52v2.13l.4.12v.14A2.15,2.15,0,0,1,39.33,31.73Z"/><path class="cls-1" d="M44,28.53l-.39-.07-.42,0h0l.17.17a1.43,1.43,0,0,1,.14.2,1,1,0,0,1,.09.22,1.12,1.12,0,0,1,0,.24,1.55,1.55,0,0,1-.13.61,1.45,1.45,0,0,1-.34.47,1.44,1.44,0,0,1-.49.3,1.63,1.63,0,0,1-.59.11l-.25,0-.22-.07a.28.28,0,0,0-.09.07.36.36,0,0,0-.08.09.31.31,0,0,0,0,.1.23.23,0,0,0,0,.11.32.32,0,0,0,.13.26.64.64,0,0,0,.36.09h1.07a1.09,1.09,0,0,1,.74.21.76.76,0,0,1,.26.64,1,1,0,0,1-.14.52,1.55,1.55,0,0,1-.39.42,1.63,1.63,0,0,1-.59.29,2.55,2.55,0,0,1-.74.11,2.46,2.46,0,0,1-.64-.07,1.16,1.16,0,0,1-.45-.19.69.69,0,0,1-.28-.28.73.73,0,0,1-.09-.35.71.71,0,0,1,0-.29,1.28,1.28,0,0,1,.15-.25A2.11,2.11,0,0,1,41,32a1.78,1.78,0,0,1,.29-.12h0A.63.63,0,0,1,41,31.6a.52.52,0,0,1-.13-.36.54.54,0,0,1,0-.22.66.66,0,0,1,.11-.2.85.85,0,0,1,.17-.16.53.53,0,0,1,.21-.11h0a.79.79,0,0,1-.25-.15,1,1,0,0,1-.23-.23,1.48,1.48,0,0,1-.15-.31,1.15,1.15,0,0,1-.06-.37,1.53,1.53,0,0,1,.12-.6,1.75,1.75,0,0,1,.32-.48,1.8,1.8,0,0,1,.49-.32,1.67,1.67,0,0,1,.59-.11l.25,0,.23.06.21.08.14.09a.48.48,0,0,1,.13-.09l.16-.08.19-.05a.65.65,0,0,1,.19,0h.18L44,28Zm-.79,3.54a.66.66,0,0,0-.42-.12H41.54a.49.49,0,0,0-.15.1.57.57,0,0,0-.13.14,1,1,0,0,0-.08.18.63.63,0,0,0,0,.19.43.43,0,0,0,.06.22.45.45,0,0,0,.18.18,1,1,0,0,0,.31.13,1.81,1.81,0,0,0,.43,0,1.88,1.88,0,0,0,.49-.06,2,2,0,0,0,.38-.16.82.82,0,0,0,.25-.24.53.53,0,0,0,.08-.27A.41.41,0,0,0,43.19,32.07Zm-.32-3.19a.92.92,0,0,0-.17-.29.84.84,0,0,0-.24-.18.79.79,0,0,0-.3-.05.7.7,0,0,0-.31.07,1,1,0,0,0-.25.22,1.29,1.29,0,0,0-.18.33,2.13,2.13,0,0,0-.06.45,1.63,1.63,0,0,0,.06.42.84.84,0,0,0,.16.3.8.8,0,0,0,.24.18.67.67,0,0,0,.28.06.83.83,0,0,0,.32-.06.73.73,0,0,0,.26-.2.92.92,0,0,0,.18-.34,1.45,1.45,0,0,0,.07-.49A1.37,1.37,0,0,0,42.87,28.88Z"/><path class="cls-1" d="M47.32,31.62l-.29.17a1.14,1.14,0,0,1-.22-.22,2.29,2.29,0,0,1-.15-.24,1.2,1.2,0,0,1-.21.17,1.23,1.23,0,0,1-.25.14,1.34,1.34,0,0,1-.26.09.83.83,0,0,1-.26,0,1.24,1.24,0,0,1-.54-.11,1.41,1.41,0,0,1-.44-.33,1.79,1.79,0,0,1-.3-.53,2.06,2.06,0,0,1-.11-.68,2.52,2.52,0,0,1,.15-.91,1.93,1.93,0,0,1,.4-.67,1.58,1.58,0,0,1,.58-.41,1.82,1.82,0,0,1,.7-.14l.28,0a1.31,1.31,0,0,1,.25,0V26.69l-.52-.2v-.17a2.41,2.41,0,0,1,.52-.11l.42,0h.25l0,.43V31a1,1,0,0,0,.12.23.72.72,0,0,0,.17.22A2.23,2.23,0,0,1,47.32,31.62Zm-.67-3.12a1.64,1.64,0,0,0-.25-.07l-.3,0a1,1,0,0,0-.45.1,1,1,0,0,0-.37.29,1.49,1.49,0,0,0-.24.49A2.84,2.84,0,0,0,45,30a1.55,1.55,0,0,0,.08.55,1.42,1.42,0,0,0,.2.41.81.81,0,0,0,.29.24.7.7,0,0,0,.35.09l.22,0,.21-.05.19-.08a.56.56,0,0,0,.15-.1Z"/><path class="cls-1" d="M51.46,30.59a2.15,2.15,0,0,1-.4.65,1.84,1.84,0,0,1-.57.4,1.66,1.66,0,0,1-.67.15,1.57,1.57,0,0,1-.65-.13,1.42,1.42,0,0,1-.53-.34,1.64,1.64,0,0,1-.36-.55,1.93,1.93,0,0,1-.13-.75,2.57,2.57,0,0,1,.14-.85,2.05,2.05,0,0,1,.4-.64,1.91,1.91,0,0,1,.57-.42,1.73,1.73,0,0,1,1.34,0,1.39,1.39,0,0,1,.53.36,1.62,1.62,0,0,1,.35.55,1.88,1.88,0,0,1,.13.72A2.31,2.31,0,0,1,51.46,30.59Zm-.63-1.38a1.4,1.4,0,0,0-.22-.44,1,1,0,0,0-.33-.27.83.83,0,0,0-.77,0,.94.94,0,0,0-.34.29,1.34,1.34,0,0,0-.23.48,1.93,1.93,0,0,0-.1.67,1.85,1.85,0,0,0,.09.6,1.3,1.3,0,0,0,.22.44,1,1,0,0,0,.33.27,1,1,0,0,0,.39.08.88.88,0,0,0,.38-.09,1,1,0,0,0,.34-.29,1.53,1.53,0,0,0,.23-.48,2.29,2.29,0,0,0,.09-.68A2.1,2.1,0,0,0,50.83,29.21Z"/><path class="cls-1" d="M57.46,31.7a3.09,3.09,0,0,1-.45,0h-.25a.61.61,0,0,1-.24-.06v-.13a.35.35,0,0,0,.21-.18.67.67,0,0,0,.06-.32V29.54a1.55,1.55,0,0,0,0-.45.82.82,0,0,0-.16-.31.61.61,0,0,0-.24-.19,1.09,1.09,0,0,0-.33-.05,1.74,1.74,0,0,0-.39.05,1.26,1.26,0,0,0-.34.13,1.59,1.59,0,0,1,0,.26c0,.11,0,.21,0,.31v2.05l.39.12v.14a1.2,1.2,0,0,1-.35.1,3,3,0,0,1-.45,0h-.25a.65.65,0,0,1-.24-.06v-.13a.37.37,0,0,0,.21-.18A.67.67,0,0,0,54.7,31v-1.4a2.6,2.6,0,0,0,0-.53,1.2,1.2,0,0,0-.14-.34.48.48,0,0,0-.23-.17,1,1,0,0,0-.31-.05l-.23,0-.21.05a.71.71,0,0,0-.18.08l-.14.09v2.56l.43.12v.14a2,2,0,0,1-.4.1,3.48,3.48,0,0,1-.49,0h-.29a.82.82,0,0,1-.28-.06v-.13a.35.35,0,0,0,.14-.06.49.49,0,0,0,.13-.1.4.4,0,0,0,.1-.12.19.19,0,0,0,0-.13V28.54l-.49-.21v-.16a2.37,2.37,0,0,1,.5-.11L53,28h.19v.41a1.29,1.29,0,0,1,.49-.31,1.64,1.64,0,0,1,.63-.12,1.24,1.24,0,0,1,.27,0l.24.1a.8.8,0,0,1,.21.15.85.85,0,0,1,.14.19,2.13,2.13,0,0,1,.22-.18,2.75,2.75,0,0,1,.3-.14,2.13,2.13,0,0,1,.33-.11,1.86,1.86,0,0,1,.33,0,1.18,1.18,0,0,1,.43.08.87.87,0,0,1,.34.22,1.07,1.07,0,0,1,.21.38,1.5,1.5,0,0,1,.08.54v2.11l.4.12v.14A1.36,1.36,0,0,1,57.46,31.7Z"/><path class="cls-1" d="M63.14,30.59a2.34,2.34,0,0,1-.39.65,1.77,1.77,0,0,1-.58.4,1.6,1.6,0,0,1-1.31,0,1.34,1.34,0,0,1-.53-.34,1.64,1.64,0,0,1-.36-.55,1.93,1.93,0,0,1-.13-.75,2.57,2.57,0,0,1,.14-.85,2.05,2.05,0,0,1,.4-.64,1.91,1.91,0,0,1,.57-.42,1.73,1.73,0,0,1,1.34,0,1.47,1.47,0,0,1,.53.36,1.62,1.62,0,0,1,.35.55,1.88,1.88,0,0,1,.13.72A2.13,2.13,0,0,1,63.14,30.59Zm-.62-1.38a1.65,1.65,0,0,0-.22-.44A1,1,0,0,0,62,28.5a.83.83,0,0,0-.77,0,.94.94,0,0,0-.34.29,1.54,1.54,0,0,0-.24.48,2.22,2.22,0,0,0-.09.67,1.85,1.85,0,0,0,.09.6,1.3,1.3,0,0,0,.22.44.94.94,0,0,0,.33.27,1,1,0,0,0,.39.08.88.88,0,0,0,.38-.09,1,1,0,0,0,.33-.29,1.35,1.35,0,0,0,.24-.48,2.29,2.29,0,0,0,.09-.68A2.1,2.1,0,0,0,62.52,29.21Z"/><path class="cls-1" d="M66.52,26.67l0,.13-.24-.07L66,26.68a2.48,2.48,0,0,0-.27,0h-.25a.44.44,0,0,0-.22.05.55.55,0,0,0-.18.16.89.89,0,0,0-.12.26,1.32,1.32,0,0,0,0,.36v.13a1.28,1.28,0,0,0,0,.19,1.48,1.48,0,0,0,0,.21c0,.06,0,.11,0,.16h1l-.09.41h-.89v2.77l.48.12v.14a.66.66,0,0,1-.2.06.71.71,0,0,1-.2,0l-.25,0h-.58a.82.82,0,0,1-.28-.06v-.13a.35.35,0,0,0,.14-.06.49.49,0,0,0,.13-.1.29.29,0,0,0,.1-.12.19.19,0,0,0,0-.13V28.57h-.42V28.3l.42-.16v-.57a1.43,1.43,0,0,1,.1-.56,1.09,1.09,0,0,1,.29-.44,1.28,1.28,0,0,1,.45-.28,1.77,1.77,0,0,1,.63-.11,1.31,1.31,0,0,1,.58.1.3.3,0,0,1,.18.27A.53.53,0,0,1,66.52,26.67Z"/><path class="cls-1" d="M69.07,31.76a.9.9,0,0,1-.69-.25,1.25,1.25,0,0,1-.22-.81c0-.18,0-.37,0-.56s0-.39,0-.56l0-1h-.42v-.25l.82-.82.26,0,0,.69h1l0,.41h-1v1c0,.16,0,.31,0,.46v.43a2.21,2.21,0,0,0,0,.39.62.62,0,0,0,.1.26.38.38,0,0,0,.14.14.43.43,0,0,0,.19,0,.83.83,0,0,0,.32-.05,1.28,1.28,0,0,0,.25-.15l.08,0C69.87,31.53,69.59,31.76,69.07,31.76Z"/><path class="cls-1" d="M73.52,31.7a3,3,0,0,1-.45,0h-.24a.71.71,0,0,1-.25-.06v-.13a.41.41,0,0,0,.21-.18.66.66,0,0,0,.07-.32V29.57a2.12,2.12,0,0,0,0-.47.87.87,0,0,0-.16-.32.61.61,0,0,0-.24-.19,1.14,1.14,0,0,0-.33-.05l-.22,0-.21.05a.64.64,0,0,0-.19.08l-.15.09v2.56l.43.12v.14a.76.76,0,0,1-.2.06.65.65,0,0,1-.2,0l-.22,0h-.55a.83.83,0,0,1-.29-.06v-.13l.15-.06.13-.1a.27.27,0,0,0,.09-.12.28.28,0,0,0,0-.13V26.69l-.49-.2v-.17a2.34,2.34,0,0,1,.48-.11l.43,0h.25l0,.43v1.82a1.72,1.72,0,0,1,.48-.31,1.67,1.67,0,0,1,.62-.11,1.25,1.25,0,0,1,.45.08.86.86,0,0,1,.33.23.91.91,0,0,1,.22.37,1.64,1.64,0,0,1,.07.52v2.13l.4.12v.14A1.36,1.36,0,0,1,73.52,31.7Z"/><path class="cls-1" d="M77.29,29.89H75a2,2,0,0,0,.08.58,1.73,1.73,0,0,0,.25.42,1.06,1.06,0,0,0,.8.35,1.37,1.37,0,0,0,.28,0,1.53,1.53,0,0,0,.29-.07,1.48,1.48,0,0,0,.27-.1l.24-.13,0,.08a.45.45,0,0,1,0,.11.41.41,0,0,1-.09.26,1,1,0,0,1-.26.21,2.05,2.05,0,0,1-.42.15,3,3,0,0,1-.55.05,1.54,1.54,0,0,1-.61-.12,1.5,1.5,0,0,1-.5-.35,1.64,1.64,0,0,1-.34-.55,2.11,2.11,0,0,1-.13-.73,2.72,2.72,0,0,1,.14-.89,1.92,1.92,0,0,1,.37-.64,1.45,1.45,0,0,1,.5-.39A1.37,1.37,0,0,1,76,28a1.43,1.43,0,0,1,.56.1,1,1,0,0,1,.41.28,1.33,1.33,0,0,1,.26.45,1.83,1.83,0,0,1,.09.59v.23A2.35,2.35,0,0,1,77.29,29.89ZM76.63,29a1,1,0,0,0-.16-.35.71.71,0,0,0-.55-.27.59.59,0,0,0-.31.09.8.8,0,0,0-.28.24,1.68,1.68,0,0,0-.2.35,1.2,1.2,0,0,0-.07.42h1.63A1.65,1.65,0,0,0,76.63,29Z"/><path class="cls-1" d="M83.38,27.05a.44.44,0,0,0-.14.13.93.93,0,0,0-.07.2,2.36,2.36,0,0,0,0,.3v4l-.36.08-2.41-4h0v3.53l.47.12v.17a1.62,1.62,0,0,1-.34.1,2.1,2.1,0,0,1-.36,0h-.4a1.37,1.37,0,0,1-.29-.07v-.14a.76.76,0,0,0,.2-.08.6.6,0,0,0,.14-.13.43.43,0,0,0,.07-.2,1,1,0,0,0,0-.26V27.17L79.41,27v-.22l.43,0h.69l2.12,3.49h0v-3.1L82.18,27v-.16a2.34,2.34,0,0,1,.38-.09,1.58,1.58,0,0,1,.38,0h.36a.7.7,0,0,0,.14,0l.14,0V27A.53.53,0,0,0,83.38,27.05Z"/><path class="cls-1" d="M87,29.89H84.73a2,2,0,0,0,.08.58,1.73,1.73,0,0,0,.25.42,1,1,0,0,0,.36.26,1.08,1.08,0,0,0,.44.09,1.37,1.37,0,0,0,.28,0,1.53,1.53,0,0,0,.29-.07,1.25,1.25,0,0,0,.27-.1l.24-.13s0,0,0,.08a.45.45,0,0,1,0,.11.41.41,0,0,1-.09.26,1,1,0,0,1-.26.21,2,2,0,0,1-.41.15,3.24,3.24,0,0,1-.56.05,1.54,1.54,0,0,1-.61-.12,1.74,1.74,0,0,1-.5-.35,1.82,1.82,0,0,1-.34-.55,2.11,2.11,0,0,1-.13-.73,2.72,2.72,0,0,1,.14-.89,2.11,2.11,0,0,1,.37-.64,1.45,1.45,0,0,1,.5-.39,1.37,1.37,0,0,1,.59-.13,1.43,1.43,0,0,1,.56.1,1,1,0,0,1,.41.28,1.18,1.18,0,0,1,.26.45,1.83,1.83,0,0,1,.09.59v.23A2.35,2.35,0,0,1,87,29.89ZM86.32,29a1,1,0,0,0-.16-.35.71.71,0,0,0-.55-.27.59.59,0,0,0-.31.09.8.8,0,0,0-.28.24,1.68,1.68,0,0,0-.2.35,1.2,1.2,0,0,0-.07.42h1.63A1.65,1.65,0,0,0,86.32,29Z"/><path class="cls-1" d="M88.83,31.76a.89.89,0,0,1-.69-.25,1.25,1.25,0,0,1-.22-.81c0-.18,0-.37,0-.56s0-.39,0-.56l0-1h-.42v-.25l.82-.82.25,0,0,.69h1l0,.41h-1v1c0,.16,0,.31,0,.46v.43a2.21,2.21,0,0,0,0,.39.62.62,0,0,0,.1.26.38.38,0,0,0,.14.14.41.41,0,0,0,.19,0,.83.83,0,0,0,.32-.05,1.28,1.28,0,0,0,.25-.15l.08,0C89.62,31.53,89.35,31.76,88.83,31.76Z"/><path class="cls-1" d="M93.28,31.7a3.09,3.09,0,0,1-.45,0h-.24a.66.66,0,0,1-.25-.06v-.13a.41.41,0,0,0,.21-.18.66.66,0,0,0,.07-.32V29.57a1.63,1.63,0,0,0-.06-.47.73.73,0,0,0-.15-.32.61.61,0,0,0-.24-.19,1.14,1.14,0,0,0-.33-.05l-.22,0-.21.05a.64.64,0,0,0-.19.08l-.15.09v2.56l.42.12v.14a.7.7,0,0,1-.19.06.71.71,0,0,1-.2,0l-.22,0h-.55a.83.83,0,0,1-.29-.06v-.13a.47.47,0,0,0,.15-.06l.13-.1a.27.27,0,0,0,.09-.12.28.28,0,0,0,0-.13V26.69l-.5-.2v-.17a2.59,2.59,0,0,1,.49-.11l.43,0h.24l0,.43v1.82a1.47,1.47,0,0,1,.48-.31,1.67,1.67,0,0,1,.62-.11,1.29,1.29,0,0,1,.45.08.86.86,0,0,1,.33.23.91.91,0,0,1,.22.37,1.64,1.64,0,0,1,.07.52v2.13l.4.12v.14A1.36,1.36,0,0,1,93.28,31.7Z"/><path class="cls-1" d="M97.05,29.89H94.8a2,2,0,0,0,.08.58,1.46,1.46,0,0,0,.25.42,1.06,1.06,0,0,0,.8.35,1.37,1.37,0,0,0,.28,0,1.28,1.28,0,0,0,.28-.07,1.33,1.33,0,0,0,.28-.1l.24-.13L97,31a.45.45,0,0,1,0,.11.41.41,0,0,1-.09.26,1.13,1.13,0,0,1-.26.21,2.05,2.05,0,0,1-.42.15,3.12,3.12,0,0,1-.55.05,1.54,1.54,0,0,1-.61-.12,1.5,1.5,0,0,1-.5-.35,1.84,1.84,0,0,1-.35-.55,2.37,2.37,0,0,1-.12-.73,2.72,2.72,0,0,1,.14-.89,1.92,1.92,0,0,1,.37-.64,1.45,1.45,0,0,1,.5-.39,1.37,1.37,0,0,1,.59-.13,1.47,1.47,0,0,1,.56.1,1,1,0,0,1,.41.28,1.33,1.33,0,0,1,.26.45,1.83,1.83,0,0,1,.09.59v.23A2.35,2.35,0,0,1,97.05,29.89ZM96.39,29a1,1,0,0,0-.16-.35.6.6,0,0,0-.25-.2.63.63,0,0,0-.3-.07.65.65,0,0,0-.32.09.87.87,0,0,0-.27.24,1.33,1.33,0,0,0-.2.35,1.2,1.2,0,0,0-.08.42h1.64A1.65,1.65,0,0,0,96.39,29Z"/><path class="cls-1" d="M99.93,28.55a.92.92,0,0,1-.09.23.76.76,0,0,0-.23-.13.74.74,0,0,0-.25,0,1,1,0,0,0-.67.31v2.43l.53.12v.14a.66.66,0,0,1-.2.06.65.65,0,0,1-.21,0l-.24,0H98a.83.83,0,0,1-.29-.06v-.13a.47.47,0,0,0,.15-.06l.13-.1.1-.12a.28.28,0,0,0,0-.13V28.54l-.5-.21v-.16a2.37,2.37,0,0,1,.5-.11l.42,0h.18v.53h0l.21-.23a.9.9,0,0,1,.32-.25.7.7,0,0,1,.35-.09c.27,0,.4.11.4.33A1,1,0,0,1,99.93,28.55Z"/><path class="cls-1" d="M101.63,31.66a.79.79,0,0,1-.2,0l-.23,0h-.55a.94.94,0,0,1-.29-.06v-.13a.39.39,0,0,0,.15-.06l.13-.1a.4.4,0,0,0,.1-.12.28.28,0,0,0,0-.13V26.69l-.5-.2v-.17l.26-.06.25-.05.23,0h.42l0,.43v4.73l.43.12v.14Z"/><path class="cls-1" d="M105,31.6a1.66,1.66,0,0,1-.3.19l-.19-.16a1.77,1.77,0,0,1-.16-.22.74.74,0,0,1-.19.15l-.25.11a1.23,1.23,0,0,1-.29.08,1.53,1.53,0,0,1-.3,0,1.23,1.23,0,0,1-.39-.06.89.89,0,0,1-.3-.18.79.79,0,0,1-.21-.27.94.94,0,0,1-.07-.34.86.86,0,0,1,.14-.47,1.06,1.06,0,0,1,.39-.4,2,2,0,0,1,.62-.27,3.07,3.07,0,0,1,.84-.1v-.21a3.15,3.15,0,0,0,0-.5,1,1,0,0,0-.12-.31.44.44,0,0,0-.22-.15,1.21,1.21,0,0,0-.3,0,1.59,1.59,0,0,0-.61.13,1.74,1.74,0,0,0-.54.37,1.64,1.64,0,0,1,0-.23.7.7,0,0,1,.07-.33.63.63,0,0,1,.22-.24,1,1,0,0,1,.39-.15,2.42,2.42,0,0,1,.57-.05,2.06,2.06,0,0,1,.52.06,1.25,1.25,0,0,1,.38.21.85.85,0,0,1,.25.32,1.14,1.14,0,0,1,.08.43,1,1,0,0,1,0,.16v.21c0,.06,0,.14,0,.21s0,.14,0,.19l0,1.24a.82.82,0,0,0,.12.2,1.62,1.62,0,0,0,.18.19A1.09,1.09,0,0,1,105,31.6Zm-.66-1.55a2.37,2.37,0,0,0-.57.06,1.68,1.68,0,0,0-.42.16.89.89,0,0,0-.26.25.64.64,0,0,0-.08.3.46.46,0,0,0,.15.36.61.61,0,0,0,.45.14h.18l.2,0,.19-.07a.48.48,0,0,0,.16-.08Z"/><path class="cls-1" d="M108.59,31.73h-.25a.65.65,0,0,1-.24-.06v-.13a.3.3,0,0,0,.2-.18.56.56,0,0,0,.07-.32V29.57a2.12,2.12,0,0,0-.05-.47.74.74,0,0,0-.16-.32.61.61,0,0,0-.24-.19,1.06,1.06,0,0,0-.31-.05,1.27,1.27,0,0,0-.44.07,1.14,1.14,0,0,0-.35.17v2.56l.43.12v.14l-.19.06a.78.78,0,0,1-.21,0l-.23,0h-.55a.94.94,0,0,1-.28-.06v-.13a.47.47,0,0,0,.15-.06l.13-.1a.63.63,0,0,0,.1-.12.28.28,0,0,0,0-.13V28.54l-.5-.21v-.16a2.52,2.52,0,0,1,.5-.11l.42,0h.18v.41a1.33,1.33,0,0,1,.5-.31,1.64,1.64,0,0,1,.63-.12,1.23,1.23,0,0,1,.44.08.86.86,0,0,1,.33.23,1,1,0,0,1,.22.37,1.62,1.62,0,0,1,.08.52v2.13l.4.12v.14A2.12,2.12,0,0,1,108.59,31.73Z"/><path class="cls-1" d="M113,31.62l-.29.17a1.14,1.14,0,0,1-.22-.22,2.29,2.29,0,0,1-.15-.24,1.2,1.2,0,0,1-.21.17,1.52,1.52,0,0,1-.52.23.74.74,0,0,1-.25,0,1.24,1.24,0,0,1-.54-.11,1.41,1.41,0,0,1-.44-.33,1.44,1.44,0,0,1-.3-.53,2.06,2.06,0,0,1-.11-.68,2.52,2.52,0,0,1,.15-.91,2.08,2.08,0,0,1,.39-.67,1.58,1.58,0,0,1,.58-.41,1.91,1.91,0,0,1,.71-.14l.28,0,.24,0V26.69l-.52-.2v-.17a2.69,2.69,0,0,1,.52-.11l.43,0H113l0,.43V31a1.63,1.63,0,0,0,.11.23.76.76,0,0,0,.18.22Zm-.67-3.12a1.64,1.64,0,0,0-.25-.07l-.31,0a1,1,0,0,0-.81.39,1.49,1.49,0,0,0-.24.49,2.84,2.84,0,0,0-.08.69,1.84,1.84,0,0,0,.07.55,1.43,1.43,0,0,0,.21.41.67.67,0,0,0,.29.24.69.69,0,0,0,.34.09l.22,0,.22-.05.19-.08a.56.56,0,0,0,.15-.1Z"/><path class="cls-1" d="M116,31.08a1.24,1.24,0,0,1-.29.36,1.39,1.39,0,0,1-.45.25,1.76,1.76,0,0,1-.58.09,1.27,1.27,0,0,1-.73-.16.52.52,0,0,1-.24-.47,1.28,1.28,0,0,1,0-.17.78.78,0,0,1,0-.14,2,2,0,0,0,.51.36,1.35,1.35,0,0,0,.57.12.73.73,0,0,0,.49-.14.44.44,0,0,0,.16-.33.41.41,0,0,0,0-.19,1,1,0,0,0-.1-.16,1.27,1.27,0,0,0-.21-.15,2.27,2.27,0,0,0-.31-.15l-.38-.16a1.18,1.18,0,0,1-.51-.38.94.94,0,0,1-.18-.57,1,1,0,0,1,.09-.43,1.21,1.21,0,0,1,.7-.6,1.53,1.53,0,0,1,.54-.09,1.51,1.51,0,0,1,.39,0,.66.66,0,0,1,.27.09.51.51,0,0,1,.15.14.45.45,0,0,1,0,.2v.16a.9.9,0,0,0,0,.16,1.81,1.81,0,0,0-.42-.2,1.29,1.29,0,0,0-.46-.09,1.55,1.55,0,0,0-.32,0,.64.64,0,0,0-.22.1.45.45,0,0,0-.13.15.41.41,0,0,0,0,.19,1.1,1.1,0,0,0,0,.18.31.31,0,0,0,.1.15.86.86,0,0,0,.18.14,2.73,2.73,0,0,0,.29.13l.42.16a1.64,1.64,0,0,1,.35.18.9.9,0,0,1,.23.2.91.91,0,0,1,.13.26,1,1,0,0,1,0,.31A.9.9,0,0,1,116,31.08Z"/></g></g></svg>