<?xml version="1.0" encoding="utf-8"?>
<!-- Generator: Adobe Illustrator 22.1.0, SVG Export Plug-In . SVG Version: 6.00 Build 0)  -->
<svg version="1.1" id="Layer_1" xmlns="http://www.w3.org/2000/svg" xmlns:xlink="http://www.w3.org/1999/xlink" x="0px" y="0px"
	 viewBox="0 0 800 800" style="enable-background:new 0 0 800 800;" xml:space="preserve">
<style type="text/css">
	.st0{clip-path:url(#SVGID_2_);fill:#351544;}
	.st1{clip-path:url(#SVGID_2_);}
	.st2{fill:#FFFFFF;}
</style>
<g>
	<defs>
		<rect id="SVGID_1_" width="800" height="800"/>
	</defs>
	<clipPath id="SVGID_2_">
		<use xlink:href="#SVGID_1_"  style="overflow:visible;"/>
	</clipPath>
	<rect class="st0" width="800" height="800"/>
	<g class="st1">
		<g>
			<g>
				<path class="st2" d="M583.2,658.7c-9.7-15.8-21.4-30.4-31.9-45.8c-2.5-3.7-5.3-4.2-9.1-3.3l0.3-0.2c0,0,0,0,0,0l0,0c0,0,0,0,0,0
					c0,0,0,0-0.1,0c0,0,0,0,0,0c-4.5,3.3-9.2,6.3-13.5,9.9c-3.8,3.2-7.1,7-11,10.9c-1.2,0.3-3.9,0.3-6.1,1.3
					c-6.9,3.4-14.1,6.6-20.4,11c-5.8,4.1-12.3,8.7-15.2,14.6c-4.1,8.4-5.8,18.1-7.6,27.5c-2,9.9,2.1,14.7,12.2,16.1
					c6.9,1,13.7,1.8,20.6,2.9c13.6,2.3,18.4-1.8,17.9-15.6c0-1-0.2-1.9-0.3-2.2c4.3-5.1,7.3-9.4,11.1-12.7c6.6-5.9,7-10.4,0.8-21
					c-1.7-2.9-2.7-6.1-4.1-9.2c10,3.3,4.3,19.8,19,18.8c-0.7,2.1-1,4.6-1.8,4.8c-10.1,2.7-13.5,12.3-18.9,19.3
					c-3.7,4.7-5.1,12.5-4.6,18.7c0.5,5.7,18.5,14,24.2,11.7c15.6-6.4,31-13.3,46.2-20.6c2-1,4-5.9,3.3-8.1
					C591.1,677.5,588.5,667.2,583.2,658.7z M497.4,672.5c8.8-3.5,6.1-11.3,6.6-18.8c0.9,2.3,3.1,5.1,2.4,6.7
					c-3.8,8.5,0.9,13.5,6.4,18.5c0.5,0.4,0.7,1.2,1.8,3.2C508,678.5,502.8,675.5,497.4,672.5z M561.9,684.9
					c-3.4-3.5-6.6-6.9-9.9-10.3c0.3-0.3,0.6-0.6,0.9-0.9c4.7,2.1,9.3,4.2,15.7,7.1C566.3,682.2,564.4,683.4,561.9,684.9z"/>
				<path class="st2" d="M781,694.8c-0.5-4.5-2.1-8.9-1.9-13.3c0.6-14.9-1.9-29-8.9-42.2c-2.3-4.3-5.4-5.9-9.9-5
					c-9.9,1.8-19.8,3.4-29.6,5.5c-8.4,1.9-9.1,3.6-5.6,11.4c2.9,6.2,5.2,12.2,5,19.5c-0.2,6.6,3.2,12.9,11.6,14.4
					c-6.9,5.9-2.8,12.6-2.2,18.9c0.6,6.6,1.6,13.2,2.4,19.8c-3.5-4.6-8.2-9.9-7.8-14.7c1-10.1,2.6-19.6-5.1-27.9
					c-0.6-0.7-0.2-2.3-0.5-3.4c-2.5-9.9-4.8-19.8-7.7-29.5c-1.9-6.5-7.8-6-12.6-4.9c-6.6,1.5-15.9,0.1-18.1,8.6
					c-2.9,10.8-4,22-5.3,33.2c-0.4,3.4,0.2,7.5,1.9,10.3c4.9,7.8,5.2,16.3,5.5,24.1c-3.3-1.3-6.7-2.6-9.3-3.5c1-1.8,3.3-4.2,3.7-6.9
					c1-8.5-6.2-17.4-14.9-17.9c-9.1-0.5-18.3,0.3-27.4,0.3c-1.3,0-2.6-1.1-3.9-1.8c0.9-0.8,1.8-2.5,2.6-2.4
					c9.5,0.4,19.1,0.3,28.4,2.1c6.8,1.3,9.4-0.3,10.3-6.6c1.2-8,2.2-16.1,3.9-24.1c1.4-6.4-0.7-9.9-7-11.7
					c-11.2-3.2-22.4-6.3-33.4-10.2c-8.2-2.9-15.4-2.6-23.3,1.3c-7.1,3.6-15,5.7-22.5,8.4c-0.5,0.7-0.9,1.7-1.6,2
					c-7.9,2.8-7.4,8-4.6,14.3c3.2,7.2,5.5,14.9,9,21.9c3.6,7.1,8.3,13.7,12.6,20.5c1.6,2.5,3.6,4.8,5.4,7.2
					c12.4,16.6,24.6,33.3,37.1,49.8c3.2,4.2,7.9,5.4,12.9,3.1c9.3-4.2,18.5-8.6,27.9-12.9c1.4-0.6,3-0.9,4.6-1.1
					c7.7-1.1,15.7-1.2,23.1-3.4c8-2.4,15.4-9.5,23.2-9.6c10.7-0.2,17.8-6.4,26.4-10c4.5-1.9,8.4-5,7.8-10.8
					C782.7,710,781.9,702.4,781,694.8z"/>
				<path class="st2" d="M645.7,632.7c5.3,1.3,10.2,4.2,15.5,5.6c13.8,3.7,27.6,7.9,42,2c4.1-1.7,5.7-3.7,4.6-8.1
					c-2.8-11.6-3.8-24.2-18.3-29.1c6.7,1.3,11-0.8,13-6.8c0.1,3-0.3,6,0.4,8.9c2.1,8.3,5.3,16.3,6.9,24.6c1.4,7.3,3.4,9.9,10.7,8.6
					c13.1-2.4,26.1-5,39.1-7.8c8.7-1.9,10.2-6,5.3-13.2c-1.5-2.2-3.1-4.2-4.8-6.3c-8.7-11-19.2-20.8-23.4-34.9
					c-2.5-8.4-23.4-16.4-30.3-12.2c-14.7-7.4-28.3-14.2-42.7-21.4c-7.2,10.7-18.5,18.9-18.1,33.7c0.1,4.7,1.9,10.7-0.3,13.8
					c-6.8,9.8-6.3,20.8-7.3,31.6C637.5,627.4,639.5,631.2,645.7,632.7z M703.8,572.8c0.6,5.5,1.3,11.1,2,16.6c-0.9,0-1.9,0-2.8,0.1
					c-0.3-5.5-0.7-11-1-16.6C702.6,572.9,703.2,572.9,703.8,572.8z M685.6,601.1c-9.3,2.5-15.7,2-19.9-1.6
					C682.9,598.8,682.9,598.8,685.6,601.1z"/>
			</g>
			<g>
				<path class="st2" d="M801.8,728.5c-1-0.1-2.1-0.2-3.1-0.4c-13.6-2.7-21.9,4.5-30.8,11.4c-2,1.6-3.5,6-2.9,8.6
					c2.4,9.6,5.2,19.2,8.8,28.4c2.8,7.3,7.9,21.6,7.9,21.6l-3.7,0c0,0-1.9-5.1-2.7-7.2c-2.8-6.8-6.5-13.3-8.6-20.2
					c-2.1-7-2.7-14.5-4.1-21.8c-0.8-4.3-3.4-6.3-7.7-5.2c-5.7,1.6-11.4,3.1-17,5.1c-6.3,2.3-12.4,7.2-18.6,7.1
					c-17.9-0.5-32.7,8.2-48.5,13.9c-3.8,1.3-5,3.7-4,7.8c1.6,7.1,6.5,20.9,6.5,20.9l-9.9,0c0,0-3.5-17.5-7.9-24.1
					c-16.6-25-35.2-48.6-52.6-73.1c-3.9-5.5-6.5-5.9-11.8-2c-6.5,4.8-13.3,9.9-20.8,12.1c-14,4.2-28.2,6.9-30.5,25
					c-0.2,1.6-1.7,3-1.8,4.6c-0.5,6.7-0.6,13.4-0.9,20.2c-1.5,0.1-3.4-0.2-4.4,0.6c-5.6,4.5-9.3,12-10.5,19.8
					c-3.5-1.7-6.9-3.4-10.3-5.2c5.1,1.8,7.7-0.1,10.9-7.2c5.5-12.4,10-25.2,14.4-38.1c0.9-2.6,0.9-7.5-0.6-8.6
					c-7-4.9-14.2-10.1-22.2-12.7c-9.2-3-19.2-3.4-28.9-4.5c-3-0.3-6.1,0.7-10,1.3c-4.6-5.2-11.9-6.3-19.8-5.3
					c-14.7,1.8-29.3,4.2-44.1,5.4c-0.5,0-1,0.1-1.5,0.2c-1.5-1.3-2.9-2.5-4.4-3.8c1.1,0.6,2.3,1,3.2,0.9c8.5-0.6,17-2.3,25.5-3.6
					c3.8-0.6,7.5-1.4,11.3-2c5.9-1,12.3-1,17.3-3.6c2.1-1,1.2-7.8,1.8-11.9c0.1-0.9,0.8-1.7,1-2.6c1.9-6.4,4.3-12.8,5.2-19.3
					c0.4-2.8-1.5-6.6-3.5-8.9c-8.7-9.9-23-4.7-33-11.4c-0.2-0.1-0.4-0.2,0.7,0.2c0.1-4.9,0.2-9.3,0.3-13.7c0.6,0.6,1.4,1.1,1.7,1.8
					c5.7,11.8,10.1,14.2,23.5,13.1c1.6-0.1,3.8,1.2,5,2.4c6.6,6.9,8.5,7.1,16.2,1.1c1.9-1.5,3.7-3,5.6-4.5
					c9.9-7.4,10.4-8.2,5.4-19.4c-1.4-3.1-5.4-5.1-8.2-7.6c-1.1-0.9-2.3-1.7-3.4-2.5c6.3-0.1,10.8-1,10.7-8.4c0-0.9,2.7-1.8,4.7-3
					c-3.6,9.6-3,18.2,0.9,26.4c0.9,1.9,4.7,4.2,6.2,3.7c5.4-1.8,10.5-4.5,15.4-7.2c7.9-4.4,15.7-9.1,23.5-13.6c4.5-3.9,2.2-8.2,0-12
					c-7.5-12.8-15.4-25.3-22.8-38.1c-3.2-5.4-6.6-5.9-11.7-2.9c-5.5,3.2-11,7.5-17,8.7c-13,2.7-23.4,9.3-32.5,18.2
					c-1.7,1.7-2.3,5.5-1.9,8.1c1.3,7.6,6.9,11.1,14.5,12.6c-1.9,0.8-3.2,0.8-4.5,0.6c-6.7-1.4-8.8,0.2-7.8,7.1
					c0.7,5.2,2.6,10.1,3.6,15.3c0.6,2.9,0.5,5.8,0.7,8.8c-0.6,0.1-1.3,0.1-2,0.2c-2.2-8.1-4.3-16.2-6.6-24.8
					c0.6-1.2,1.8-3.1,2.4-5.1c2.2-7.4-5-18.6-11.1-17.2c-5.6,1.2-11.2,2.8-16.6,4.7c-5.6,1.9-14.7,1.8-21.1-1.4
					c12.5-2.5,25.6,0.8,36.6-8.4c-4.6-6.3-9-12.3-13.4-18.3c0.4-0.4,0.8-0.9,1.2-1.4c1.8,1.4,4,2.5,5.3,4.3c2.1,2.6,3.6,5.6,5.2,8.5
					c3.7,6.6,6.9,7.5,13.1,3.2c2.9-2,5.4-4.8,8.4-6.6c5.8-3.6,7.2-8.4,3.8-13.9c-5-8-3.9-19.7-14.5-24.4c4.1,1.4,8.2,2.7,11.9,4
					c2.6,8.9,5.2,18,8.2,28.3c12.5-5,23.3-9.3,34.1-13.7c4.8-1.9,6.3-5.5,4.7-10.4c-2.5-7.7-4.8-15.5-7.5-23.1
					c-4-11-10.1-21.5-12.2-32.9c-2.1-11.5-4.9-22.9-7.3-34.4c2.6,0.9,5.2,1.7,7.8,2.5c5,16.8,9,33.8,14.1,50.6
					c1.4,4.6,5.5,8.5,8.5,12.8c0.1,2.9-0.3,6.5,0.4,10c4.6,23.9,18.7,43.1,31.6,62.8c1.5,2.3,4.7,4,5.4,6.4
					c4.8,17.1,16.7,29.9,26.6,43.7c6,8.4,10.3,8.8,19.6,4.7c0,0-0.2,0.2-0.2,0.2c0,0,0.1,0,0.1,0c0,0,0,0,0-0.1
					c6.4-3.8,12.4-8.6,19.3-11.2c14.1-5.3,20.8-19.7,15-32.3c2-3.1,4.5-5.4,5-8c1.4-8.2,2.3-16.5,3-24.8c0.5-5.7-3-8.6-8.2-10.1
					c-6.4-1.8-13-3.4-18.9-6.3c-5.7-2.8-9.5-1.5-13.3,2.7c-2.7,3-5,6.4-8.3,8.6c-5.2,3.6-10.9,6.3-15.8,9.1c-1.7-1.9-4.4-4-6-6.8
					c-1.6-2.9-2.2-6.4-3.2-9.6c8.1,12.5,14.5,13.2,25.1,2.8c0.8-0.8,1.6-1.8,2.5-2.6c7.9-7.4,8.2-7.6,1.5-16
					c-3.6-4.6-8.9-7.9-12.1-12.7c-4-6-6.3-13.1-9.9-19.4c-4.7-8.5-6.7-9-15.6-5.5c-9.2,3.6-18.4,7.2-27.6,10.7
					c-1.2,0.5-2.6,0.6-3.8,0.9c8.6-5.4,17.7-9.4,26.8-13.3c3.3-1.4,6.9-2.3,9.9-4c6.1-3.5,8.8-13.7,2.2-16.1
					c-4.4-1.6-7.7-4.7-10.5-8.1c2.8,0.8,5.6,1.6,8.4,2.4c1.8,1.7,4.1,3.1,6.1,4.6c1,0.7,3.7,0.9,4.2,0.2c0.4-0.5,0.8-1,1.2-1.5
					c1.4,0.4,2.8,0.8,4.2,1.2l0,0c-1,1.3-2.2,2.6-3.2,3.8c-5.2,6.2-6,13.3-2,20c4.9,8.2,10.6,15.9,16.3,23.7
					c5.6,7.6,8.4,18.7,21.2,17.6c5.5,9.3,16,8.3,24.4,11.6c2.7,1.1,7.5,0.5,9.7-1.4c12.1-10,15.3-24.7,18.8-39
					c0.3-1.4-0.2-3.8-1.2-4.6c-5.6-4.2-25.1-5.4-17.3-12.1c-0.2-0.3-0.4-0.6-0.5-0.9c2.4,0.7,4.7,1.4,7.1,2.1
					c3.2,1.8,6.5,3.4,9.3,5.7c4.7,3.8,4.6,3.6,7.8-0.4c1.6,0.5,3.1,1,4.6,1.5c-5,7.7-8,16.3-9,25.6c-0.2,2.2,1.2,5.4,3,6.8
					c4.1,3.2,8.6,6.3,13.4,8c11.6,4.2,23.4,7.9,35.3,11.1c3,0.8,9.6-0.4,9.8-1.6c2.1-9.8,3.2-19.8,4.4-29.8c1.6,0.6,3.1,1.3,4.7,1.9
					c-2,9-3.8,18.1-5,27.3c-0.4,2.5,1.5,6.5,3.5,7.8c2,1.2,5.6-0.1,8.4-0.7c1.7-0.4,3.2-1.8,4.8-2.7c0.2,0.3,0.5,0.7,0.7,1
					c-1.1,0.9-2.1,2-3.4,2.6c-7.3,3.2-7.8,8.2-3.7,14.2c8.3,12.1,16.7,24.1,25.4,35.9c0.8,1,4.4,1.6,5.3,0.8
					c9.4-8.5,18.8-17.3,22.4-30c2-7.2,3.9-14.5,5.9-21.8v-4.9c-7.8-4.6-15.7-9.1-23.8-13.2c-4.8-2.5-9.6-4.8-14.4-7.1
					c0-0.1,0-0.1,0-0.2c-0.8-0.4-1.5-0.7-2.3-1.1c0,0.1,0,0.1,0,0.2c-38.7-18-79.4-31.2-120.1-43.4c-6-1.8-12.1-3.6-18.1-5.3
					c-0.1-0.1-0.2-0.1-0.3-0.2c-11.4-3.3-23-6.5-34.5-9.8c-1.9-0.5-3.8-1.1-5.8-1.6l0,0c-1.3-0.4-2.5-0.7-3.8-1.1c0,0,0,0,0,0
					c-2-0.6-4-1.1-6-1.7c-24-6.8-48-13.8-71.8-21.3c-46.4-14.6-92.3-31.5-135.6-53.8c-43.3-22.2-83.8-49.9-119.1-83.5
					c-35.5-33.4-65.1-72.7-89.3-114.8c-10.4-18.1-19.8-36.7-28.3-55.7c-2.8-6.4-6.2-14.5-9.5-22.3c-2.3-5.6-4.5-11.1-6.6-16.7
					c7.8,14.4,30.1,52.7,64.6,90.1c93,100.5,225.6,138.2,313.8,159.7C637,393,728,417.9,801.8,480.9v-11
					c-72.2-58.7-160.4-84.1-310.5-121.5c-86.7-21.6-217.4-57.1-311-158.5C119.2,123.7,94,51.4,94,51.4
					c19.1,107.4,49.2,230.6,89.9,332.4c20.2,50.9,44.1,100.4,71.7,147.9c14,23.6,29,46.6,45,68.9c16.1,22.3,33.7,43.5,52.3,63.6
					c37.3,40.3,80,75.9,127.5,103.7c19.2,11.2,39.1,21.2,59.7,29.7c4.8,2,261.7,0.3,261.7,0.3V728.5z M599.8,646.4L599.8,646.4
					C599.8,646.4,599.8,646.4,599.8,646.4C599.8,646.4,599.8,646.4,599.8,646.4z M761.2,541.3C761.2,541.3,761.2,541.3,761.2,541.3
					c0,0.5,0,0.9,0,1.4C761.2,542.3,761.2,541.8,761.2,541.3z M638.9,497.6c-1.2,0.3-2.5,0.4-4.1-0.4c-1.1-0.5-2.1-1.1-3.1-1.7
					C634.1,496.2,636.5,496.9,638.9,497.6z M265.2,341.3c-1.1-2.5-2.4-5.1-3.8-7.4c7,6.1,14.2,12,21.5,17.6c-1.6-0.9-3.5-2-5.7-3.2
					c-5.1-2.8-6.5-2.1-9.6,3.5c-1.1,2-4.1,4.8-5.9,6.5l-1.5-2.5c-0.3-0.3-0.6-0.6-0.9-0.9c1.8-2.3,4.1-4.5,5.4-7.1
					C265.6,345.9,266,343.1,265.2,341.3z M254.1,360.8c0.5,5.2,0.8,8.2,1.1,10.8c-3.3,2.3-6.2,4.4-9.1,6.4
					C248.5,372.8,250.9,367.7,254.1,360.8z M131.9,186.1c-1-3.6-2-7.3-2.9-10.9c0.5-0.3,1.3-0.8,2.7-2.7c2.7-3.6,2.6-6.3,1.3-13.8
					c2.1,4.6,4.3,9.2,6.5,13.7C136.3,177.9,135.3,181.1,131.9,186.1z M154.9,202.1c0.2,0.4,0.4,0.8,0.6,1.1c1.3,2.2,2.6,4.5,3.9,6.7
					c-0.1,0.2-0.3,0.5-0.4,0.7c-2.6,4.7-5.7,8.5-8.8,12.9c-0.7-0.6-3-2.9-3.7-3.5C149,215.1,152.5,207,154.9,202.1z M163.5,294.8
					c0.5-2.7,1.1-5.4,1.9-8c2-7,0.3-12.1-4.9-17.3c-3.3-3.3-6-7.3-8.5-11.5c-1.8-6-3.6-12-5.3-18.1c1.6,2.7,3.3,5.3,5,7.9
					c4.7,7.1,9.5,14.1,14.8,20.7c0.9,1.1,5.6,1,6.4-0.1c4.3-5.9,9-11.8,12.8-18c1.5,2,3,4.1,4.4,6.1c-0.9,1.1-5.8,7.2-8.3,10.5
					c-9.1,11.6-12.2,25.4-14.5,39.3C166,302.5,164.7,298.7,163.5,294.8z M193.9,375.8c-0.1-0.7-0.1-1.4-0.2-2.1
					c6.2,0.6,12.5,1.2,18.7,1.8C209.9,378.9,205.7,379,193.9,375.8z M253.5,507c-1.5-2.7-3-5.5-4.5-8.3c-0.4-2.3-0.7-4.6-0.7-7
					C249.1,497.7,257.6,486.8,253.5,507z M274.7,533.8c-0.5,2.7-0.7,5.5-0.7,8.3c-1-1.7-2.1-3.3-3.1-5c0-6.4,0-12.8,3.6-19.3
					c4.9-8.8,5.4-20.1,7.5-30.4c0.3-1.6-0.1-4.2-1.2-5.1c-6.2-5.1-22.9-5.6-29.6-1.6c-1.9-1.6-3.7-3.1-5.5-4.5
					c-3.5-2.6-6.8-3.4-10-3.1c-0.7-1.4-1.4-2.8-2.1-4.2c3.3-2.8,2.6-6,0.9-15c-1-5.4-3.8-8.5-9-9.8c-1.5-0.4-2.9-0.8-4.4-1.2
					c-0.4-0.9-0.8-1.8-1.2-2.7c3.3,0.7,6.7,1.2,9.8,2.4c5.3,2.1,8.9,0.3,9.4-5.4c0.6-6,1.1-12,1.7-18.5c0.7,1.3,1.8,2.4,1.8,3.6
					c0.4,5,0.5,10.1,0.6,15.2c0,0.8-1,1.6-1.7,2.2c-6.1,5.8-5.2,13-3.6,20c3.2,14.2,11.6,16.7,23.1,13.9c1.9-0.4,4.1,0.6,6.2,1.2
					c5.9,1.9,12,6.1,18,1.2c7.2-5.8,9.1-18.5,4.7-26.9c-2.4-4.7-6.1-9-7.1-13.9c-3.8-17.2-16.6-23.6-31.6-26.9
					c-6.9-1.5-14.7-2.8-21.2-0.9c-7.2,2.1-14.1,5.4-20.8,9c-0.4-1-0.9-2-1.3-3c5.8-2.9,11.6-5.7,17.5-8.3c10.7-4.7,11.6-6,6.6-16.4
					c-3-6.2-5.5-13.2-13-16.3c0,0,0.3-0.7,0.5-1.3c2.4-7-10.4-33.9-17.2-36.5c-9.7-3.7-19.4-7.7-29.2-11.2c-0.4-1.2-0.8-2.4-1.2-3.6
					c10,2.4,19.8,4.8,28.9,9.8c1,0.6,2.6,1.3,3.4,0.8c4.6-2.4,9.6-4.6,13.5-7.9c3.7-3.1,1.4-6.9-0.8-10.3c-1-1.6-1.4-3.4-2.2-5.2
					c2.1,0.6,2.9,1.7,3.6,2.8c4.7,7.9,5.3,7.7,13.5,4c1.7-0.8,4-2.6,4.9-3.3c1.4,1.4,2.9,2.8,4.3,4.2c-1.6,2.6-9.1,5.7-14.4,8.2
					c-14,7.1-17.3,11.8-10.4,25.8c2.8,5.7,6.4,11,9.2,16.6c2.9,5.7,5.2,11.6,7.8,17.4c1.3,2.9,2.2,6,3.9,8.5c2.6,3.8,5,8.6,8.7,10.4
					c7.2,3.4,15.3,5,22.9,7.4c3.9,1.2,5.8-0.4,6.9-3.9c3.8-11.5,8.4-22.8,11.5-34.5c2.3-8.8,3.1-12.5,0.8-15.5
					c2.2,1.6,4.3,3.2,6.5,4.8c0,0,0,0.1,0,0.1c-1.8,6.2-2.6,12.6-3.9,18.9c-0.3,1.6-0.3,3.3-0.9,4.7c-3.2,7.9-6.6,15.7-9.6,23.7
					c-0.8,2.1-1.1,5-0.2,6.9c5.1,11.3,10.4,22.5,16,33.5c0.9,1.7,3.9,3.8,5.4,3.5c13.2-3.2,26.3-6.8,37.2-15.2
					c1.1-0.8,1.9-3.7,1.3-4.8c-4-7.2-8.4-14.2-12.7-21.3c-0.7-1.2-2.1-2-2.6-3.2c-2.6-5.5-5-11.2-7.4-16.6c1.3-0.2,3.3-0.5,3.9-0.5
					c3.3,6.8,6.1,12.7,9.1,18.4c1.7,3.2,4.5,5.8,5.8,9.1c6.8,17.5,8.6,18.1,24,7.3c4.5-3.1,4.4-6.4,4.1-12.2c-0.2-3.1,0-6.3,0.2-9.4
					c1.6,0.8,3.3,1.6,4.9,2.4c0,0,0,0.1,0,0.1c-0.2,2.8-0.1,6,1.1,8.4c1,1.9,4.3,4,5.7,4.1c6.3,0.8,11.4-1.6,15.3-2
					c1.8,0.8,3.6,1.7,5.4,2.5c0.3,0.5,0.6,1.1,0.9,1.8c-0.9-2.4-4.9,1.6-7,1.6c-14.6,0.1-24,1.8-34.4,9.4c-5,3.6-8.4,6.4-4.9,12.5
					c0,0-0.1-0.1-0.1-0.1c0,0.1,0.1,0.2,0.1,0.2c-4-3.9-8.3-8-13.7-2.3c-4.7,5-11,5.4-16.9,7.4c-9.2,3.1-21.8,2.4-22.9,16.9
					c-0.1,0.7-1.5,1.2-2,1.9c-10.6,15.6-15,33-15.3,48.8C278.1,524.2,275.7,528.9,274.7,533.8z M254,438.6c2.4-0.5,4.9-1.4,7.3-1.4
					c3.7,0,7.3,0.6,11,0.9c0.1,0.6,0.1,1.2,0.1,1.9c-2.9-0.1-5.8-0.3-8.7-0.2c-3,0.2-6,0.7-8.9,1C254.5,440,254.2,439.3,254,438.6z
					 M390.7,689.5c0.3-6.1,0.7-12.1,0.8-18.2c0.3-19.5,0.1-39.1,0.7-58.7c0.4-14.2-1.7-27.6-7.2-40.6c-1.9-4.5-4.5-6.7-9.7-6.4
					c-11.6,0.7-23.3,0.7-35,1.4c-10.2,0.7-12.7,3.8-12.8,14c-0.1,8.3-0.7,16.5-0.5,24.7c0.1,3.6,1.3,7.2,2.1,10.9
					c3.4-1.1,6.9-2.2,10.3-3.4c1.3-0.5,2.6-1.3,3.8-2c10.1-6.2,11.3-9.3,8.7-20.5c1.6,0.8,2.9,2.2,3,3.6c0.5,6.7,2.6,8.6,9.1,7.3
					c2.3-0.4,4.4-1.6,7-2.6c-2.3,3.4-4.2,6.1-6.2,9.2c-5.8-4.9-10.9-2.9-16.3,1.8c-4,3.5-9.4,5.4-13.7,8.7c-1.5,1.2-3.2,2.7-4.4,4.4
					c-2.9-3.6-5.7-7.3-8.5-10.9c0.9-1,1.4-2.5,1.6-4.8c0.7-10.9,1.3-21.8,1.8-32.8c0.2-5.1-3.5-5.7-7.2-5.8
					c-7.4-0.2-15,0.8-22.1-0.6c-1.9-0.4-3.8-0.6-5.7-0.8c-1.3-1.9-2.6-3.9-3.9-5.8c13.4,0.9,26.8,1.4,40.2,1.5
					c6.6,0,11.1-3.4,11.4-11c0.2-5.2,2-10.3,1.8-15.4c-0.3-6-0.7-12.7-3.4-17.8c-3.9-7.1-9.6-13.2-11.7-21.4
					c-0.5-2.1-2.9-3.7-4.4-5.6c-4.5-5.7-9.1-11.4-13.6-17c0.5-0.4,1.1-0.8,1.6-1.2c5.9,6.2,11.7,12.3,17.2,18.1
					c3.4,6.1,7.1,11.9,10,18.1c4.6,9.5,4.4,9.6,14.2,5.7c0.8-0.3,1.8-0.4,2.7-0.6c0,0,0,0.1-0.1,0.1c-8.4,4.3-10.8,11.4-10.4,20.5
					c0.2,5.1-0.5,10.5-1.9,15.4c-2.5,8.3-1.6,10.2,7.5,10c9.3-0.1,18.6-0.7,27.9-0.9c7.5-0.2,12.9-3.2,15-10.7
					c6.4-22.9,12.6-45.9,19-68.8c4.8-17.2,6.2-35,9.3-52.5c2.1,0.8,4.1,1.6,6.2,2.5c-1.9,10.7-3.5,21.4-5.7,32
					c-3.1,14.9-3.9,30.4-7.7,45.1c-4.4,17.5-11,34.5-16.2,51.9c-1.2,4.1-1.2,8.8-0.6,13.2c1.2,9.7,6.5,18.4,5.4,29
					c-1.4,13.7-0.4,27.6-0.5,41.5c-0.1,14.1-0.6,28.2-0.4,42.3c0,4.7,1.1,9.6,2.9,13.9c0.1,0.3,0.3,0.5,0.4,0.8
					C398.3,696.7,394.5,693.1,390.7,689.5z M446.7,736.3L446.7,736.3C446.7,736.3,446.7,736.3,446.7,736.3
					C446.7,736.3,446.7,736.3,446.7,736.3z M470.2,752.5c-0.4-1.2-0.8-2.4-1.2-3.5C469.4,750.1,469.8,751.3,470.2,752.5L470.2,752.5
					z M595.4,810C595.4,810,595.3,810,595.4,810L595.4,810L595.4,810z"/>
			</g>
		</g>
		<path class="st2" d="M801.8,595.2c-2.6,0.3-4.9,1.5-6.8,4c-6,7.7-12.1,15.4-17.9,23.3c-4.1,5.5-4.3,11.6-0.6,17.5
			c4,6.2,5.1,12.6,5.5,20c1,17.5,4.3,34.9,6.1,52.4c0.8,7.8,5.6,9.4,12.1,10.5c0.5,0.1,1.1,0.1,1.6,0.2V595.2z"/>
	</g>
</g>
</svg>
