<svg xmlns="http://www.w3.org/2000/svg" viewBox="0 0 291 291"><defs><style>.cls-1{fill:#351544;}</style></defs><title>Asset 1</title><g id="Layer_2" data-name="Layer 2"><g id="Layer_1-2" data-name="Layer 1"><path class="cls-1" d="M67.3,195.8c3.2,2.5,5.7,3,7.5,1.2a3.4,3.4,0,0,0,.5-3.5,11.33,11.33,0,0,0-2.7-4,7.08,7.08,0,0,0-4-2.5,3.45,3.45,0,0,0-3,.7,4,4,0,0,0-1,3.7A6.74,6.74,0,0,0,67.3,195.8Z"/><path class="cls-1" d="M40.6,130.5a4.72,4.72,0,0,0-2,1,2.33,2.33,0,0,0-1,2,2.44,2.44,0,0,0,2.7,2.7,7.45,7.45,0,0,0,2-1,2.33,2.33,0,0,0,1-2,2.72,2.72,0,0,0-.7-2A3.22,3.22,0,0,0,40.6,130.5Z"/><path class="cls-1" d="M116.1,45.3l2-2a19.68,19.68,0,0,1,2.5-2.5,3.89,3.89,0,0,0-.2-1.5,4.2,4.2,0,0,0-.7-1.2,3.23,3.23,0,0,0-2.2-.7,3.7,3.7,0,0,0-2.5,1.2,4,4,0,0,0-1.2,2.7,3.3,3.3,0,0,0,1.2,3A14.67,14.67,0,0,1,116.1,45.3Z"/><path class="cls-1" d="M80.2,179.6c1.7,1.7,3.2,3,5,3.5a4,4,0,0,0,4-.7,3,3,0,0,0,.5-3.7,12.4,12.4,0,0,0-3.5-4.7c-3.7-3.5-7.7-5.2-11.7-5.2a12.47,12.47,0,0,0,1.7,5.7A28.62,28.62,0,0,0,80.2,179.6Z"/><path class="cls-1" d="M59.6,111.1a4.72,4.72,0,0,0-2,1,2.33,2.33,0,0,0-1,2,2.88,2.88,0,0,0,.7,2,2.72,2.72,0,0,0,2,.7,2.12,2.12,0,0,0,2-1,2.33,2.33,0,0,0,1-2,2.72,2.72,0,0,0-.7-2A3.06,3.06,0,0,0,59.6,111.1Z"/><path class="cls-1" d="M106.9,53a2.47,2.47,0,0,0,1.7,0,19.84,19.84,0,0,1,2-2.5l2-2c-.2,0-.5-.5-1-1a3.9,3.9,0,0,0-3-1.2,4,4,0,0,0-2.7,1.2,3.92,3.92,0,0,0-1.2,2.5,3.52,3.52,0,0,0,2.2,3Z"/><path class="cls-1" d="M112.1,58a5.54,5.54,0,0,0,2,4,6.34,6.34,0,0,0,6.2,1.7,16.52,16.52,0,0,0,6.5-3.7,13.6,13.6,0,0,0,4-7,6.34,6.34,0,0,0-1.7-6.2,5.2,5.2,0,0,0-8.2,0l-7,7A5.54,5.54,0,0,0,112.1,58Z"/><path class="cls-1" d="M212.3,108.3c-1.7-1.7-3.2-3-5-3.5a4,4,0,0,0-4,.7,3,3,0,0,0-.5,3.7,12.4,12.4,0,0,0,3.5,4.7c3.7,3.7,7.7,5.5,11.7,5.2a12.47,12.47,0,0,0-1.7-5.7A32.69,32.69,0,0,0,212.3,108.3Z"/><path class="cls-1" d="M225,92.4c-3.2-2.5-5.7-3-7.5-1.2a3.4,3.4,0,0,0-.5,3.5,11.33,11.33,0,0,0,2.7,4,7.08,7.08,0,0,0,4,2.5c1.2.2,2.5,0,3-.7a4,4,0,0,0,1-3.7A6.74,6.74,0,0,0,225,92.4Z"/><path class="cls-1" d="M155.7,164.7a4.31,4.31,0,0,1-1-.7,10,10,0,0,0-4.2-2.2,2.8,2.8,0,0,0-3.2.7,3,3,0,0,0-.7,3.5,11,11,0,0,0,3,4.2,11.81,11.81,0,0,0,4.5,3,3.49,3.49,0,0,0,3.7-.7,4.13,4.13,0,0,0,.7-3.5A9.82,9.82,0,0,0,155.7,164.7Z"/><path class="cls-1" d="M136.6,123.8a4.31,4.31,0,0,1,1,.7,10,10,0,0,0,4.2,2.2,4.05,4.05,0,0,0,3.2-.7,3,3,0,0,0,.7-3.5,11,11,0,0,0-3-4.2,11.81,11.81,0,0,0-4.5-3,3.49,3.49,0,0,0-3.7.7,4.13,4.13,0,0,0-.7,3.5A9.82,9.82,0,0,0,136.6,123.8Z"/><path class="cls-1" d="M101.2,69a4.72,4.72,0,0,0-2,1,2.33,2.33,0,0,0-1,2,2.44,2.44,0,0,0,2.7,2.7,2.6,2.6,0,0,0,2-1,2.33,2.33,0,0,0,1-2,2.72,2.72,0,0,0-.7-2A2.88,2.88,0,0,0,101.2,69Z"/><path class="cls-1" d="M175.4,241.7l-2,2a15.67,15.67,0,0,1-2.5,2,3.89,3.89,0,0,0,.2,1.5,4.2,4.2,0,0,0,.7,1.2,3.81,3.81,0,0,0,2.2.7,13.57,13.57,0,0,0,2.5-.7,4,4,0,0,0,1.2-2.7,3.3,3.3,0,0,0-1.2-3C175.9,242.2,175.7,241.9,175.4,241.7Z"/><path class="cls-1" d="M189.9,217.7a4.72,4.72,0,0,0,2-1,2.33,2.33,0,0,0,1-2,2.88,2.88,0,0,0-.7-2,2.72,2.72,0,0,0-2-.7,2.56,2.56,0,0,0-2,1,2.33,2.33,0,0,0-1,2,2.88,2.88,0,0,0,.7,2A2.72,2.72,0,0,0,189.9,217.7Z"/><path class="cls-1" d="M184.1,233.9a3.89,3.89,0,0,0-1.5-.2,19.84,19.84,0,0,1-2,2.5l-2,2c.2,0,.5.5,1,1a3.9,3.9,0,0,0,3,1.2,4.59,4.59,0,0,0,2.5-1,3.92,3.92,0,0,0,1.2-2.5,2.66,2.66,0,0,0-1-2.2A4.13,4.13,0,0,0,184.1,233.9Z"/><path class="cls-1" d="M179.7,228.7a5.54,5.54,0,0,0-2-4,6.34,6.34,0,0,0-6.2-1.7,13.29,13.29,0,0,0-7,4,13.6,13.6,0,0,0-4,7,6.34,6.34,0,0,0,1.7,6.2,5.2,5.2,0,0,0,8.2,0l7.5-7.2A5.9,5.9,0,0,0,179.7,228.7Z"/><path class="cls-1" d="M145.5,0A145.5,145.5,0,1,0,291,145.5,145.51,145.51,0,0,0,145.5,0ZM232,98.6a6.2,6.2,0,0,1-2,4.2,7.07,7.07,0,0,1-3.7,2,8.44,8.44,0,0,1-4.7-.2,16.36,16.36,0,0,1-4.7-3.2,11.72,11.72,0,0,1-3.7-7.2,7.65,7.65,0,0,1,2.5-6.5,7.54,7.54,0,0,1,5-2.5,12.9,12.9,0,0,1,6,1.2,21.9,21.9,0,0,1,6,4.2,20.52,20.52,0,0,1,5.2,9.2,21.36,21.36,0,0,1-.7,9.5,20.94,20.94,0,0,1-5,7.7,28,28,0,0,1-4,3.2,33.31,33.31,0,0,1-5,2.5,22.45,22.45,0,0,1-5.2,8.7,19.51,19.51,0,0,1-7.2,4.7,14.41,14.41,0,0,1-8.5.5,17.24,17.24,0,0,1-8.5-5c-3-3-4.7-6-5.2-9.5a11.87,11.87,0,0,1,2.5-9.5l3.7,2.7a6.58,6.58,0,0,0-1.2,5.7c.2,2.2,1.5,4.2,3.5,6.2q4.05,4.5,9,4.5a11.59,11.59,0,0,0,8.7-4,13.44,13.44,0,0,0,2.7-4c-5.2.5-10.2-1.5-14.7-6-2.7-2.7-4.5-5.5-4.7-8.2a8,8,0,0,1,2.5-7.2,8.76,8.76,0,0,1,7.5-2.7,17,17,0,0,1,8.5,4.7,26.17,26.17,0,0,1,4.7,6.5c1,2.2,1.7,4.5,2.7,6.2a15.35,15.35,0,0,0,9.2-10.7A14.74,14.74,0,0,0,232,98.6ZM123.1,109.1a22.17,22.17,0,0,0,5.7,8.2l.2.2a7,7,0,0,1,2.2-5.2,7.33,7.33,0,0,1,7-2.2,15.16,15.16,0,0,1,8,4.5c2.5,2.5,4,5,4.2,7.5a6.1,6.1,0,0,1-2.7,6.7c-4.7,4.7-12.2,2.5-21.9-7.2a33.45,33.45,0,0,1-7.7-11,20.27,20.27,0,0,1-1.5-10.7,15.51,15.51,0,0,1,4.5-9c3.5-3.5,7.2-5,11.2-4.2s8.5,3.5,13.2,8.2l17.2,16.9-3.7,4L142.1,99.1c-3.7-3.7-7.2-5.7-10-6.5-3-.5-5.5,0-7.5,2.2a9.63,9.63,0,0,0-3,6.2A15.78,15.78,0,0,0,123.1,109.1Zm9.5,27.2,3.2,3L113.4,162,91.7,140.3l3.7-3.7,18.7,18.2Zm.7,36.1,16.9,16.7c3.7,3.7,7.2,5.7,10,6.5,3,.5,5.5,0,7.5-2.2a9.63,9.63,0,0,0,3-6.2,14.8,14.8,0,0,0-1.5-8,22.17,22.17,0,0,0-5.7-8.2l-.2-.2a7,7,0,0,1-2.2,5.2,7.33,7.33,0,0,1-7,2.2,15.53,15.53,0,0,1-8-4.5c-2.5-2.5-4-5-4.2-7.5a8.41,8.41,0,0,1,2.5-7c4.7-4.7,12.2-2.5,21.9,7.2a33.45,33.45,0,0,1,7.7,11,23.35,23.35,0,0,1,1.7,11,15.51,15.51,0,0,1-4.5,9c-3.5,3.5-7.2,5-11.2,4.2s-8.5-3.5-13.2-8.2l-17.2-17ZM160,152l-3.2-3.2L179,126.4l21.7,21.4-3.7,4-18.4-18.4ZM190.1,40.6l3.2,3.2-4.7,4.7L207,66.9l-3.7,4L184.6,52.5l-7.7,8,18.7,18.2-4,4L169.9,61.3ZM161.2,70l4-4,21.7,21.4-19.4,19.7L145.8,85.7l3.7-4,18.7,18.4,11.7-11.7ZM124.6,25.6a8.39,8.39,0,0,1,4.5-2.5,9.38,9.38,0,0,1,6,.7,23.55,23.55,0,0,1,7,5,28.68,28.68,0,0,1,5,7,11.19,11.19,0,0,1,1,6,8,8,0,0,1-2.2,4.5,6.27,6.27,0,0,1-5.7,2.2l-.2-4.2a3.11,3.11,0,0,0,2.5-1c1-.7,1-2.2.5-4a21.31,21.31,0,0,0-4.7-6.5c-2.5-2.2-4.7-4-6.5-4.5s-3-.5-4,.5a3.32,3.32,0,0,0-1,2.5h-4.2A6.66,6.66,0,0,1,124.6,25.6Zm-21.9,19a26.06,26.06,0,0,1,3-2,7.41,7.41,0,0,1,3.2-.7,7.41,7.41,0,0,1,.7-3.2,12.09,12.09,0,0,1,2-3,8.28,8.28,0,0,1,5.5-2.7,6.19,6.19,0,0,1,5.2,2,14.32,14.32,0,0,1,1.5,2.2,12.82,12.82,0,0,1,.5,2.7,10,10,0,0,1,4.5.5,9.59,9.59,0,0,1,4,2.5,10.79,10.79,0,0,1,3.5,6.5,11.18,11.18,0,0,1-1.2,7.2,19.79,19.79,0,0,1-4.5,6.7,17.81,17.81,0,0,1-6.7,4.7,15,15,0,0,1-7.2,1,9.86,9.86,0,0,1-6.5-3.2,10.51,10.51,0,0,1-2.7-4,10,10,0,0,1-.5-4.5,7.22,7.22,0,0,1-2.7-.5,14,14,0,0,1-2.2-1.5,6.85,6.85,0,0,1-2-5.2A7.53,7.53,0,0,1,102.7,44.6ZM83.5,68.5a13,13,0,0,1,3.7-7,14.05,14.05,0,0,1,4.7-3.2,15.19,15.19,0,0,1,5.7-1L97.1,62a12.86,12.86,0,0,0-3.5.5,6.58,6.58,0,0,0-3,2A7.41,7.41,0,0,0,88.4,69a11.83,11.83,0,0,0,.5,5.5,12.52,12.52,0,0,0,3.2,5,10.79,10.79,0,0,0,7,3.7,8.13,8.13,0,0,0,6.5-2.2,8.58,8.58,0,0,0,2.2-4.2,6.15,6.15,0,0,0-1-4,6.42,6.42,0,0,1-.5,2,5.1,5.1,0,0,1-1.2,2,6.91,6.91,0,0,1-3.2,2,8.61,8.61,0,0,1-3.2,0A4.87,4.87,0,0,1,96,77.3a7.41,7.41,0,0,1-1.7-5,7,7,0,0,1,2.2-5.2c2-1.7,4-2.7,6.2-2.5,2.2,0,4.5,1.2,6.7,3.5a23.38,23.38,0,0,1,3,4.7,10.91,10.91,0,0,1,.2,5.7,11.74,11.74,0,0,1-3.5,6,13.77,13.77,0,0,1-6.5,4,12.62,12.62,0,0,1-7.2-.2,16.09,16.09,0,0,1-7-4.5,16.81,16.81,0,0,1-4.5-7.2A16,16,0,0,1,83.5,68.5ZM53.6,84.7a15.57,15.57,0,0,1,3.7-6.5c7.7-7.5,16.4-6.2,26.9,4,9,9,10,17.2,2.5,23.9a14,14,0,0,1-7,4.2,10.83,10.83,0,0,1-6.7-.2,15.19,15.19,0,0,1-5.5-3.5,19,19,0,0,1-3.5-5.2,11.73,11.73,0,0,1-.5-5.5A10.05,10.05,0,0,1,66,91.4a9.09,9.09,0,0,1,4.2-2.5l1.7,4.5a5.1,5.1,0,0,0-2,1.2,4,4,0,0,0-1,3.7,7.92,7.92,0,0,0,2.5,4.5,9.81,9.81,0,0,0,5.7,2.7c2.2.2,4.2-.7,6.2-2.7A8,8,0,0,0,86,95.1c-.5-2.7-2.5-6-6-9.2-4.5-4.5-8.2-6.7-11.2-7.2a9.06,9.06,0,0,0-8,2.7,7.37,7.37,0,0,0-2.2,3.7,9.7,9.7,0,0,0,.2,4.2l-5,2.7A12.09,12.09,0,0,1,53.6,84.7ZM51.8,140a11.74,11.74,0,0,1-3.5,6,13.77,13.77,0,0,1-6.5,4,12.62,12.62,0,0,1-7.2-.2,16.09,16.09,0,0,1-7-4.5,16.81,16.81,0,0,1-4.5-7.2,14.53,14.53,0,0,1-.5-8,13,13,0,0,1,3.7-7,14.05,14.05,0,0,1,4.7-3.2,15.19,15.19,0,0,1,5.7-1l-.5,4.7a12.86,12.86,0,0,0-3.5.5,6.58,6.58,0,0,0-3,2,7.41,7.41,0,0,0-2.2,4.5,11.83,11.83,0,0,0,.5,5.5,12.52,12.52,0,0,0,3.2,5,10.79,10.79,0,0,0,7,3.7,8.13,8.13,0,0,0,6.5-2.2,8.58,8.58,0,0,0,2.2-4.2,6.15,6.15,0,0,0-1-4,6.42,6.42,0,0,1-.5,2,5.1,5.1,0,0,1-1.2,2,6.91,6.91,0,0,1-3.2,2,8.61,8.61,0,0,1-3.2,0,4.87,4.87,0,0,1-2.7-1.5,7.41,7.41,0,0,1-1.7-5,7,7,0,0,1,2.2-5.2c2-1.7,4-2.7,6.2-2.5,2.2,0,4.5,1.2,6.7,3.5a23.38,23.38,0,0,1,3,4.7A9.44,9.44,0,0,1,51.8,140Zm-5.2-14.2a16.81,16.81,0,0,1-4.5-7.2,14.53,14.53,0,0,1-.5-8,13,13,0,0,1,3.7-7,14.05,14.05,0,0,1,4.7-3.2,15.19,15.19,0,0,1,5.7-1l-.5,4.7a12.86,12.86,0,0,0-3.5.5,6.58,6.58,0,0,0-3,2,7.41,7.41,0,0,0-2.2,4.5,11.83,11.83,0,0,0,.5,5.5,12.52,12.52,0,0,0,3.2,5,10.79,10.79,0,0,0,7,3.7,8.13,8.13,0,0,0,6.5-2.2,8.58,8.58,0,0,0,2.2-4.2,6.15,6.15,0,0,0-1-4,6.42,6.42,0,0,1-.5,2,5.1,5.1,0,0,1-1.2,2,6.91,6.91,0,0,1-3.2,2,8.61,8.61,0,0,1-3.2,0,4.87,4.87,0,0,1-2.7-1.5,7.41,7.41,0,0,1-1.7-5,7,7,0,0,1,2.2-5.2c2-1.7,4-2.7,6.2-2.5,2.2,0,4.5,1.2,6.7,3.5a23.38,23.38,0,0,1,3,4.7,9.27,9.27,0,0,1,.2,5.7,11.74,11.74,0,0,1-3.5,6,13.77,13.77,0,0,1-6.5,4,12.62,12.62,0,0,1-7.2-.2C51,129.7,48.8,128,46.6,125.8Zm14,63.8a6.2,6.2,0,0,1,2-4.2,7.07,7.07,0,0,1,3.7-2,8.44,8.44,0,0,1,4.7.2,16.36,16.36,0,0,1,4.7,3.2,11.72,11.72,0,0,1,3.7,7.2,7.65,7.65,0,0,1-2.5,6.5,6.45,6.45,0,0,1-5,2.5,12.9,12.9,0,0,1-6-1.2,21.9,21.9,0,0,1-6-4.2,20.52,20.52,0,0,1-5.2-9.2,21.36,21.36,0,0,1,.7-9.5,20.94,20.94,0,0,1,5-7.7,28,28,0,0,1,4-3.2,33.31,33.31,0,0,1,5-2.5,22.45,22.45,0,0,1,5.2-8.7,19.51,19.51,0,0,1,7.2-4.7,14.41,14.41,0,0,1,8.5-.5,17.24,17.24,0,0,1,8.5,5c3,3,4.7,6,5.2,9.5a11.87,11.87,0,0,1-2.5,9.5l-3.7-2.7a6.58,6.58,0,0,0,1.2-5.7c-.2-2.2-1.5-4.2-3.5-6.2q-4.05-4.5-9-4.5c-3.3,0-6,1.2-8.7,4a13.44,13.44,0,0,0-2.7,4c5.2-.5,10.2,1.5,14.7,6,2.7,2.7,4.5,5.5,4.7,8.2a8,8,0,0,1-2.5,7.2,8.76,8.76,0,0,1-7.5,2.7,17,17,0,0,1-8.5-4.7,26.17,26.17,0,0,1-4.7-6.5c-1.2-2.2-2-4.7-2.7-6.2a15.35,15.35,0,0,0-9.2,10.7A13.79,13.79,0,0,0,60.6,189.6Zm41.6,57.8-3.2-3,5-5L85.2,221l4-3.7,18.4,18.2,7.7-7.7L96.9,209.4l3.7-3.7,21.7,21.4Zm28.9-29.2-3.7,3.7-21.9-21.4,19.4-19.7,21.9,21.4-4,4-18.4-18.4-11.7,12Zm35.4,42.9a8.39,8.39,0,0,1-4.5,2.5,9.38,9.38,0,0,1-6-.7,23.55,23.55,0,0,1-7-5,28.68,28.68,0,0,1-5-7,11.19,11.19,0,0,1-1-6,8,8,0,0,1,2.2-4.5,6.27,6.27,0,0,1,5.7-2.2l.2,4.2a3.11,3.11,0,0,0-2.5,1c-1,.7-1,2.2-.5,4a21.31,21.31,0,0,0,4.7,6.5c2.5,2.2,4.7,4,6.5,4.5s3,.5,4-.5a3.32,3.32,0,0,0,1-2.5h4.2A7.31,7.31,0,0,1,166.5,261.1Zm21.9-18.9a11.15,11.15,0,0,1-2.7,2,7.41,7.41,0,0,1-3.2.7,7.41,7.41,0,0,1-.7,3.2,12.09,12.09,0,0,1-2,3,8.28,8.28,0,0,1-5.5,2.7,6.19,6.19,0,0,1-5.2-2,14.32,14.32,0,0,1-1.5-2.2,12.82,12.82,0,0,1-.5-2.7,10,10,0,0,1-4.5-.5,9.59,9.59,0,0,1-4-2.5,10.79,10.79,0,0,1-3.5-6.5,15.53,15.53,0,0,1,1-7.2,19.79,19.79,0,0,1,4.5-6.7,17.81,17.81,0,0,1,6.7-4.7,15,15,0,0,1,7.2-1A9.86,9.86,0,0,1,181,221a10.51,10.51,0,0,1,2.7,4,10,10,0,0,1,.5,4.5,7.22,7.22,0,0,1,2.7.5,14,14,0,0,1,2.2,1.5,6.85,6.85,0,0,1,2,5.2A9,9,0,0,1,188.4,242.2Zm19.2-24a13,13,0,0,1-3.7,7,14.05,14.05,0,0,1-4.7,3.2,15.19,15.19,0,0,1-5.7,1l.5-4.7a12.86,12.86,0,0,0,3.5-.5,6.58,6.58,0,0,0,3-2,7.41,7.41,0,0,0,2.2-4.5,11.83,11.83,0,0,0-.5-5.5,12.52,12.52,0,0,0-3.2-5,10.79,10.79,0,0,0-7-3.7,8.13,8.13,0,0,0-6.5,2.2,8.58,8.58,0,0,0-2.2,4.2,6.15,6.15,0,0,0,1,4,6.42,6.42,0,0,1,.5-2,5.1,5.1,0,0,1,1.2-2,6.91,6.91,0,0,1,3.2-2,8.61,8.61,0,0,1,3.2,0,4.87,4.87,0,0,1,2.7,1.5,7.41,7.41,0,0,1,1.7,5,7,7,0,0,1-2.2,5.2c-2,1.7-4,2.7-6.2,2.5-2.2,0-4.5-1.2-6.7-3.5a23.38,23.38,0,0,1-3-4.7,10.91,10.91,0,0,1-.2-5.7,11.74,11.74,0,0,1,3.5-6,13.77,13.77,0,0,1,6.5-4,12.62,12.62,0,0,1,7.2.2,16.09,16.09,0,0,1,7,4.5,16.81,16.81,0,0,1,4.5,7.2A16,16,0,0,1,207.6,218.2Zm30.1-16.4a29.8,29.8,0,0,1-3.5,7.2c-7.7,7.5-16.4,6.2-26.9-4-9.2-9-10-17.2-2.7-24.7a14,14,0,0,1,7-4.2,10.83,10.83,0,0,1,6.7.2,15.19,15.19,0,0,1,5.5,3.5,19,19,0,0,1,3.5,5.2,11.73,11.73,0,0,1,.5,5.5,10.05,10.05,0,0,1-2.5,4.5,9.09,9.09,0,0,1-4.2,2.5l-1.7-4.5a5.1,5.1,0,0,0,2-1.2,4,4,0,0,0,1-3.7,7.92,7.92,0,0,0-2.5-4.5,9.81,9.81,0,0,0-5.7-2.7c-2.2-.2-4.2.7-6.2,2.7a8,8,0,0,0-2.7,7.7c.5,2.7,2.5,6,6,9.2,4.5,4.5,8.2,6.7,11.2,7.2a9.06,9.06,0,0,0,8-2.7,7.37,7.37,0,0,0,2.2-3.7,9.7,9.7,0,0,0-.2-4.2l5-2.7A12.44,12.44,0,0,1,237.7,201.8Zm12-25.9a13,13,0,0,1-3.7,7,14.05,14.05,0,0,1-4.7,3.2,15.19,15.19,0,0,1-5.7,1l.5-4.7a12.86,12.86,0,0,0,3.5-.5,6.58,6.58,0,0,0,3-2,7.41,7.41,0,0,0,2.2-4.5,11.83,11.83,0,0,0-.5-5.5,12.52,12.52,0,0,0-3.2-5,10.79,10.79,0,0,0-7-3.7,8.13,8.13,0,0,0-6.5,2.2,8.58,8.58,0,0,0-2.2,4.2,6.15,6.15,0,0,0,1,4,6.42,6.42,0,0,1,.5-2,5.1,5.1,0,0,1,1.2-2,6.91,6.91,0,0,1,3.2-2,8.61,8.61,0,0,1,3.2,0,4.87,4.87,0,0,1,2.7,1.5,7.41,7.41,0,0,1,1.7,5,7,7,0,0,1-2.2,5.2c-2,1.7-4,2.7-6.2,2.5-2.2,0-4.5-1.2-6.7-3.5a23.38,23.38,0,0,1-3-4.7,9.18,9.18,0,0,1-.2-5.7,11.74,11.74,0,0,1,3.5-6,13.77,13.77,0,0,1,6.5-4,12.62,12.62,0,0,1,7.2.2,16.09,16.09,0,0,1,7,4.5,16.81,16.81,0,0,1,4.5,7.2A15.94,15.94,0,0,1,249.7,175.9Zm15.2-12.2a14.05,14.05,0,0,1-4.7,3.2,15.19,15.19,0,0,1-5.7,1l.5-4.7a12.86,12.86,0,0,0,3.5-.5,6.58,6.58,0,0,0,3-2,7.41,7.41,0,0,0,2.2-4.5,11.83,11.83,0,0,0-.5-5.5,12.52,12.52,0,0,0-3.2-5,10.79,10.79,0,0,0-7-3.7,8.13,8.13,0,0,0-6.5,2.2,8.58,8.58,0,0,0-2.2,4.2,6.15,6.15,0,0,0,1,4,6.42,6.42,0,0,1,.5-2,5.1,5.1,0,0,1,1.2-2,6.91,6.91,0,0,1,3.2-2,8.61,8.61,0,0,1,3.2,0,4.87,4.87,0,0,1,2.7,1.5,7.41,7.41,0,0,1,1.7,5,7,7,0,0,1-2.2,5.2c-2,1.7-4,2.7-6.2,2.5-2.2,0-4.5-1.2-6.7-3.5a23.38,23.38,0,0,1-3-4.7,10.91,10.91,0,0,1-.2-5.7,11.74,11.74,0,0,1,3.5-6,13.77,13.77,0,0,1,6.5-4,12.62,12.62,0,0,1,7.2.2,16.09,16.09,0,0,1,7,4.5,16.81,16.81,0,0,1,4.5,7.2,14.53,14.53,0,0,1,.5,8A13.71,13.71,0,0,1,264.9,163.7Z"/><path class="cls-1" d="M231.7,175.4a4.72,4.72,0,0,0,2-1,2.33,2.33,0,0,0,1-2,2.88,2.88,0,0,0-.7-2,2.72,2.72,0,0,0-2-.7,3.21,3.21,0,0,0-2,1,2.33,2.33,0,0,0-1,2,2.88,2.88,0,0,0,.7,2A3.46,3.46,0,0,0,231.7,175.4Z"/><path class="cls-1" d="M250.7,156.2a4.72,4.72,0,0,0,2-1,2.33,2.33,0,0,0,1-2,2.88,2.88,0,0,0-.7-2,2.72,2.72,0,0,0-2-.7c-.7,0-1.2.5-2,1a2.33,2.33,0,0,0-1,2,2.88,2.88,0,0,0,.7,2A3.22,3.22,0,0,0,250.7,156.2Z"/></g></g></svg>