<?xml version="1.0" standalone="no"?>
<!DOCTYPE svg PUBLIC "-//W3C//DTD SVG 20010904//EN"
 "http://www.w3.org/TR/2001/REC-SVG-20010904/DTD/svg10.dtd">
<svg version="1.0" xmlns="http://www.w3.org/2000/svg"
 width="700.000000pt" height="700.000000pt" viewBox="0 0 700.000000 700.000000"
 preserveAspectRatio="xMidYMid meet">
<metadata>
Created by potrace 1.11, written by Peter Selinger 2001-2013
</metadata>
<g transform="translate(0.000000,700.000000) scale(0.100000,-0.100000)"
fill="#000000" stroke="none">
<path d="M1905 6312 c-66 -41 -69 -54 -70 -289 -1 -233 4 -257 58 -297 28 -21
37 -21 650 -22 733 -2 766 -4 912 -58 95 -37 153 -73 221 -142 101 -102 166
-254 190 -436 l6 -48 -619 -1 c-340 0 -638 -2 -663 -4 -56 -4 -133 -15 -141
-20 -3 -2 -21 -7 -40 -10 -93 -15 -288 -100 -391 -170 -249 -169 -443 -460
-485 -730 -3 -16 -9 -50 -13 -75 -10 -50 -7 -1610 2 -1650 4 -14 11 -57 17
-96 22 -145 77 -298 147 -410 130 -205 372 -345 667 -388 27 -4 56 -9 65 -11
64 -12 312 -17 841 -18 l611 0 1 -41 c0 -23 1 -205 2 -406 2 -364 2 -365 25
-397 13 -18 35 -36 50 -40 15 -4 124 -7 243 -7 208 0 216 1 247 23 18 12 38
32 45 44 9 17 12 456 13 2082 1 1133 4 2089 8 2124 20 187 83 364 175 491 159
222 421 368 708 395 123 11 120 3 122 327 l1 257 -26 18 c-31 20 -137 25 -219
10 -75 -13 -250 -73 -335 -115 -200 -99 -397 -244 -555 -409 l-70 -74 -48 65
c-145 197 -367 363 -606 453 -63 23 -217 65 -296 79 -22 4 -350 9 -730 11
-661 3 -691 3 -720 -15z m1966 -1962 c0 -59 0 -2192 0 -2247 l-1 -41 -597 2
c-584 3 -600 4 -673 25 -120 36 -196 79 -275 156 -90 89 -153 207 -171 323 -3
21 -9 55 -13 77 -9 52 -6 1087 3 1140 39 209 188 399 396 505 56 28 164 67
210 76 14 3 32 7 40 9 8 2 44 7 80 11 36 3 66 7 67 8 1 0 211 1 467 1 l466 0
1 -45z"/>
</g>
</svg>
