<?xml version="1.0" encoding="utf-8"?>
<!-- Generator: Adobe Illustrator 22.0.1, SVG Export Plug-In . SVG Version: 6.00 Build 0)  -->
<svg version="1.1"
	 id="svg491" inkscape:version="0.92.2 5c3e80d, 2017-08-06" sodipodi:docname="akuru-logo_triling.svg" xmlns:cc="http://creativecommons.org/ns#" xmlns:dc="http://purl.org/dc/elements/1.1/" xmlns:inkscape="http://www.inkscape.org/namespaces/inkscape" xmlns:rdf="http://www.w3.org/1999/02/22-rdf-syntax-ns#" xmlns:sodipodi="http://sodipodi.sourceforge.net/DTD/sodipodi-0.dtd" xmlns:svg="http://www.w3.org/2000/svg"
	 xmlns="http://www.w3.org/2000/svg" xmlns:xlink="http://www.w3.org/1999/xlink" x="0px" y="0px" viewBox="0 0 421 227.8"
	 style="enable-background:new 0 0 421 227.8;" xml:space="preserve">
<style type="text/css">
	.st0{fill:#FFFFFF;}
	.st1{opacity:0.85;enable-background:new    ;}
</style>
<sodipodi:namedview  bordercolor="#666666" borderopacity="1" gridtolerance="10" guidetolerance="10" id="namedview493" inkscape:current-layer="Layer_1" inkscape:cx="308.95305" inkscape:cy="322.1973" inkscape:pageopacity="0" inkscape:pageshadow="2" inkscape:window-height="1006" inkscape:window-maximized="0" inkscape:window-width="1680" inkscape:window-x="5" inkscape:window-y="0" inkscape:zoom="0.56063665" objecttolerance="10" pagecolor="#ffffff" showgrid="false">
	</sodipodi:namedview>
<g id="Layer_1" transform="translate(0,-741.00006)">
	
		<circle id="circle16" inkscape:export-filename="/Users/macbookpro/text1124.png" inkscape:export-xdpi="300" inkscape:export-ydpi="300" cx="68.2" cy="842.6" r="65.9">
	</circle>
	
		<g id="g62" transform="matrix(0.58574952,0,0,0.58574952,-6.5361591,560.85004)" inkscape:export-filename="/Users/macbookpro/text1124.png" inkscape:export-xdpi="300" inkscape:export-ydpi="300">
		<path id="path18" inkscape:connector-curvature="0" class="st0" d="M55.1,472.4c-0.6-1.3-1.3-2.5-2.3-3.7
			c-1.7-1.7-3.5-2.7-5.2-2.7c-1.7-0.2-3.3,0.6-4.8,1.9c-1.2,1.2-1.7,2.5-1.7,4c0,1.5,0.4,2.7,1.3,3.9c0.6,0.6,1.3,1,2.1,1.2
			c0.8,0.2,1.7,0.2,2.5,0c1-0.2,1.7-0.8,2.5-1.5c0.4-0.4,0.8-1,1-1.5s0.4-1.2,0.4-1.5c0.6,1,1,2.1,0.8,3.1c-0.2,1.2-0.8,2.1-1.7,3.3
			c-1.3,1.3-3.1,1.9-5,1.7c-1.9-0.2-3.9-1.2-5.4-2.9c-1.2-1.2-2.1-2.5-2.5-3.9c-0.6-1.5-0.6-2.9-0.4-4.2c0.2-1.3,0.8-2.5,1.7-3.5
			c0.8-0.8,1.5-1.3,2.3-1.5c0.8-0.2,1.7-0.4,2.7-0.4l0.4-3.7c-1.5,0-3.1,0.2-4.4,0.8s-2.5,1.3-3.7,2.5c-1.5,1.5-2.5,3.3-2.9,5.4
			c-0.4,2.1-0.4,4,0.4,6.2c0.6,2.1,1.7,3.9,3.5,5.6c1.7,1.7,3.5,2.9,5.4,3.5c1.9,0.6,3.7,0.8,5.6,0.2c1.7-0.4,3.5-1.5,5-3.1
			c1.5-1.5,2.3-2.9,2.7-4.6C55.7,475.1,55.5,473.7,55.1,472.4L55.1,472.4z M46.4,473.9c-0.6,0-1.2-0.2-1.5-0.6
			c-0.4-0.4-0.6-1-0.6-1.5c0-0.6,0.2-1.2,0.8-1.5c0.4-0.4,1-0.6,1.5-0.8c0.6,0,1.2,0.2,1.5,0.6c0.4,0.4,0.6,1,0.6,1.5
			s-0.2,1.2-0.8,1.5C47.4,473.5,47,473.7,46.4,473.9z"/>
		<path id="path20" inkscape:connector-curvature="0" class="st0" d="M69.7,457.4c-0.6-1.3-1.3-2.5-2.3-3.7
			c-1.7-1.7-3.5-2.7-5.2-2.7c-1.7-0.2-3.3,0.6-4.8,1.9c-1.2,1.2-1.7,2.5-1.7,4c0,1.5,0.4,2.7,1.3,3.9c0.6,0.6,1.3,1,2.1,1.2
			c0.8,0.2,1.7,0.2,2.5,0c1-0.2,1.7-0.8,2.5-1.5c0.4-0.4,0.8-1,1-1.5c0.2-0.6,0.4-1.2,0.4-1.5c0.6,1,1,2.1,0.8,3.1
			c-0.2,1.2-0.8,2.1-1.7,3.3c-1.3,1.3-3.1,1.9-5,1.7c-1.9-0.2-3.9-1.2-5.4-2.9c-1.2-1.2-2.1-2.5-2.5-3.9c-0.6-1.5-0.6-2.9-0.4-4.2
			c0.2-1.3,0.8-2.5,1.7-3.5c0.8-0.8,1.5-1.3,2.3-1.5c0.8-0.2,1.7-0.4,2.7-0.4l0.4-3.7c-1.5,0-3.1,0.2-4.4,0.8
			c-1.3,0.6-2.5,1.3-3.7,2.5c-1.5,1.5-2.5,3.3-2.9,5.4c-0.4,2.1-0.4,4,0.4,6.2c0.6,2.1,1.7,3.9,3.5,5.6c1.7,1.7,3.5,2.9,5.4,3.5
			s3.7,0.8,5.6,0.2c1.7-0.4,3.5-1.5,5-3.1c1.5-1.5,2.3-2.9,2.7-4.6C70.3,460.2,70.3,458.9,69.7,457.4L69.7,457.4z M61,458.9
			c-0.6,0-1.2-0.2-1.5-0.6c-0.4-0.4-0.6-1-0.6-1.5s0.2-1.2,0.8-1.5c0.4-0.4,1-0.6,1.5-0.8c0.6,0,1.2,0.2,1.5,0.6
			c0.4,0.4,0.6,1,0.6,1.5s-0.2,1.2-0.8,1.5C62.2,458.7,61.6,458.9,61,458.9z"/>
		<path id="path22" inkscape:connector-curvature="0" class="st0" d="M80.3,432.1c-8.1-7.9-14.8-8.9-20.8-3.1
			c-1.3,1.3-2.3,3.1-2.9,5c-0.6,1.9-0.4,3.9,0.4,5.8l3.9-2.1c-0.4-1-0.4-2.1-0.2-3.3c0.4-1.2,0.8-2.1,1.7-2.9
			c1.7-1.7,3.9-2.5,6.2-2.1c2.3,0.4,5.2,2.1,8.7,5.6c2.7,2.5,4.2,5,4.6,7.1c0.4,2.1-0.2,4.2-2.1,6c-1.5,1.5-3.1,2.3-4.8,2.1
			c-1.7-0.2-3.1-1-4.4-2.1c-1.2-1.2-1.7-2.3-1.9-3.5c-0.2-1.2,0-2.1,0.8-2.9c0.4-0.4,1-0.8,1.5-1l-1.3-3.5c-1.3,0.4-2.3,1-3.3,1.9
			c-1,1-1.5,2.1-1.9,3.5c-0.2,1.3-0.2,2.7,0.4,4.2c0.6,1.3,1.5,2.9,2.7,4c1.2,1.2,2.7,2.1,4.2,2.7s3.3,0.8,5.2,0.2
			c1.9-0.4,3.7-1.5,5.4-3.3C88,445.4,87.2,439.1,80.3,432.1z"/>
		<path id="path24" inkscape:connector-curvature="0" class="st0" d="M102.1,424.8c-0.6-1.3-1.3-2.5-2.3-3.7
			c-1.7-1.7-3.5-2.7-5.2-2.7c-1.7-0.2-3.3,0.6-4.8,1.9c-1.2,1.2-1.7,2.5-1.7,4c0,1.5,0.4,2.7,1.3,3.9c0.6,0.6,1.3,1,2.1,1.2
			s1.7,0.2,2.5,0c1-0.2,1.7-0.8,2.5-1.5c0.4-0.4,0.8-1,1-1.5c0.2-0.6,0.4-1.2,0.4-1.5c0.6,1,1,2.1,0.8,3.1c-0.2,1.2-0.8,2.1-1.7,3.3
			c-1.3,1.3-3.1,1.9-5,1.7c-1.9-0.2-3.9-1.2-5.4-2.9c-1.2-1.2-2.1-2.5-2.5-3.9c-0.6-1.5-0.6-2.9-0.4-4.2c0.2-1.3,0.8-2.5,1.7-3.5
			c0.8-0.8,1.5-1.3,2.3-1.5c0.8-0.2,1.7-0.4,2.7-0.4l0.4-3.7c-1.5,0-3.1,0.2-4.4,0.8c-1.3,0.6-2.5,1.3-3.7,2.5
			c-1.5,1.5-2.5,3.3-2.9,5.4c-0.4,2.1-0.4,4,0.4,6.2c0.6,2.1,1.7,3.9,3.5,5.6c1.7,1.7,3.5,2.9,5.4,3.5c1.9,0.6,3.7,0.8,5.6,0.2
			c1.7-0.4,3.5-1.5,5-3.1c1.5-1.5,2.3-2.9,2.7-4.6C102.6,427.7,102.4,426.2,102.1,424.8L102.1,424.8z M93.2,426.4
			c-0.6,0-1.2-0.2-1.5-0.6c-0.4-0.4-0.6-1-0.6-1.5s0.2-1.2,0.8-1.5c0.4-0.4,1-0.6,1.5-0.8c0.6,0,1.2,0.2,1.5,0.6
			c0.4,0.4,0.6,1,0.6,1.5c0,0.6-0.2,1.2-0.8,1.5C94.4,426,94,426.4,93.2,426.4z"/>
		<path id="path26" inkscape:connector-curvature="0" class="st0" d="M120.5,406.7c-0.2-1.9-1.2-3.5-2.7-5c-1-1-1.9-1.5-3.1-1.9
			c-1.2-0.4-2.3-0.6-3.5-0.4c0-0.8-0.2-1.3-0.4-2.1c-0.4-0.6-0.6-1.2-1.2-1.7c-1.2-1.2-2.5-1.7-4-1.5c-1.5,0.2-3.1,0.8-4.2,2.1
			c-0.6,0.8-1.2,1.3-1.5,2.3c-0.4,0.8-0.6,1.7-0.6,2.5c-0.8,0-1.7,0.2-2.5,0.6c-0.8,0.4-1.5,1-2.3,1.5c-1.3,1.3-1.9,2.7-2.1,4.2
			c0,1.5,0.4,2.9,1.5,4c0.6,0.4,1,0.8,1.7,1.2c0.6,0.2,1.3,0.4,2.1,0.4c-0.2,1.2,0,2.3,0.4,3.5c0.4,1.2,1.2,2.1,2.1,3.1
			c1.5,1.5,3.1,2.3,5,2.5c1.9,0.2,3.7,0,5.6-0.8c1.9-0.8,3.7-1.9,5.2-3.7c1.5-1.5,2.7-3.3,3.5-5.2
			C120.5,410.4,120.9,408.5,120.5,406.7z M97.8,409.6c-0.4-0.2-0.8-0.4-1-0.6c-0.6-0.6-0.8-1.2-0.8-1.7s0.4-1.3,1-1.9
			c0.6-0.6,1.3-1,2.1-1s1.5,0.2,2.3,1c0.4,0.4,0.6,0.8,0.8,0.8l-1.5,1.5c-0.6,0.6-1.2,1.3-1.5,1.9C98.8,409.8,98.4,409.8,97.8,409.6
			z M106.5,402.1l-1.5,1.5c-0.2-0.2-0.4-0.4-1-0.8c-0.8-0.8-1.2-1.5-1-2.3c0-0.8,0.4-1.5,1-2.1c0.6-0.6,1.2-1,1.9-1s1.2,0.2,1.7,0.6
			c0.2,0.2,0.4,0.6,0.6,1c0.2,0.4,0.2,0.8,0.2,1.2C107.8,400.8,107.1,401.3,106.5,402.1L106.5,402.1z M108.2,417.9
			c-1.9,0.4-3.5,0-4.8-1.3c-1-1-1.5-1.9-1.5-3.1s0.4-2.3,1.3-3.3l5.4-5.4c1-1,2.1-1.5,3.3-1.5s2.1,0.6,3.1,1.5
			c1.3,1.3,1.7,2.9,1.3,4.8c-0.4,1.9-1.3,3.7-3.1,5.4C111.7,416.4,109.9,417.5,108.2,417.9L108.2,417.9z"/>
		<path id="path28" inkscape:connector-curvature="0" class="st0" d="M113,392.9c0-0.8,0.2-1.3,0.8-1.9c0.8-0.8,1.7-0.8,3.1-0.4
			c1.3,0.4,3.1,1.7,5,3.5c1.9,1.9,3.1,3.7,3.7,5c0.4,1.3,0.4,2.5-0.4,3.1c-0.6,0.6-1.2,0.8-1.9,0.8l0.2,3.3c1.7,0.2,3.3-0.4,4.4-1.7
			c1-1,1.5-2.1,1.7-3.5c0.2-1.3,0-2.9-0.8-4.6s-2.1-3.5-3.9-5.4c-1.9-1.9-3.7-3.1-5.4-3.9c-1.7-0.8-3.3-1-4.6-0.6
			c-1.3,0.2-2.5,1-3.5,1.9c-1.2,1.2-1.7,2.7-1.7,4.4L113,392.9z"/>
		<path id="path30" inkscape:connector-curvature="0" class="st0" d="M70.5,505.5c1,1.7,2.1,3.5,3.7,5c2.1,2.1,4.4,3.3,6.5,3.7
			c2.1,0.2,4-0.4,5.8-2.1c1.5-1.5,2.3-3.5,1.9-5.6c-0.2-2.1-1.5-4.2-3.7-6.4c-3.5-3.5-7.3-5-11.4-4.6c0.6-1.2,1.2-2.1,2.1-3.1
			c2.1-2.1,4.2-3.1,6.7-3.1c2.5,0,4.8,1.2,6.9,3.5c1.5,1.5,2.5,3.1,2.7,4.8c0.4,1.7,0,3.3-1,4.4l2.9,2.1c1.7-2.3,2.3-4.6,1.9-7.3
			c-0.4-2.7-1.7-5-4-7.3c-2.1-2.1-4.2-3.3-6.5-3.9c-2.3-0.6-4.4-0.4-6.5,0.4c-2.1,0.8-3.9,1.9-5.6,3.7c-1.9,2.1-3.3,4.2-4,6.7
			c-1.3,0.6-2.7,1.2-3.9,1.9c-1.2,0.8-2.3,1.7-3.1,2.5c-1.7,1.7-2.9,3.7-3.9,6c-0.8,2.3-1,4.6-0.6,7.3c0.6,2.5,1.9,4.8,4,7.1
			c1.5,1.5,3.1,2.5,4.6,3.3c1.5,0.8,3.1,1,4.6,1c1.5,0,2.9-0.8,3.9-1.9c1.5-1.5,2.1-3.1,1.9-5c-0.2-1.9-1.2-3.9-2.9-5.6
			c-1.2-1.2-2.5-1.9-3.7-2.5c-1.3-0.4-2.5-0.6-3.7-0.2c-1.2,0.2-2.1,0.8-2.9,1.5c-1,1-1.3,1.9-1.5,3.3c-1-2.1-1.2-4.2-0.8-6.2
			c0.6-2.1,1.3-3.9,2.7-5.2c1.3-1.3,2.9-2.5,4.4-3.1C68.9,501.8,69.5,503.8,70.5,505.5z M81.8,503c1.3,1.3,2.3,2.5,2.7,3.7
			c0.6,1.2,0.4,2.1-0.4,2.9c-0.8,0.8-1.9,1-3.1,0.6c-1.3-0.4-2.5-1.3-3.9-2.7c-1.3-1.3-2.3-2.7-3.1-4c-0.8-1.5-1.3-2.9-1.3-4.4
			C75.9,498.9,78.9,500.3,81.8,503z M68.2,513.2c1,0.2,2.1,0.8,3.1,1.9c1,1,1.7,1.9,2.1,3.1c0.4,1.2,0.2,2.1-0.4,2.7
			c-1.3,1.3-3.3,1-5.8-1c-1.2-1-1.9-2.1-2.1-3.3c-0.2-1.2,0-2.1,0.8-2.9C66.4,513.2,67.2,513,68.2,513.2z"/>
		<polygon id="polygon32" class="st0" points="102.8,493.7 120.1,476.2 117.6,473.9 103.4,488.2 89,474.1 86.1,477 		"/>
		<path id="path34" inkscape:connector-curvature="0" class="st0" d="M131.5,462.9c-0.2-1.9-1.3-3.9-3.3-5.8c-1.9-1.9-4-3.1-6.2-3.5
			c-2.1-0.4-3.9,0.2-5.4,1.7c-1.2,1.2-1.7,2.5-1.7,4l-0.2-0.2c-2.1-1.9-3.5-4-4.4-6.4c-1-2.1-1.3-4.2-1.2-6.2c0.2-1.9,1-3.7,2.3-4.8
			c1.5-1.7,3.5-2.1,5.8-1.7c2.1,0.6,4.8,2.1,7.7,5l13.1,12.9l2.9-3.1L127.7,442c-3.7-3.7-7.1-5.8-10.2-6.4c-3.1-0.6-6,0.6-8.7,3.3
			c-1.9,1.9-3.1,4.2-3.5,6.9c-0.4,2.7,0,5.4,1.2,8.3c1.2,2.9,3.3,5.8,6,8.5c7.5,7.5,13.3,9.2,16.9,5.6
			C131.3,466.8,131.9,465.1,131.5,462.9L131.5,462.9z M124.8,466.6c-1-0.2-2.1-0.8-3.3-1.7l0,0c-0.2-0.2-0.4-0.4-0.8-0.6
			c-1.2-1.2-1.9-2.3-2.1-3.3c-0.2-1.2,0-1.9,0.6-2.7c0.8-0.8,1.7-1,2.9-0.6c1.2,0.4,2.3,1.2,3.5,2.3c1.2,1.2,1.9,2.1,2.3,3.3
			c0.4,1.2,0.2,1.9-0.6,2.7C126.5,466.6,125.7,466.8,124.8,466.6L124.8,466.6z"/>
		<polygon id="polygon36" class="st0" points="142.9,419.6 139.8,422.7 154.2,436.9 145.2,446 130.7,431.8 127.8,434.8 144.6,451.4 
			159.6,436.2 		"/>
		<polygon id="polygon38" class="st0" points="162.1,400 146.5,416 163.3,432.5 166.3,429.4 151.9,415.4 157.9,409.2 172.3,423.5 
			175.2,420.4 161,406.1 164.6,402.5 		"/>
		<path id="path40" inkscape:connector-curvature="0" class="st0" d="M200.4,486.4c0.6,1.3,1.3,2.5,2.3,3.7c1.7,1.7,3.5,2.7,5.2,2.7
			c1.7,0.2,3.3-0.6,4.8-1.9c1.2-1.2,1.7-2.5,1.7-4c0-1.5-0.4-2.7-1.3-3.9c-0.6-0.6-1.3-1-2.1-1.2c-0.8-0.2-1.7-0.2-2.5,0
			c-1,0.2-1.7,0.8-2.5,1.5c-0.4,0.4-0.8,1-1,1.5s-0.4,1.2-0.4,1.5c-0.6-1-1-2.1-0.8-3.1c0.2-1.2,0.8-2.1,1.7-3.3
			c1.3-1.3,3.1-1.9,5-1.7c1.9,0.2,3.9,1.2,5.4,2.9c1.2,1.2,2.1,2.5,2.5,3.9c0.6,1.5,0.6,2.9,0.4,4.2c-0.2,1.3-0.8,2.5-1.7,3.5
			c-0.8,0.8-1.5,1.3-2.3,1.5c-0.8,0.2-1.7,0.4-2.7,0.4l-0.4,3.7c1.5,0,3.1-0.2,4.4-0.8s2.5-1.3,3.7-2.5c1.5-1.5,2.5-3.3,2.9-5.4
			c0.4-2.1,0.4-4-0.4-6.2c-0.6-2.1-1.7-3.9-3.5-5.6c-1.7-1.7-3.5-2.9-5.4-3.5c-1.9-0.6-3.7-0.8-5.6-0.2c-1.7,0.4-3.5,1.5-5,3.1
			c-1.5,1.5-2.3,2.9-2.7,4.6C199.8,483.5,200,485.1,200.4,486.4L200.4,486.4z M209.1,484.9c0.6,0,1.2,0.2,1.5,0.6
			c0.4,0.4,0.6,1,0.6,1.5s-0.2,1.2-0.8,1.5c-0.4,0.4-1,0.6-1.5,0.8c-0.6,0-1.2-0.2-1.5-0.6c-0.4-0.4-0.6-1-0.6-1.5s0.2-1.2,0.8-1.5
			C208.1,485.3,208.5,484.9,209.1,484.9z"/>
		<path id="path42" inkscape:connector-curvature="0" class="st0" d="M185.8,501.2c0.6,1.3,1.3,2.5,2.3,3.7c1.7,1.7,3.5,2.7,5.2,2.7
			c1.7,0.2,3.3-0.6,4.8-1.9c1.2-1.2,1.7-2.5,1.7-4c0-1.5-0.4-2.7-1.3-3.9c-0.6-0.6-1.3-1-2.1-1.2c-0.8-0.2-1.7-0.2-2.5,0
			c-1,0.2-1.7,0.8-2.5,1.5c-0.4,0.4-0.8,1-1,1.5c-0.2,0.6-0.4,1.2-0.4,1.5c-0.6-1-1-2.1-0.8-3.1c0.2-1.2,0.8-2.1,1.7-3.3
			c1.3-1.3,3.1-1.9,5-1.7c1.9,0.2,3.9,1.2,5.4,2.9c1.2,1.2,2.1,2.5,2.5,3.9c0.6,1.5,0.6,2.9,0.4,4.2c-0.2,1.3-0.8,2.5-1.7,3.5
			c-0.8,0.8-1.5,1.3-2.3,1.5c-0.8,0.2-1.7,0.4-2.7,0.4l-0.4,3.7c1.5,0,3.1-0.2,4.4-0.8c1.3-0.6,2.5-1.3,3.7-2.5
			c1.5-1.5,2.5-3.3,2.9-5.4c0.4-2.1,0.4-4-0.4-6.2c-0.6-2.1-1.7-3.9-3.5-5.6c-1.7-1.7-3.5-2.9-5.4-3.5c-1.9-0.6-3.7-0.8-5.6-0.2
			c-1.7,0.4-3.5,1.5-5,3.1c-1.5,1.5-2.3,2.9-2.7,4.6C185.2,498.4,185.2,499.9,185.8,501.2L185.8,501.2z M194.5,499.7
			c0.6,0,1.2,0.2,1.5,0.6c0.4,0.4,0.6,1,0.6,1.5s-0.2,1.2-0.8,1.5c-0.4,0.4-1,0.6-1.5,0.8c-0.6,0-1.2-0.2-1.5-0.6
			c-0.4-0.4-0.6-1-0.6-1.5s0.2-1.2,0.8-1.5C193.3,500.1,193.9,499.7,194.5,499.7z"/>
		<path id="path44" inkscape:connector-curvature="0" class="st0" d="M198.9,524.5c0.6-1.9,0.4-3.9-0.4-5.8l-3.9,2.1
			c0.4,1,0.4,2.1,0.2,3.3c-0.4,1.2-0.8,2.1-1.7,2.9c-1.7,1.7-3.9,2.5-6.2,2.1s-5.2-2.1-8.7-5.6c-2.7-2.5-4.2-5-4.6-7.1
			c-0.4-2.1,0.2-4.2,2.1-6c1.5-1.5,3.1-2.3,4.8-2.1c1.7,0.2,3.1,1,4.4,2.1c1.2,1.2,1.7,2.3,1.9,3.5s0,2.1-0.8,2.9
			c-0.4,0.4-1,0.8-1.5,1l1.3,3.5c1.3-0.4,2.3-1,3.3-1.9c1-1,1.5-2.1,1.9-3.5c0.2-1.3,0.2-2.7-0.4-4.2c-0.6-1.3-1.5-2.9-2.7-4
			c-1.2-1.2-2.7-2.1-4.2-2.7c-1.5-0.6-3.3-0.8-5.2-0.2c-1.9,0.4-3.7,1.5-5.4,3.3c-5.6,5.8-5,12.1,2.1,19.1
			c8.1,7.9,14.8,8.9,20.8,3.1C197.3,528.2,198.3,526.5,198.9,524.5z"/>
		<path id="path46" inkscape:connector-curvature="0" class="st0" d="M165,542.3l-0.4,3.7c1.5,0,3.1-0.2,4.4-0.8
			c1.3-0.6,2.5-1.3,3.7-2.5c1.5-1.5,2.5-3.3,2.9-5.4c0.4-2.1,0.4-4-0.4-6.2c-0.6-2.1-1.7-3.9-3.5-5.6c-1.7-1.7-3.5-2.9-5.4-3.5
			c-1.9-0.6-3.7-0.8-5.6-0.2c-1.7,0.4-3.5,1.5-5,3.1c-1.5,1.5-2.3,2.9-2.7,4.6c-0.4,1.5-0.2,3.1,0.2,4.4c0.6,1.3,1.3,2.5,2.3,3.7
			c1.7,1.7,3.5,2.7,5.2,2.7c1.7,0.2,3.3-0.6,4.8-1.9c1.2-1.2,1.7-2.5,1.7-4s-0.4-2.7-1.3-3.9c-0.6-0.6-1.3-1-2.1-1.2
			c-0.8-0.2-1.7-0.2-2.5,0c-1,0.2-1.7,0.8-2.5,1.5c-0.4,0.4-0.8,1-1,1.5s-0.4,1.2-0.4,1.5c-0.6-1-1-2.1-0.8-3.1
			c0.2-1.2,0.8-2.1,1.7-3.3c1.3-1.3,3.1-1.9,5-1.7c1.9,0.2,3.9,1.2,5.4,2.9c1.2,1.2,2.1,2.5,2.5,3.9c0.6,1.5,0.6,2.9,0.4,4.2
			c-0.2,1.3-0.8,2.5-1.7,3.5c-0.8,0.8-1.5,1.3-2.3,1.5C166.9,542.1,166,542.3,165,542.3L165,542.3z M162.1,532.4
			c0.6,0,1.2,0.2,1.5,0.6c0.4,0.4,0.6,1,0.6,1.5s-0.2,1.2-0.8,1.5c-0.4,0.4-1,0.6-1.5,0.8c-0.6,0-1.2-0.2-1.5-0.6
			c-0.4-0.4-0.6-1-0.6-1.5s0.2-1.2,0.8-1.5C161.2,532.6,161.5,532.4,162.1,532.4z"/>
		<path id="path48" inkscape:connector-curvature="0" class="st0" d="M160.8,555.7c1.3-1.3,1.9-2.7,2.1-4.2c0-1.5-0.4-2.9-1.5-4
			c-0.6-0.4-1-0.8-1.7-1.2c-0.6-0.2-1.3-0.4-2.1-0.4c0.2-1.2,0-2.3-0.4-3.5c-0.4-1.2-1.2-2.1-2.1-3.1c-1.5-1.5-3.1-2.3-5-2.5
			c-1.9-0.2-3.7,0-5.6,0.8c-1.9,0.8-3.7,1.9-5.2,3.7c-1.5,1.5-2.7,3.3-3.5,5.2s-1,3.9-0.8,5.6c0.2,1.9,1.2,3.5,2.7,5
			c1,1,1.9,1.5,3.1,1.9c1.2,0.4,2.3,0.6,3.5,0.4c0,0.8,0.2,1.3,0.4,2.1c0.4,0.6,0.6,1.2,1.2,1.7c1.2,1.2,2.5,1.7,4,1.5
			c1.5-0.2,3.1-0.8,4.2-2.1c0.6-0.8,1.2-1.3,1.5-2.3c0.4-0.8,0.6-1.7,0.6-2.5c0.8,0,1.7-0.2,2.5-0.6S160.2,556.3,160.8,555.7z
			 M146.9,554.2c-1,1-2.1,1.5-3.3,1.5c-1.2,0-2.1-0.6-3.1-1.5c-1.3-1.3-1.7-2.9-1.3-4.8c0.4-1.9,1.3-3.7,3.1-5.4
			c1.7-1.7,3.5-2.7,5.4-3.1c1.9-0.4,3.5,0,4.8,1.3c1,1,1.5,1.9,1.5,3.1s-0.4,2.3-1.3,3.3L146.9,554.2z M149.8,561.1
			c-0.6,0-1.2-0.2-1.7-0.6c-0.2-0.2-0.4-0.6-0.6-1c-0.2-0.4-0.2-0.8-0.2-1.2c0.6-0.4,1.3-1,1.9-1.5l1.5-1.5c0.2,0.2,0.4,0.4,1,0.8
			c0.8,0.8,1.2,1.5,1,2.3c0,0.8-0.4,1.5-1,2.1C151.1,560.7,150.4,561.1,149.8,561.1L149.8,561.1z M156.3,554.4c-0.8,0-1.5-0.2-2.3-1
			c-0.4-0.4-0.6-0.8-0.8-0.8l1.5-1.5c0.6-0.6,1.2-1.3,1.5-1.9c0.4,0,0.8,0,1.2,0.2c0.4,0.2,0.8,0.4,1,0.6c0.6,0.6,0.8,1.2,0.8,1.7
			s-0.4,1.3-1,1.9C157.7,554,157.1,554.4,156.3,554.4z"/>
		<path id="path50" inkscape:connector-curvature="0" class="st0" d="M142.3,565.9c0,0.8-0.2,1.3-0.8,1.9c-0.8,0.8-1.7,0.8-3.1,0.4
			s-3.1-1.7-5-3.5c-1.9-1.9-3.1-3.7-3.7-5c-0.4-1.3-0.4-2.5,0.4-3.1c0.6-0.6,1.2-0.8,1.9-0.8l-0.2-3.3c-1.7-0.2-3.3,0.4-4.4,1.7
			c-1,1-1.5,2.1-1.7,3.5c-0.2,1.3,0,2.9,0.8,4.6s2.1,3.5,3.9,5.4c1.9,1.9,3.7,3.1,5.4,3.9c1.7,0.8,3.3,1,4.6,0.6
			c1.3-0.2,2.5-1,3.5-1.9c1.2-1.2,1.7-2.7,1.7-4.4H142.3z"/>
		<path id="path52" inkscape:connector-curvature="0" class="st0" d="M186,454.5c-1-1.7-2.1-3.5-3.7-5c-2.1-2.1-4.4-3.3-6.5-3.7
			c-2.1-0.2-4,0.4-5.8,2.1c-1.5,1.5-2.3,3.5-1.9,5.6c0.2,2.1,1.5,4.2,3.7,6.4c3.5,3.5,7.3,5,11.4,4.6c-0.6,1.2-1.2,2.1-2.1,3.1
			c-2.1,2.1-4.2,3.1-6.7,3.1c-2.5,0-4.8-1.2-6.9-3.5c-1.5-1.5-2.5-3.1-2.7-4.8c-0.4-1.7,0-3.3,1-4.4l-2.9-2.1
			c-1.7,2.3-2.3,4.6-1.9,7.3c0.4,2.7,1.7,5,4,7.3c2.1,2.1,4.2,3.3,6.5,3.9c2.3,0.6,4.4,0.4,6.5-0.4c2.1-0.8,3.9-1.9,5.6-3.7
			c1.9-2.1,3.3-4.2,4-6.7c1.3-0.6,2.7-1.2,3.9-1.9c1.2-0.8,2.3-1.7,3.1-2.5c1.7-1.7,2.9-3.7,3.9-6c0.8-2.3,1-4.6,0.6-7.3
			c-0.6-2.5-1.9-4.8-4-7.1c-1.5-1.5-3.1-2.5-4.6-3.3c-1.5-0.8-3.1-1-4.6-1c-1.5,0.2-2.9,0.8-3.9,1.9c-1.5,1.5-2.1,3.1-1.9,5
			c0.2,1.9,1.2,3.9,2.9,5.6c1.2,1.2,2.5,1.9,3.7,2.5c1.3,0.4,2.5,0.6,3.7,0.2c1.2-0.2,2.1-0.8,2.9-1.5c1-1,1.3-1.9,1.5-3.3
			c1,2.1,1.2,4.2,0.8,6.2c-0.6,2.1-1.3,3.9-2.7,5.2c-1.3,1.3-2.9,2.5-4.4,3.1C187.3,457.9,186.8,456.2,186,454.5z M174.6,456.8
			c-1.3-1.3-2.3-2.5-2.7-3.7c-0.6-1.2-0.4-2.1,0.4-2.9c0.8-0.8,1.9-1,3.1-0.6c1.3,0.4,2.5,1.3,3.9,2.7c1.3,1.3,2.3,2.7,3.1,4
			c0.8,1.5,1.3,2.9,1.3,4.4C180.6,461,177.5,459.7,174.6,456.8z M188.1,446.8c-1-0.2-2.1-0.8-3.1-1.9c-1-1-1.7-1.9-2.1-3.1
			c-0.4-1.2-0.2-2.1,0.4-2.7c1.3-1.3,3.3-1,5.8,1c1.2,1,1.9,2.1,2.1,3.3c0.2,1.2,0,2.1-0.8,2.9C190,446.8,189.1,447,188.1,446.8z"/>
		<polygon id="polygon54" class="st0" points="153.5,466.2 136.3,483.5 138.8,486 153.1,471.6 167.3,485.8 170.2,482.8 		"/>
		<path id="path56" inkscape:connector-curvature="0" class="st0" d="M149.6,505.7c-1.2-2.9-3.3-5.8-6-8.5
			c-7.5-7.5-13.3-9.2-16.9-5.6c-1.5,1.5-2.1,3.3-1.9,5.4c0.2,1.9,1.3,3.9,3.3,5.8c1.9,1.9,4,3.1,6.2,3.5c2.1,0.4,3.9-0.2,5.4-1.7
			c1.2-1.2,1.7-2.5,1.7-4l0.2,0.2c2.1,1.9,3.5,4,4.4,6.4c1,2.1,1.3,4.2,1.2,6.2c-0.2,1.9-1,3.7-2.3,4.8c-1.5,1.7-3.5,2.1-5.8,1.7
			c-2.1-0.6-4.8-2.1-7.7-5l-13.1-12.9l-2.9,3.1l13.3,13.1c3.7,3.7,7.1,5.8,10.2,6.4s6-0.6,8.7-3.3c1.9-1.9,3.1-4.2,3.5-6.9
			C151.1,511.3,150.8,508.6,149.6,505.7L149.6,505.7z M134.2,502.4c-1.2-0.4-2.3-1.2-3.5-2.3s-1.9-2.1-2.3-3.3
			c-0.4-1.2-0.2-1.9,0.6-2.7c0.8-0.8,1.5-1,2.5-0.6c1,0.2,2.1,0.8,3.3,1.7l0,0c0.2,0.2,0.4,0.4,0.8,0.6c1.2,1.2,1.9,2.3,2.1,3.3
			c0.2,1.2,0,1.9-0.6,2.7C136.3,502.6,135.4,502.8,134.2,502.4L134.2,502.4z"/>
		<polygon id="polygon58" class="st0" points="113.6,540.1 116.5,537.2 102.2,523 111.3,513.8 125.5,528 128.6,524.9 111.7,508.4 
			96.7,523.6 		"/>
		<polygon id="polygon60" class="st0" points="94.2,559.8 109.8,544 93,527.4 90.1,530.3 104.4,544.6 98.4,550.5 84.1,536.5 
			81.1,539.4 95.5,553.6 91.7,557.5 		"/>
	</g>
	<g class="st1">
		<path d="M180.9,800.7c0.1,0.1,0.2,0.4,0.2,0.8h-8.9v-1h2.5l-2.8-7.1h-7.5l-2.7,7.1h1.9c0.4,0,0.6,0.1,0.7,0.2
			c0.1,0.1,0.2,0.4,0.2,0.8h-6.6v-1h2.3l8.1-21h2.1l8.5,21h1.2C180.5,800.5,180.8,800.6,180.9,800.7z M171.5,792.3l-3.3-8.7
			l-3.3,8.7H171.5z"/>
		<path d="M188.4,795v5.5h1.8c0.4,0,0.6,0.1,0.7,0.2c0.1,0.1,0.2,0.4,0.2,0.8h-9.2v-1c1,0,1.7-0.1,2.1-0.4c0.4-0.3,0.6-0.8,0.6-1.7
			v-19.9h-2.8v-0.9h6.5v15.9l7.2-6.8h-2.7v-1h6.2c0,0.4-0.1,0.6-0.2,0.8c-0.1,0.1-0.4,0.2-0.8,0.2c-0.5,0-0.9,0.1-1.2,0.3
			c-0.3,0.2-0.8,0.6-1.4,1.1l-3.1,2.9l5.9,9.5h1c0.4,0,0.6,0.1,0.7,0.2c0.1,0.1,0.2,0.4,0.2,0.8l-5.5,0l-4.8-8L188.4,795z"/>
		<path d="M213.5,801.5l-0.2-3.4c-0.5,1.2-1.3,2.1-2.2,2.8c-1,0.7-2,1-3.2,1c-3.5,0-5.2-2.1-5.2-6.2v-9h-2.5v-1h6.2v10.5
			c0,1.3,0.3,2.3,0.8,2.9c0.6,0.6,1.3,0.9,2.2,0.9c0.6,0,1.2-0.2,1.8-0.6c0.6-0.4,1-0.9,1.4-1.6c0.4-0.7,0.6-1.6,0.6-2.6l0-8.6h-2.4
			v-1h6.1v14.8h1.5c0.4,0,0.6,0.1,0.7,0.2c0.1,0.1,0.2,0.4,0.2,0.8H213.5z"/>
		<path d="M234.3,786.1c0.5,0.4,0.7,1,0.7,1.7c0,0.5-0.2,1-0.5,1.4c-0.4,0.4-0.8,0.6-1.4,0.6c-0.5,0-0.8-0.1-1.1-0.3
			c-0.2-0.2-0.5-0.6-0.8-1c-0.2-0.3-0.4-0.6-0.5-0.7c-0.1-0.2-0.3-0.2-0.6-0.2c-0.3,0-0.6,0.2-1.1,0.5c-0.4,0.4-0.8,0.9-1.1,1.7
			c-0.3,0.8-0.6,1.7-0.7,2.8v8h2.7c0.3,0,0.6,0.1,0.7,0.2c0.1,0.1,0.2,0.4,0.2,0.8h-9.7v-1c0.9,0,1.6-0.1,1.9-0.4
			c0.4-0.3,0.5-0.8,0.5-1.7v-11.7h-2.5v-1h5.9l0.2,3.5c0.5-1.2,1.2-2.1,2.2-2.8c1-0.7,2-1,3-1C233.2,785.5,233.8,785.7,234.3,786.1z
			"/>
		<path d="M248.6,801.5l-0.2-3.4c-0.5,1.2-1.3,2.1-2.2,2.8c-1,0.7-2,1-3.2,1c-3.5,0-5.2-2.1-5.2-6.2v-9h-2.5v-1h6.2v10.5
			c0,1.3,0.3,2.3,0.8,2.9c0.6,0.6,1.3,0.9,2.2,0.9c0.6,0,1.2-0.2,1.8-0.6c0.6-0.4,1-0.9,1.4-1.6s0.6-1.6,0.6-2.6l0-8.6h-2.4v-1h6.1
			v14.8h1.5c0.4,0,0.6,0.1,0.7,0.2c0.1,0.1,0.2,0.4,0.2,0.8H248.6z"/>
		<path d="M269.5,800.2c-1.7-1.1-3-2.5-3.9-4.2c-0.9-1.8-1.3-3.6-1.3-5.6c0-2,0.4-3.8,1.3-5.5s2.2-3.1,3.9-4.2
			c1.7-1.1,3.8-1.6,6.2-1.6c1.4,0,2.8,0.2,4,0.6s2.3,0.8,3.1,1.3c0-0.7,0-1.2,0.2-1.4c0.2-0.2,0.5-0.3,0.9-0.3l0.1,7h-1.1
			c-0.6-2.1-1.4-3.6-2.6-4.6c-1.1-1-2.6-1.5-4.3-1.5c-2.2,0-3.9,0.9-5.1,2.6c-1.2,1.7-1.9,4.3-1.9,7.6c0,3.3,0.6,5.9,1.7,7.7
			c1.1,1.8,2.8,2.7,5.2,2.7c1.8,0,3.3-0.5,4.5-1.5c1.2-1,2.1-2.6,2.7-4.7h1.1v7.1c-0.5,0-0.8-0.1-1-0.3c-0.2-0.2-0.2-0.7-0.2-1.4
			c-2.3,1.3-4.7,1.9-7.2,1.9C273.3,801.9,271.2,801.3,269.5,800.2z"/>
		<path d="M301.8,797.9c-0.7,1.3-1.7,2.3-3,3c-1.3,0.7-2.6,1-4.2,1c-1.5,0-2.9-0.3-4.1-1c-1.2-0.7-2.2-1.7-2.9-3
			c-0.7-1.3-1.1-2.7-1.1-4.4c0-1.6,0.4-3,1.1-4.3c0.7-1.2,1.8-2.2,3-2.8c1.3-0.7,2.7-1,4.2-1s2.9,0.3,4.1,1c1.2,0.7,2.2,1.6,2.9,2.8
			c0.7,1.2,1.1,2.7,1.1,4.3C302.9,795.1,302.6,796.6,301.8,797.9z M297.9,799c0.6-1.3,1-3.1,1-5.6c0-2.4-0.3-4.2-0.9-5.4
			c-0.6-1.2-1.7-1.8-3.2-1.8c-1.5,0-2.5,0.6-3.2,1.9c-0.6,1.2-1,3.1-1,5.5c0,2.4,0.3,4.2,0.9,5.5c0.6,1.2,1.7,1.8,3.2,1.8
			C296.2,800.9,297.3,800.3,297.9,799z"/>
		<path d="M305.1,801.5v-1c1.1,0,1.8-0.1,2.2-0.4c0.4-0.3,0.6-0.8,0.6-1.7v-19.9h-2.8v-0.9h6.5v22.9h1.9c0.3,0,0.6,0.1,0.7,0.2
			s0.2,0.4,0.2,0.8H305.1z"/>
		<path d="M316.1,801.5v-1c1.1,0,1.8-0.1,2.2-0.4c0.4-0.3,0.6-0.8,0.6-1.7v-19.9h-2.8v-0.9h6.5v22.9h1.9c0.3,0,0.6,0.1,0.7,0.2
			s0.2,0.4,0.2,0.8H316.1z"/>
		<path d="M339.3,799.9c0.9-0.6,1.5-1.4,2-2.4l0.9,0.3c-0.5,1.3-1.3,2.3-2.5,3c-1.1,0.7-2.5,1-4.1,1c-1.5,0-2.8-0.3-4-0.9
			c-1.2-0.6-2.2-1.6-2.9-2.8c-0.7-1.2-1.1-2.7-1.1-4.5c0-1.6,0.3-3.1,1-4.3s1.6-2.2,2.8-2.9c1.2-0.7,2.6-1,4.2-1
			c1.3,0,2.5,0.2,3.5,0.6c1.1,0.4,1.9,1,2.5,1.8c0.6,0.8,0.9,1.7,0.9,2.7c0,1.2-0.5,2-1.7,2.4s-2.9,0.6-5.3,0.6l-3.9-0.1
			c0.1,4.9,1.7,7.4,4.7,7.4C337.4,800.8,338.4,800.5,339.3,799.9z M332.8,787.8c-0.7,1-1.1,2.5-1.2,4.6l3.1,0.1c1.4,0,2.4-0.1,3-0.4
			c0.6-0.3,0.8-1,0.8-1.9c0-1.2-0.3-2.1-0.8-2.8c-0.5-0.7-1.3-1.1-2.3-1.1C334.5,786.3,333.6,786.8,332.8,787.8z"/>
		<path d="M356.3,785.9c1,0.4,1.7,0.9,2.3,1.5c0.5,0.6,0.8,1.2,0.8,1.9c0,0.5-0.2,0.9-0.5,1.2c-0.3,0.3-0.8,0.5-1.4,0.5
			c-0.8,0-1.3-0.2-1.5-0.6c-0.2-0.4-0.4-0.9-0.6-1.7c-0.1-0.8-0.3-1.5-0.6-1.9c-0.3-0.4-0.9-0.6-1.8-0.6c-2.7,0-4.1,2.5-4.1,7.4
			c0,2.4,0.4,4.3,1.2,5.4c0.8,1.2,1.9,1.7,3.3,1.7c1.2,0,2.3-0.3,3.2-0.9c0.9-0.6,1.6-1.4,2.1-2.4l1,0.3c-0.5,1.3-1.4,2.3-2.6,3
			c-1.2,0.7-2.6,1-4.1,1c-1.5,0-2.9-0.3-4.1-0.9c-1.2-0.6-2.2-1.5-2.9-2.8s-1.1-2.7-1.1-4.4c0-1.7,0.3-3.1,1-4.4
			c0.7-1.3,1.6-2.3,2.9-2.9c1.2-0.7,2.6-1,4.2-1C354.2,785.3,355.3,785.5,356.3,785.9z"/>
		<path d="M372.3,797.6c-0.3,1.5-0.8,2.6-1.5,3.3c-0.7,0.6-1.7,1-2.9,1c-1.4,0-2.5-0.4-3.4-1.2c-0.9-0.8-1.4-2.2-1.4-4.1v-9.8h-2.5
			v-0.9h2.5v-3.5l3.7-0.8v4.3h5.3v0.9h-5.3V798c0,0.9,0.2,1.6,0.5,2.1c0.3,0.5,0.8,0.7,1.4,0.7c1.2,0,2.1-1.1,2.6-3.3L372.3,797.6z"
			/>
		<path d="M373.5,801.5v-1c0.9,0,1.6-0.1,2-0.4c0.4-0.3,0.6-0.8,0.6-1.7v-11.7h-2.5v-1h6.2v14.8h1.6c0.4,0,0.6,0.1,0.7,0.2
			s0.2,0.4,0.2,0.8H373.5z M376.1,782.4c-0.5-0.5-0.7-1-0.7-1.7c0-0.7,0.2-1.2,0.7-1.7c0.5-0.5,1-0.7,1.7-0.7c0.6,0,1.2,0.2,1.7,0.7
			c0.5,0.5,0.7,1,0.7,1.7c0,0.7-0.2,1.2-0.7,1.7c-0.5,0.5-1,0.7-1.7,0.7C377.1,783.1,376.5,782.8,376.1,782.4z"/>
		<path d="M399.4,785.8c0,0.4,0,0.7-0.1,0.8s-0.3,0.1-0.7,0.1s-0.6,0.1-0.8,0.3s-0.4,0.5-0.6,0.9l-5.2,13.8H391
			c-0.5,0-0.8-0.1-1.1-0.2c-0.3-0.1-0.5-0.4-0.7-0.7c-0.2-0.4-0.5-0.9-0.8-1.7l-4.5-12.3h-1.5v-0.9h7.8v0.9h-2.5l4.4,11.8l4.5-11.8
			h-2.9v-0.9H399.4z"/>
		<path d="M411.7,799.9c0.9-0.6,1.5-1.4,2-2.4l0.9,0.3c-0.5,1.3-1.3,2.3-2.5,3c-1.1,0.7-2.5,1-4.1,1c-1.5,0-2.8-0.3-4-0.9
			c-1.2-0.6-2.2-1.6-2.9-2.8c-0.7-1.2-1.1-2.7-1.1-4.5c0-1.6,0.3-3.1,1-4.3s1.6-2.2,2.8-2.9c1.2-0.7,2.6-1,4.2-1
			c1.3,0,2.5,0.2,3.5,0.6c1.1,0.4,1.9,1,2.5,1.8c0.6,0.8,0.9,1.7,0.9,2.7c0,1.2-0.5,2-1.7,2.4s-2.9,0.6-5.3,0.6l-3.9-0.1
			c0.1,4.9,1.7,7.4,4.7,7.4C409.9,800.8,410.9,800.5,411.7,799.9z M405.3,787.8c-0.7,1-1.1,2.5-1.2,4.6l3.1,0.1c1.4,0,2.4-0.1,3-0.4
			c0.6-0.3,0.8-1,0.8-1.9c0-1.2-0.3-2.1-0.8-2.8c-0.5-0.7-1.3-1.1-2.3-1.1C406.9,786.3,406,786.8,405.3,787.8z"/>
	</g>
	<g class="st1">
		<path d="M172.1,844.9c2.2-0.3,4-1,5.4-2v1.3c-1.4,0.9-3.2,1.5-5.4,1.9v8.7h-1.2v-8.6c-0.9,0.1-1.9,0.2-3.1,0.2
			c-3.2,0-5.6-0.6-7.4-1.8c-1.7-1.2-2.6-2.8-2.6-4.8c0-1.8,0.6-3.2,1.8-4.3c1.2-1.1,2.8-1.6,4.9-1.6h4.5c0-0.9-0.3-1.6-0.8-2.3
			c-0.5-0.6-1.2-1-2-1c-0.6,0-1.1,0.1-1.3,0.3s-0.5,0.5-0.7,0.9c-0.4,0.8-1,1.1-1.8,1.1c-0.4,0-0.8-0.1-1.2-0.4
			c-0.3-0.3-0.5-0.7-0.5-1.1c0-0.8,0.4-1.4,1.2-1.9c0.8-0.5,1.8-0.7,3-0.7c1.7,0,3,0.5,4,1.5c1,1,1.4,2.4,1.4,4.2v0.2h-2.6
			c-2,0-3.4,0.5-4.1,1.6c-0.7,1-1.1,2.1-1.1,3.3c0,1.6,0.6,2.9,1.7,3.9c1.1,1,2.8,1.5,4.9,1.5l1.7,0v-11.3c0-1.6,0.4-2.7,1.1-3.5
			c0.6-0.7,1.3-1.1,2.2-1.3l0.9,0.4l-0.4,0.2c-0.2,0.1-0.3,0.4-0.3,0.7c0,0.2,0.1,0.5,0.3,0.7c0.2,0.2,0.5,0.5,0.9,0.8
			c0.7,0.5,1.2,1,1.6,1.5s0.6,1.2,0.6,1.9c0,1-0.4,1.8-1.2,2.4s-1.7,0.9-2.8,0.9c-0.5,0-1-0.1-1.6-0.2V844.9z M172.4,831.8
			c-0.2,0.5-0.2,1.2-0.2,1.9v3.2c0.2,0.1,0.4,0.1,0.8,0.1c0.6,0,1-0.2,1.4-0.6c0.4-0.4,0.6-1,0.6-1.7c0-0.5,0-0.9-0.1-1.2
			c-0.1-0.3-0.2-0.7-0.5-1c-0.1-0.1-0.2-0.2-0.3-0.5c-0.2-0.2-0.3-0.5-0.4-0.7c-0.1-0.2-0.1-0.5-0.1-0.8v-0.1
			C172.9,830.8,172.5,831.3,172.4,831.8z"/>
		<path d="M208.3,849c0,0.8-0.2,1.5-0.6,2.3c-0.4,0.7-1.1,1.4-1.9,1.9c-0.8,0.5-1.9,0.8-3.1,0.8c-1.5,0-2.8-0.4-3.8-1.2
			c-1.1-0.8-1.6-1.9-1.6-3.2c0-1,0.3-1.8,0.8-2.5c0.5-0.7,1.2-1.2,2.1-1.6c0.5-0.1,1-0.2,1.5-0.2c0.8,0,1.5-0.4,2.1-1.3
			c0.5-0.8,0.8-1.9,0.8-3.1c0-1.9-0.5-3.5-1.4-4.8c-0.9-1.3-2.1-2.3-3.6-3c-1.5-0.7-3.1-1-4.8-1c-1.3,0-2.6,0.2-3.7,0.6
			c-1.1,0.4-2.1,0.9-2.8,1.5c0.9-0.2,2.1-0.4,3.5-0.4c2.5,0,4.5,0.7,6.1,2c1.6,1.3,2.3,3.2,2.3,5.6c0,1.3-0.4,2.5-1.2,3.5
			c-0.8,1-2,1.5-3.5,1.5c-1.8,0-3.2-0.9-4-2.6c-0.4,0.8-0.8,1.5-1.5,1.9c-0.6,0.4-1.4,0.7-2.2,0.7c-1,0-1.7-0.2-2.2-0.5
			c-0.5-0.4-0.9-0.8-1.3-1.5c-0.2-0.3-0.4-0.6-0.6-0.7c-0.2-0.1-0.4-0.2-0.6-0.2c-0.4,0-0.8,0.2-1.1,0.6c-0.3,0.4-0.4,1-0.5,1.8
			l-1.1-0.4c0.2-1.3,0.6-2.8,1.3-4.4c0.7-1.6,1.4-3,2.2-4c0.5-0.8,1-1.4,1.5-1.9c0.5-0.5,0.8-0.8,0.9-1c0.6-0.7,0.9-1.3,0.9-2
			c0-0.4-0.1-0.8-0.3-1.1c-0.2-0.3-0.6-0.4-1-0.4c-0.3,0-0.6,0.1-0.9,0.3c-0.3,0.2-0.5,0.4-0.6,0.8c-0.1,0.2-0.1,0.5-0.2,0.8
			c0,0.3-0.1,0.5-0.2,0.8c-0.1,0.3-0.3,0.6-0.6,0.8c-0.3,0.2-0.6,0.3-0.9,0.3c-0.6,0-1.1-0.2-1.3-0.6c-0.2-0.4-0.4-0.8-0.4-1.1
			c0-1.1,0.4-1.9,1.3-2.7c0.9-0.7,1.9-1.1,3-1.1c1,0,1.8,0.3,2.4,0.8c0.6,0.6,0.9,1.3,0.9,2.2c0,0.2,0,0.5,0,0.7
			c1.2-1.2,2.7-2.1,4.3-2.7s3.3-1,5-1c1.9,0,3.7,0.4,5.2,1.3c1.5,0.8,2.7,2,3.5,3.5c0.8,1.5,1.2,3.1,1.2,4.9c0,1.3-0.2,2.6-0.7,3.8
			c-0.5,1.2-1.1,2.2-2,2.9c-0.9,0.7-1.8,1.1-3,1.1c-0.6,0-1.1,0.1-1.6,0.2c-0.4,0.2-0.7,0.4-1,0.8c-0.3,0.3-0.4,0.7-0.4,1.2
			c0,0.8,0.4,1.4,1.1,1.8c0.8,0.4,1.7,0.7,2.9,0.7c1.2,0,2.2-0.3,3-0.8c0.8-0.5,1.2-1.3,1.2-2.1l0-0.4h1.2
			C208.3,847.9,208.3,848.3,208.3,849z M186.7,835.4c-0.6,0.5-1.3,1.3-2,2.4c-0.5,0.8-0.9,1.4-1.2,1.9c-0.3,0.5-0.5,1.1-0.8,1.7
			c0.4-0.3,0.8-0.4,1.1-0.4c0.3,0,0.6,0.1,0.9,0.2c0.3,0.1,0.5,0.2,0.5,0.2c0.5,0.2,0.9,0.3,1.2,0.4c0.3,0.1,0.7,0.1,1.2,0.1
			c1,0,1.7-0.3,2.2-0.8c0.5-0.5,0.8-1.4,0.8-2.5v0h1.1v0c0,1.2,0.2,2.1,0.7,2.6c0.5,0.5,1.3,0.7,2.3,0.7c1,0,1.7-0.3,2.2-0.9
			c0.5-0.6,0.8-1.3,0.8-2.1c0-1.3-0.6-2.3-1.7-3.1c-1.1-0.8-2.7-1.2-4.7-1.2C189.4,834.7,187.8,834.9,186.7,835.4z"/>
		<path d="M240.6,850.5c-1,1.1-2.4,1.6-4.1,1.6c-1.7,0-3-0.6-4-1.8c-1-1.2-1.5-2.8-1.5-4.7c0-2.3,0.6-4.4,1.7-6.3
			c1.1-1.9,2.5-3.8,4-5.5h-8.9c0.4,1,0.7,2.1,0.7,3.5c0,1.6-0.4,3.1-1.2,4.5c-0.8,1.4-1.9,2.5-3.4,3.3c-1.4,0.8-3,1.2-4.8,1.2
			c-1.6,0-3.1-0.4-4.4-1.1c-1.3-0.7-2.4-1.7-3.1-3c-0.8-1.3-1.1-2.7-1.1-4.4c0-2.1,0.5-3.8,1.6-5.1c1-1.3,2.5-2.4,4.2-3.1l2-0.7
			c1.4-0.5,2.6-1,3.6-1.5c1-0.5,2-1.1,3-1.8c0.6-0.5,1.3-1.1,2-2c0.5-0.6,0.8-1,1.1-1.2c0.3-0.2,0.7-0.4,1.1-0.4
			c0.3,0,0.6,0.1,0.9,0.3c0.2,0.2,0.4,0.4,0.4,0.8c0,1.1-1.1,2.3-3.4,3.6c-0.7,0.4-1.7,0.9-2.9,1.3c-1.2,0.5-2.2,0.9-3.1,1.1
			c0.9,0,1.9,0.3,2.9,0.7c1,0.5,1.9,1.1,2.7,2c0.3,0.4,0.6,0.7,0.9,1.1h11c0,0.1-0.1,0.3-0.1,0.7c-1.1,1.7-2,3.4-2.5,5.1
			c-0.5,1.6-0.8,3.3-0.8,4.9s0.3,3,1,4.1c0.7,1.1,1.6,1.8,2.8,2.1c0.4,0.1,1,0.1,1.6,0.1L240.6,850.5z M223.8,840.2
			c1.4-1.2,2.1-2.8,2.1-4.8c0-1.7-0.6-3.1-1.7-4c-1.1-1-2.6-1.5-4.5-1.5c-1.2,0-2.3,0.3-3.5,0.8c-1.2,0.6-2.2,1.3-2.9,2.3
			c-0.8,1-1.1,2.1-1.1,3.4c0,1.6,0.6,2.9,1.7,4c1.1,1.1,2.7,1.6,4.8,1.6C220.7,842,222.5,841.4,223.8,840.2z"/>
		<path d="M274.1,836.5c0.6,1,0.9,2,0.9,3.1c0,2.1-0.6,3.7-1.8,4.9c-1.2,1.2-2.8,1.7-4.9,1.7c-1.3,0-2.3-0.3-3.2-0.9
			c-0.9-0.6-1.5-1.4-1.9-2.4c-0.9,2.2-2.6,3.3-5.2,3.3c-1.2,0-2.3-0.3-3.2-0.9c-0.9-0.6-1.6-1.3-2.1-2.3c-0.5-0.9-0.7-1.9-0.7-3
			c0-1.3,0.3-2.4,0.9-3.2s1.4-1.5,2.4-1.9c-2.9,0.1-4.6,0.1-5.2,0.2v-1.3h11v-0.1c0-0.9-0.3-1.7-0.8-2.3c-0.5-0.6-1.2-0.9-1.8-0.9
			c-0.7,0-1.2,0.1-1.5,0.4c-0.3,0.3-0.5,0.6-0.7,1.1c-0.3,0.9-0.9,1.3-1.7,1.3c-0.4,0-0.8-0.1-1-0.4c-0.3-0.3-0.4-0.6-0.4-1.1
			c0-0.9,0.4-1.6,1.2-2.1c0.8-0.5,1.8-0.8,3-0.8c1.7,0,2.9,0.5,3.8,1.6c0.8,1,1.3,2.3,1.3,3.9v0.6h-3.5c-1.2,0-2.3,0.3-3.3,0.9
			c-1,0.6-1.5,1.5-1.5,2.6c0,1,0.4,1.9,1.2,2.5c0.8,0.7,1.9,1,3.3,1c1.2,0,2.1-0.2,2.9-0.7c0.8-0.5,1.1-1.2,1.1-2v-0.9h1.1v0.9
			c0,0.9,0.4,1.6,1.2,2.1c0.8,0.5,1.9,0.7,3.2,0.7c1.4,0,2.6-0.3,3.4-1c0.9-0.7,1.3-1.6,1.3-2.8c0-2.4-1.7-3.6-5.1-3.6
			c-1.3,0-2.5,0.1-3.8,0.4v-0.4c0-1.7,0.4-3.1,1.3-4.1c0.9-1,2.1-1.6,3.6-1.6c1.2,0,2.1,0.3,2.9,0.8c0.8,0.5,1.2,1.4,1.2,2.5
			c0,0.4-0.1,0.8-0.3,1.2c-0.2,0.4-0.5,0.7-0.8,0.9C272.8,834.8,273.6,835.5,274.1,836.5z M271.4,832.5c0-0.6-0.3-1-0.8-1.3
			c-0.5-0.3-1.2-0.5-2-0.5c-1,0-1.8,0.3-2.4,0.8c-0.6,0.5-0.9,1.3-1,2.3c0.6-0.2,1.4-0.2,2.5-0.2c1.3,0,2.3,0.1,3.1,0.4
			C271.2,833.5,271.4,833,271.4,832.5z"/>
		<path d="M282,846.3c-1.3,0-2.4-0.4-3.2-1.2c-0.8-0.8-1.2-1.9-1.2-3.2c0-0.4,0-0.7,0-0.9h1.1c0,0.1,0,0.3,0,0.6
			c0,0.9,0.2,1.6,0.6,2c0.4,0.4,0.9,0.6,1.5,0.6c0.9,0,1.5-0.5,2-1.4c0.4-0.9,0.7-2.5,0.7-4.6c0-4-0.9-6-2.7-6c-0.5,0-1,0.2-1.5,0.7
			c-0.4,0.5-0.6,1.1-0.6,2c0,0.2,0,0.4,0,0.6h-1.1c0-0.2,0-0.5,0-0.9c0-1.3,0.4-2.4,1.3-3.2c0.9-0.8,1.9-1.2,3.1-1.2
			c1.8,0,3.2,0.7,4.1,2.1c0.9,1.4,1.4,3.4,1.4,6s-0.5,4.6-1.4,6C285.2,845.6,283.8,846.3,282,846.3z"/>
		<path d="M312.1,838v17.5h-1c-0.4-0.9-1-1.7-1.9-2.4c-0.9-0.7-1.9-1.1-3.1-1.1c-0.8,0-1.6,0.1-2.3,0.4s-1.7,0.7-2.8,1.3
			c-1.1,0.6-2.1,1.1-2.9,1.4c-0.8,0.3-1.7,0.5-2.6,0.5c-1.2,0-2.2-0.3-3.1-1c-0.9-0.7-1.3-1.6-1.3-2.9c0-1.1,0.4-2.1,1.2-2.8
			c0.8-0.7,1.8-1.1,2.8-1.1c1.7,0,3,0.7,3.9,2l-1.2,0.4c-0.6-0.9-1.4-1.3-2.5-1.3c-0.8,0-1.4,0.2-1.9,0.7c-0.5,0.4-0.8,1-0.8,1.6
			c0,0.7,0.3,1.2,0.8,1.6c0.5,0.4,1.2,0.6,1.9,0.6c0.7,0,1.3-0.1,1.9-0.3c0.6-0.2,1.5-0.5,2.7-0.9c1.1-0.4,2.2-0.8,3.1-1
			c0.9-0.2,1.8-0.4,2.8-0.4c1,0,1.9,0.2,2.7,0.6c0.9,0.4,1.6,0.9,2.1,1.5v-11.4c-1,1.5-2.2,2.7-3.8,3.5c-1.6,0.8-3.4,1.2-5.4,1.2
			c-2.2,0-4.1-0.4-5.8-1.2c-1.7-0.8-3-2-3.9-3.5c-0.9-1.5-1.4-3.3-1.4-5.3c0-1.2,0.2-2.4,0.6-3.5c0.4-1.1,1-2,1.7-2.7
			c0.7-0.7,1.6-1,2.6-1c0.9,0,1.5,0.2,1.7,0.7c0.3,0.4,0.4,1,0.4,1.6c0,0.4,0,0.8-0.1,1.2c-0.1,0.8-0.1,1.3-0.1,1.6
			c0,1,0.4,1.8,1.1,2.4c0.7,0.6,1.6,0.9,2.8,0.9c1.2,0,2.2-0.3,2.9-1c0.7-0.7,1.1-1.6,1.1-2.7c0-0.7-0.2-1.4-0.6-1.9
			c0.1,0.3,0.1,0.6,0.1,0.9c0,0.8-0.3,1.5-0.8,2c-0.5,0.6-1.3,0.8-2.2,0.8c-1,0-1.7-0.3-2.3-1c-0.6-0.7-0.9-1.4-0.9-2.2
			c0-0.9,0.3-1.7,1-2.3c0.7-0.6,1.5-0.9,2.4-0.9c1.4,0,2.5,0.4,3.3,1.3c0.8,0.9,1.2,2,1.2,3.5c0,1.4-0.5,2.6-1.5,3.4
			c-1,0.9-2.2,1.3-3.7,1.3c-1.4,0-2.6-0.4-3.6-1.1s-1.6-1.8-1.6-3.2c0-0.6,0.1-1.2,0.2-1.8c0.1-0.5,0.1-0.9,0.1-1.3
			c0-0.7-0.3-1.1-1-1.1c-0.9,0-1.6,0.5-2.1,1.4c-0.5,0.9-0.8,2-0.8,3.3c0,2.3,0.8,4.1,2.5,5.5c1.7,1.3,3.8,2,6.4,2
			c1.7,0,3.3-0.4,4.7-1.1c1.4-0.7,2.5-1.7,3.2-3c0.8-1.3,1.2-2.8,1.2-4.6c0-1.7-0.4-3.2-1.1-4.7c-0.7-1.5-1.8-2.6-3.2-3.5
			c-1.4-0.9-3-1.3-4.8-1.3c-3.2,0-5.8,1.2-7.6,3.6h-1.3c1-1.5,2.3-2.6,3.8-3.5c1.6-0.8,3.3-1.2,5.1-1.2c2.1,0,4,0.5,5.7,1.6
			c1.7,1,3.1,2.5,4.1,4.3c1,1.8,1.5,3.8,1.5,5.9C312.5,835.8,312.3,836.9,312.1,838z M303,833.5c0.4-0.4,0.6-0.8,0.6-1.3
			c0-0.5-0.2-1-0.6-1.4c-0.4-0.4-0.8-0.6-1.4-0.6c-0.5,0-1,0.2-1.3,0.6c-0.4,0.4-0.6,0.8-0.6,1.4c0,0.5,0.2,1,0.6,1.3
			c0.4,0.4,0.8,0.6,1.3,0.6C302.2,834.1,302.6,833.9,303,833.5z"/>
		<path d="M337.4,832.7c0.8,1.5,1.2,3.2,1.2,5.1c0,1.6-0.4,3-1.1,4.3c-0.7,1.3-1.7,2.3-3,3.1s-2.7,1.1-4.3,1.1c-0.5,0-1.1,0-1.6-0.1
			V845c0.3,0.1,0.8,0.1,1.4,0.1c1.8,0,3.1-0.6,4.1-1.8c1-1.2,1.4-2.6,1.4-4.3c0-1.7-0.5-3.2-1.4-4.5c-0.9-1.3-2.2-1.9-3.9-1.9
			c-2.5,0-4.1,1.4-4.9,4.3c0.4-0.2,0.8-0.3,1.1-0.3c0.8,0,1.4,0.4,1.9,1.1c0.5,0.7,0.7,1.6,0.7,2.7c0,1.8-0.6,3.2-1.9,4.3
			c-1.2,1-2.8,1.6-4.8,1.6c-2,0-3.6-0.6-4.8-1.7c-1.3-1.1-1.9-2.6-1.9-4.5c0-1.8,0.6-3.2,1.8-4.3c1.2-1.1,2.7-1.6,4.6-1.6h0.5
			c0-0.8-0.2-1.6-0.7-2.2c-0.4-0.6-1-0.9-1.6-0.9c-0.7,0-1.2,0.4-1.5,1.1c-0.1,0.4-0.3,0.6-0.6,0.9c-0.3,0.2-0.6,0.3-1,0.3
			c-0.4,0-0.8-0.1-1-0.4c-0.3-0.3-0.4-0.7-0.4-1.1c0-0.7,0.3-1.3,0.9-1.9c0.6-0.6,1.4-0.9,2.5-0.9c1.5,0,2.7,0.6,3.5,1.8
			c0.8,1.2,1.3,2.6,1.3,4.4c-0.6-0.1-1-0.1-1.3-0.1c-1.6,0-2.8,0.3-3.6,0.9c-0.9,0.6-1.3,1.5-1.3,2.5c0,1.1,0.5,2,1.5,2.6
			c1,0.6,2.2,0.9,3.6,0.9c1.2,0,2.3-0.2,3.2-0.7c0.9-0.5,1.4-1.2,1.4-2.1c0-0.5-0.1-0.8-0.3-1.1c-0.2-0.3-0.5-0.4-0.8-0.4
			c-0.6,0-1,0.4-1.3,1.2l-1-0.4c0.1-1.9,0.6-3.6,1.5-5.2c0.9-1.6,1.9-2.8,3.3-3.5c-2.7-0.2-4.7-0.7-6.2-1.6c-1.4-0.9-2.1-2-2.1-3.4
			c0-1.7,0.8-3,2.3-3.9c1.6-0.9,3.5-1.3,5.7-1.3c1.4,0,2.8,0.2,4.1,0.7c1.3,0.4,2.3,1.1,3.1,1.9c0.8,0.9,1.2,1.9,1.2,3.1
			c0,1-0.2,1.8-0.7,2.5s-1.1,1.3-2,1.6C335.5,830.1,336.6,831.1,337.4,832.7z M330.9,829L330.9,829c0.1,0,0.4,0,0.7,0h0.5
			c1-0.1,1.8-0.4,2.4-0.9c0.6-0.5,0.9-1.2,0.9-2c0-1.1-0.7-1.9-2-2.4c-1.3-0.5-2.9-0.7-4.8-0.7c-1.7,0-3.1,0.3-4.2,0.8
			c-1.1,0.5-1.7,1.2-1.7,2.1c0,1,0.9,1.8,2.6,2.3C327,828.7,328.8,829,330.9,829L330.9,829z"/>
		<path d="M342.4,845.8l-1.1-0.4c0.2-1.3,0.6-2.8,1.3-4.4c0.7-1.6,1.4-3,2.2-4c0.5-0.8,1-1.4,1.5-1.9c0.5-0.5,0.8-0.8,0.9-1
			c0.6-0.7,0.9-1.3,0.9-2c0-0.4-0.1-0.8-0.3-1.1c-0.2-0.3-0.6-0.4-1-0.4c-0.3,0-0.6,0.1-0.9,0.3c-0.3,0.2-0.5,0.4-0.6,0.8
			c-0.1,0.2-0.1,0.5-0.2,0.8c0,0.3-0.1,0.5-0.2,0.8c-0.1,0.3-0.3,0.6-0.6,0.8c-0.3,0.2-0.6,0.3-0.9,0.3c-0.6,0-1.1-0.2-1.3-0.6
			c-0.2-0.4-0.4-0.8-0.4-1.1c0-1.1,0.4-1.9,1.3-2.7c0.9-0.7,1.9-1.1,3-1.1c1,0,1.8,0.3,2.4,0.8c0.6,0.6,0.9,1.3,0.9,2.2
			c0,0.2,0,0.5,0,0.7c1.2-1.2,2.7-2.1,4.3-2.7c1.6-0.7,3.3-1,5-1c1.9,0,3.7,0.4,5.2,1.3c1.5,0.8,2.7,2,3.5,3.5
			c0.8,1.5,1.2,3.1,1.2,4.9c0,1.2-0.2,2.4-0.6,3.6c-0.4,1.2-1.1,2.2-1.9,3c-0.9,0.8-2,1.2-3.3,1.2c-0.8,0-1.5-0.2-2-0.5v-1.1
			c0.5,0.3,1.1,0.4,1.8,0.4c0.9,0,1.6-0.4,2.1-1.3c0.5-0.9,0.8-1.9,0.8-3.1c0-1.9-0.5-3.5-1.4-4.8c-0.9-1.3-2.1-2.3-3.6-3
			c-1.5-0.7-3.1-1-4.8-1c-1.3,0-2.6,0.2-3.7,0.6c-1.1,0.4-2.1,0.9-2.8,1.5c0.9-0.2,2.1-0.4,3.5-0.4c2.5,0,4.5,0.7,6.1,2
			c1.6,1.3,2.4,3.2,2.4,5.6c0,1.3-0.4,2.5-1.2,3.5c-0.8,1-2,1.5-3.5,1.5c-1.8,0-3.2-0.9-4-2.6c-0.4,0.8-0.8,1.5-1.5,1.9
			c-0.6,0.4-1.4,0.7-2.2,0.7c-1,0-1.7-0.2-2.2-0.5c-0.5-0.4-0.9-0.8-1.3-1.5c-0.2-0.3-0.4-0.6-0.6-0.7c-0.2-0.1-0.4-0.2-0.6-0.2
			c-0.4,0-0.8,0.2-1.1,0.6C342.6,844.4,342.5,845,342.4,845.8z M345.7,837.8c-0.5,0.8-0.9,1.4-1.2,1.9c-0.3,0.5-0.5,1.1-0.8,1.7
			c0.4-0.3,0.8-0.4,1.1-0.4c0.3,0,0.6,0.1,0.9,0.2c0.3,0.1,0.5,0.2,0.5,0.2c0.5,0.2,0.9,0.3,1.2,0.4c0.3,0.1,0.7,0.1,1.2,0.1
			c1,0,1.7-0.3,2.2-0.8s0.8-1.4,0.8-2.5v0h1.1v0c0,1.2,0.2,2.1,0.7,2.6c0.5,0.5,1.3,0.7,2.3,0.7c1,0,1.7-0.3,2.2-0.9
			c0.5-0.6,0.8-1.3,0.8-2.1c0-1.3-0.6-2.3-1.7-3.1c-1.1-0.8-2.7-1.2-4.7-1.2c-2.1,0-3.7,0.2-4.7,0.7
			C347.1,835.9,346.5,836.7,345.7,837.8z"/>
		<path d="M377.7,846.3c-1.9,0-3.5-0.7-4.6-2.1c-1.1-1.4-1.7-3.2-1.7-5.3c0-1.6,0.3-3,1-4.2c0.6-1.2,1.5-2.2,2.7-2.9
			c1.2-0.7,2.5-1,4-1c0.3,0,0.7,0,1.1,0.1v1.1c-0.4-0.1-0.8-0.1-1.3-0.1c-1.1,0-2.2,0.2-3,0.7c-0.9,0.5-1.6,1.1-2.1,2
			c-0.5,0.8-0.7,1.7-0.7,2.7c0,1.5,0.4,2.6,1.3,3.5c0.9,0.9,2,1.3,3.5,1.3c1.1,0,2-0.3,2.9-0.8c0.8-0.5,1.2-1.2,1.2-2.1v-1h1.1v1
			c0,0.9,0.4,1.6,1.3,2.2c0.9,0.5,1.9,0.8,3.2,0.8c1.5,0,2.6-0.4,3.4-1.1s1.1-1.6,1.1-2.7c0-2.6-1.9-3.9-5.6-3.9
			c-1.2,0-2.3,0.2-3.4,0.4c0-0.2,0-0.5,0-0.9c0-1.6,0.4-2.8,1.3-3.6c0.9-0.8,2.2-1.3,3.8-1.3c1.3,0,2.3,0.3,3.1,0.8
			c0.8,0.5,1.2,1.3,1.2,2.3c0,0.4-0.1,0.9-0.4,1.3c-0.2,0.4-0.6,0.7-1.1,0.9c0.9,0.5,1.6,1.3,2.1,2.2c0.5,1,0.8,2,0.8,3.2
			c0,1.9-0.6,3.5-1.7,4.8c-1.2,1.3-2.7,1.9-4.5,1.9c-2.6,0-4.3-1-5.1-2.9C381.6,845.3,380,846.3,377.7,846.3z M388.3,830.4
			c-1.2,0-2.2,0.3-2.9,0.8c-0.7,0.5-1.1,1.3-1.1,2.2c0.5-0.1,1.3-0.2,2.3-0.2c1.5,0,2.6,0.1,3.4,0.4c0.3-0.1,0.5-0.3,0.7-0.6
			c0.2-0.2,0.2-0.5,0.2-0.9c0-0.5-0.3-1-0.8-1.3C389.6,830.6,389,830.4,388.3,830.4z"/>
	</g>
	<g class="st1">
		<path d="M168.4,879.9c0-1.8,0.7-3.2,2.2-4.1c1.5-1,3.3-1.5,5.4-1.5c1.7,0,3.4,0.3,5,1c1.6,0.7,2.8,1.7,3.8,2.9
			c1,1.2,1.5,2.6,1.5,4.1c0,2.4-0.3,4.2-0.9,5.4h3.7v-13h4.1v21.8H189v-7.4h-4.1c-1.2,2.1-3.2,3.8-6,5c-2.8,1.2-5.9,1.8-9.4,1.8
			c-1.8,0-3.6-0.2-5.4-0.7c-1.8-0.5-3.3-1.2-4.4-2.1c-1.2-0.9-1.7-2-1.7-3.3c0-0.6,0.2-1,0.7-1.4c0.5-0.4,1-0.6,1.7-0.6h20.5
			c0.8-1.6,1.3-3.5,1.3-5.5c0-1.1-0.2-2.2-0.7-3.2c-0.5-1-1.1-1.8-1.9-2.5c-0.8-0.6-1.7-0.9-2.8-0.9c0.7,0.4,1.3,1,1.8,1.8
			c0.5,0.8,0.7,1.7,0.7,2.7c0,0.9-0.3,1.7-0.8,2.4c-0.5,0.7-1.2,1.3-2.1,1.7c-0.9,0.4-1.8,0.6-2.7,0.6c-0.9,0-1.7-0.2-2.5-0.7
			c-0.8-0.4-1.4-1-1.9-1.8C168.6,881.6,168.4,880.8,168.4,879.9z M160.4,889.1c-0.3,0-0.5,0.1-0.7,0.2c-0.2,0.1-0.3,0.3-0.4,0.5
			c-0.1,1,0.3,1.8,1.2,2.5c0.9,0.7,2.1,1.3,3.6,1.7c1.5,0.4,3,0.6,4.4,0.6c2.5,0,4.7-0.5,6.7-1.5c2-1,3.5-2.4,4.6-4H160.4z
			 M172.3,876.4c-0.8,0-1.4,0.4-1.9,1.1c-0.5,0.7-0.7,1.6-0.7,2.5c0,0.8,0.2,1.6,0.7,2.2c0.5,0.7,1.1,1,1.8,1c0.8,0,1.4-0.3,1.9-1
			c0.5-0.7,0.8-1.4,0.8-2.2c0-0.9-0.3-1.8-0.8-2.5C173.7,876.8,173.1,876.4,172.3,876.4z"/>
		<path d="M211.9,900.3c-2.7,0-5.2-0.6-7.5-1.8c-2.3-1.2-4.1-2.8-5.5-4.8c-1.4-2.1-2-4.3-2-6.8c0-2.7,0.6-5.2,1.9-7.3
			c1.3-2.1,3-3.7,5-4.6l0.5,1.1c-1.8,0.8-3.3,2.2-4.5,4.1c-1.1,1.9-1.7,4.1-1.7,6.6c0,2.1,0.5,4.1,1.6,5.8c1.1,1.8,2.5,3.2,4.4,4.2
			c1.8,1,3.8,1.5,6,1.5c2.2,0,4.2-0.4,6-1.1c1.8-0.8,3.2-1.9,4.3-3.3c1.1-1.5,1.6-3.2,1.6-5.2c0-1.7-0.2-3-0.7-3.9
			c-0.5-0.9-1.3-1.4-2.6-1.4h-1.5v2c0,3.8-3,5.7-8.9,5.7c-1,0-2-0.2-2.9-0.8c-0.9-0.5-1.6-1.2-2.2-2.1c-0.5-0.9-0.8-1.8-0.8-2.9
			c0-1,0.4-1.8,1.1-2.4c0.7-0.6,1.7-0.9,2.8-0.9h1.1v-7.4h14.8v1.2h-4.9v6.2h1.8c2.1,0,3.9,0.6,5.2,1.8c1.3,1.2,2,2.8,2,4.8
			c0,2.4-0.6,4.5-1.9,6.3c-1.3,1.7-3,3.1-5.1,4C217.1,899.9,214.6,900.3,211.9,900.3z M206.3,883.5c-0.7,0-1.3,0.2-1.8,0.5
			c-0.5,0.3-0.7,0.8-0.7,1.5c0,1.3,0.4,2.4,1.3,3.2c0.8,0.8,2,1.2,3.4,1.2c1.3,0,2.4-0.4,3.4-1.2c1-0.8,1.4-1.9,1.4-3.1v-2H206.3z
			 M208.8,875.9v6.2h4.5v-6.2H208.8z"/>
		<path d="M232.5,897.6c-2.6-2.7-3.9-6.2-3.9-10.6c0-2.6,0.6-5,1.8-7.2c1.2-2.1,2.8-3.7,4.7-4.7l0.5,0.9c-1.7,1-3.1,2.5-4.1,4.4
			c-1.1,1.9-1.6,4.1-1.6,6.5c0,2.6,0.5,5,1.6,7c1.1,2,2.6,3.6,4.5,4.7c1.9,1.1,4.2,1.7,6.8,1.7c2.3,0,4.3-0.5,6-1.4
			c1.7-1,3.1-2.3,4-4.1c1-1.8,1.4-3.8,1.4-6.1c0-3.4-1-5.1-3-5.1c-0.4,0-0.8,0.1-1.1,0.2c-0.3,0.1-0.5,0.4-0.6,0.6v6.7h-4.2v-15.1
			h-5.9V891h-1.3v-16.3h15.9v1.2h-4.5v6.7c0.5-0.5,1.4-0.7,2.6-0.7c1.9,0,3.5,0.6,4.6,1.9c1.1,1.3,1.7,2.9,1.7,4.9
			c0,3.8-1.4,7-4.3,9.4c-2.8,2.3-6.6,3.5-11.4,3.5C238.6,901.5,235.1,900.2,232.5,897.6z"/>
		<path d="M284.1,900.3c-2.7,0-5.2-0.6-7.5-1.8c-2.3-1.2-4.1-2.8-5.5-4.8c-1.4-2.1-2-4.3-2-6.8c0-2.7,0.6-5.2,1.9-7.3
			c1.3-2.1,3-3.7,5-4.6l0.5,1.1c-1.8,0.8-3.3,2.2-4.5,4.1c-1.1,1.9-1.7,4.1-1.7,6.6c0,2.1,0.5,4.1,1.6,5.8c1.1,1.8,2.5,3.2,4.4,4.2
			c1.8,1,3.8,1.5,6,1.5c2.2,0,4.2-0.4,6-1.1c1.8-0.8,3.2-1.9,4.3-3.3c1.1-1.5,1.6-3.2,1.6-5.2c0-1.7-0.2-3-0.7-3.9
			c-0.5-0.9-1.3-1.4-2.6-1.4h-1.5v2c0,3.8-3,5.7-9,5.7c-1,0-2-0.2-2.9-0.8c-0.9-0.5-1.6-1.2-2.2-2.1c-0.5-0.9-0.8-1.8-0.8-2.9
			c0-1,0.4-1.8,1.1-2.4c0.7-0.6,1.7-0.9,2.8-0.9h1.1v-7.4h14.8v1.2h-4.9v6.2h1.8c2.1,0,3.9,0.6,5.2,1.8c1.3,1.2,2,2.8,2,4.8
			c0,2.4-0.6,4.5-1.9,6.3c-1.3,1.7-3,3.1-5.1,4C289.3,899.9,286.8,900.3,284.1,900.3z M278.5,883.5c-0.7,0-1.3,0.2-1.8,0.5
			c-0.5,0.3-0.7,0.8-0.7,1.5c0,1.3,0.4,2.4,1.3,3.2c0.8,0.8,2,1.2,3.4,1.2c1.3,0,2.4-0.4,3.4-1.2c1-0.8,1.4-1.9,1.4-3.1v-2H278.5z
			 M281,875.9v6.2h4.5v-6.2H281z"/>
		<path d="M325.7,891v1.8c0.8-0.4,1.5-0.5,2.2-0.5c1.1,0,2.2,0.3,3.1,0.9c0.9,0.6,1.4,1.3,1.4,2.3c0,1.4-0.8,2.6-2.3,3.6
			c-1.5,1-3.5,1.8-5.8,2.3c-2.3,0.5-4.6,0.8-6.9,0.8c-3,0-5.7-0.7-8.3-2c-2.5-1.3-4.6-3.1-6.1-5.4c-1.5-2.3-2.3-4.8-2.3-7.6
			c0-2.7,0.6-5.2,1.7-7.3c1.1-2.2,2.6-3.7,4.5-4.7l0.5,1.1c-1.6,0.9-2.9,2.3-3.9,4.3c-1,2-1.4,4.2-1.4,6.7c0,2.5,0.7,4.9,2.1,6.9
			s3.3,3.7,5.6,4.9c2.3,1.2,4.9,1.8,7.6,1.8c1.7,0,3.3-0.2,5-0.6c1.7-0.4,3.1-1,4.2-1.8c1.1-0.8,1.7-1.8,1.7-3
			c0-0.4-0.1-0.8-0.4-1.1c-0.3-0.3-0.6-0.4-1-0.4c-0.4,0-0.7,0.2-1.1,0.6v2.2h-4.2V891h-10.7v-16.3h4.1v15.1h6.9v-9.7
			c0-1.6,0.5-3,1.6-4c1-1,2.4-1.6,4.1-1.6c1.5,0,2.8,0.4,3.9,1.2c1.1,0.8,1.9,1.9,2.5,3.4c0.6,1.4,0.8,2.9,0.8,4.6
			c0,2-0.4,3.8-1.3,5.2c-0.8,1.4-2.1,2.1-3.7,2.1H325.7z M325.9,889.8h3.3c1.3,0,2.3-0.6,3-1.8c0.7-1.2,1-2.6,1-4.4
			c0-2.1-0.4-3.9-1.1-5.4c-0.8-1.5-1.9-2.2-3.4-2.2c-0.8,0-1.5,0.4-2,1.1c-0.5,0.8-0.8,1.6-0.8,2.6V889.8z"/>
		<path d="M357,891h-18.8v-16.3h4.1v15.1h6.9v-9.7c0-1.6,0.5-3,1.6-4c1-1,2.4-1.6,4.1-1.6c1.5,0,2.8,0.4,3.9,1.2
			c1.1,0.8,1.9,1.9,2.5,3.4c0.6,1.4,0.8,2.9,0.8,4.6c0,2-0.4,3.8-1.3,5.2C359.8,890.3,358.6,891,357,891z M353.3,879.8v10h3.3
			c1.3,0,2.3-0.6,3-1.8c0.7-1.2,1-2.6,1-4.4c0-2.1-0.4-3.9-1.1-5.4c-0.8-1.5-1.9-2.2-3.4-2.2c-0.8,0-1.5,0.4-2,1.1
			C353.5,878,353.3,878.8,353.3,879.8z"/>
		<path d="M384.6,891h-18.8v-16.3h4.1v15.1h6.9v-9.7c0-1.6,0.5-3,1.6-4c1-1,2.4-1.6,4.1-1.6c1.5,0,2.8,0.4,3.9,1.2
			c1.1,0.8,1.9,1.9,2.5,3.4c0.6,1.4,0.8,2.9,0.8,4.6c0,2-0.4,3.8-1.3,5.2C387.4,890.3,386.2,891,384.6,891z M380.9,879.8v10h3.3
			c1.3,0,2.3-0.6,3-1.8c0.7-1.2,1-2.6,1-4.4c0-2.1-0.4-3.9-1.1-5.4c-0.8-1.5-1.9-2.2-3.4-2.2c-0.8,0-1.5,0.4-2,1.1
			C381.1,878,380.9,878.8,380.9,879.8z"/>
		<path d="M380.2,871.7c-0.8,0-1.5-0.3-2.1-0.8c-0.6-0.5-0.9-1.2-0.9-1.9c0-0.7,0.3-1.4,0.9-1.9c0.6-0.5,1.3-0.8,2.1-0.8
			c0.8,0,1.5,0.3,2.1,0.8c0.6,0.5,0.9,1.1,0.9,1.9c0,0.8-0.3,1.4-0.9,1.9C381.7,871.4,381,871.7,380.2,871.7z"/>
	</g>
</g>
<g id="Layer_2_1_" transform="translate(0,-741.00006)">
</g>
<g id="Layer_3" transform="translate(0,-741.00006)">
</g>
</svg>
