<?xml version="1.0" encoding="utf-8"?>
<!-- Generator: Adobe Illustrator 22.0.1, SVG Export Plug-In . SVG Version: 6.00 Build 0)  -->
<svg version="1.1" id="logo" xmlns="http://www.w3.org/2000/svg" xmlns:xlink="http://www.w3.org/1999/xlink" x="0px" y="0px"
	 viewBox="0 0 807.7 368.5" style="enable-background:new 0 0 807.7 368.5;" xml:space="preserve">
<style type="text/css">
	.st0{fill:none;}
	.st1{fill:#005B97;}
	.st2{fill:#FFFFFF;}
</style>
<g>
	<g>
		<g>
			<g>
				<g>
					<g>
						<g>
							<g>
								<g>
									<rect x="-76.9" y="0" class="st0" width="961.2" height="418.1"/>
									<rect x="6.7" y="0" class="st1" width="167.3" height="334.5"/>
									<path class="st2" d="M93.2,258.6h-2.9v-8.1h2.9V258.6z M106.4,223h-2.9v-8.1h2.9V223z M52.5,209.1c-0.2,0-1.7,0-1.7,0.3
										c0,0.3,0.7,0.2,1.7,0.3c2.3,0.4,3.2,1.6,4.9,1.6c1.5,0,3-1,2.4-3.2c-0.1-0.4-0.3-0.3-0.4,0c-0.2,1-1.4,1.5-2.6,1.5
										C55.3,209.6,54.9,209.1,52.5,209.1z M36.5,217.2c0.3,0.4,3,3.9-1.2,5.3c-0.2,0.1-0.3,0.2,0,0.4c3.1,1.3,4.6-1.1,4.6-1.1
										c1.6,3.6-0.8,5.6-0.8,5.6c0.3,0.6,1.8,1.7,4.1,2.2c0.9-0.5,2.1-1.3,2.6-2.7c0,0,0.6,1.6,0.1,3.1c6.4,0.6,8.6-4.5,13.5-3.6
										c0.1,0,0.2-0.1,0.2-0.2c0-3.1-1.9-8.9-8-10c-6-1.2-4.4-3.6-4.4-3.6c2.5-0.1,4,1,4,1c0.5-0.8-0.2-1.6-0.2-1.6
										c0.2-0.3,0.4-1.3,0.4-1.3c-2.9,0-3.6-0.6-3.6-0.6c-0.4-1.7,0.7-4.1,5-1.5c1.1-0.9,1-2.4,1-2.4c0.3-0.2,0.5-0.7,0.5-0.9
										c0-0.7-3.4-2.6-4.3-2.8c-0.2-1-1.5-2.5-5.5-2c-1.9,0.2-3.3-0.3-2.6-1.4c0.1-0.2-0.2-0.2-0.4,0c-0.4,0.4-1,1.7,0.6,2.5
										c1.8,0.9,2,2.8,2,3c0,0.4-0.4,0.4-0.5,0c-0.8-3.1-5.1-3.8-7.6-2.1c0.1,1.7,1.9,2.8,2.9,2.8c0.6,0,1.3-0.6,1.3-1.3
										c0-0.4,0.2-0.3,0.3,0c0.4,1.1-1.2,3.4-3.7,2c-2.5,2.5-1.5,5.5-1.2,6.7c0.4,2-0.5,4-2.4,3.1c-0.1,0-0.2-0.1-0.2,0.1
										C32.9,216.8,34.5,218.2,36.5,217.2z M50.1,204.7c-1.2,1.3-3,1-3.5-1.1C49,203.4,50,203.6,50.1,204.7z M123.9,209.6
										c-1.2,0-2.4-0.5-2.6-1.5c-0.1-0.2-0.3-0.3-0.4,0c-0.6,2.1,0.9,3.2,2.4,3.2c1.6,0,2.6-1.2,4.9-1.6c1-0.2,1.7,0,1.7-0.3
										c0-0.3-1.5-0.3-1.7-0.3C125.7,209.1,125.4,209.6,123.9,209.6z M147.8,215.5c0-0.2-0.1-0.2-0.2-0.1c-1.8,0.9-2.8-1-2.4-3.1
										c0.2-1.1,1.2-4.2-1.2-6.7c-2.4,1.4-4.1-0.9-3.7-2c0.1-0.3,0.3-0.3,0.3,0c0,0.8,0.8,1.3,1.3,1.3c1,0,2.8-1.1,2.9-2.8
										c-2.5-1.7-6.8-1-7.6,2.1c-0.1,0.4-0.6,0.4-0.5,0c0-0.3,0.1-2.1,2-3c1.7-0.8,1.1-2.1,0.6-2.5c-0.2-0.2-0.5-0.1-0.4,0
										c0.6,1.1-0.7,1.6-2.6,1.4c-4-0.5-5.3,1-5.5,2c-0.9,0.2-4.3,2.1-4.3,2.8c0,0.2,0.2,0.7,0.5,0.9c0,0-0.1,1.4,1,2.4
										c4.3-2.6,5.4-0.2,5,1.5c0,0-0.8,0.6-3.6,0.6c0,0,0.1,1,0.4,1.3c0,0-0.7,0.8-0.2,1.6c0,0,1.5-1.1,4-1c0,0,1.6,2.5-4.4,3.6
										c-6.1,1.2-8,6.9-8,10c0,0.2,0.1,0.2,0.2,0.2c4.9-0.9,7.1,4.2,13.5,3.6c-0.6-1.5,0.1-3.1,0.1-3.1c0.5,1.3,1.7,2.2,2.6,2.7
										c2.3-0.5,3.7-1.6,4.1-2.2c0,0-2.4-2-0.8-5.6c0,0,1.5,2.4,4.6,1.1c0.3-0.1,0.2-0.3,0-0.4c-4.2-1.4-1.5-4.9-1.2-5.3
										C146.1,218.2,147.8,216.8,147.8,215.5z M134,203.5c-0.5,2.1-2.3,2.4-3.5,1.1C130.6,203.6,131.7,203.4,134,203.5z
										 M89.2,167.8c0,0.5,0.2,1,0.4,1.3c0.4,0.5,0.3,0.8,0.1,1c-0.2,0.2-0.5,0.2-1-0.1c-0.3-0.2-0.7-0.4-1.3-0.4
										c-0.9,0-1.4,0.6-1.4,1.1c0,0.5,0.5,1.1,1.4,1.1c0.5,0,1-0.2,1.3-0.4c0.5-0.4,0.8-0.3,1-0.1c0.2,0.2-0.1,2-0.3,3.5
										c-1.5,0.3-2.2,1.5-2.2,2.2c0,1.8,2,2.9,3.1,3.5c1.1-0.6,3.1-1.7,3.1-3.5c0-0.7-0.7-1.9-2.2-2.2c-0.2-1.4-0.5-3.3-0.3-3.5
										c0.2-0.2,0.5-0.2,1,0.1c0.3,0.2,0.7,0.4,1.3,0.4c0.9,0,1.4-0.6,1.4-1.1c0-0.5-0.5-1.1-1.4-1.1c-0.5,0-1,0.2-1.3,0.4
										c-0.5,0.4-0.8,0.3-1,0.1c-0.2-0.2-0.2-0.5,0.1-1c0.2-0.3,0.4-0.7,0.4-1.3c0-0.9-0.6-1.4-1.1-1.4
										C89.8,166.5,89.2,166.9,89.2,167.8z M90.3,181.4c-1.2,0-2.2,1-2.2,2.2c0,1.2,1,2.2,2.2,2.2c1.2,0,2.2-1,2.2-2.2
										C92.6,182.4,91.6,181.4,90.3,181.4z M90.3,202.8c8.9,0,13.9,1.7,13.9,1.7c0-4.5,0-7,2.6-6.6c-1.4-3.8,4.7-5.3,4.7-10.2
										c0-3.2-2.3-3.6-3-3.6c-2,0-1.7,1.3-3.4,1.3c-0.2,0-0.4-0.1-0.4,0.1c0,0.6,0.5,1.5,1.3,1.5c1.1,0,1.1-1.1,1.9-1.1
										c0.3,0,0.8,0.3,0.8,1.4c0,2.1-1.4,4.4-3,6.2c-0.4-0.5-0.9-0.8-1.5-0.8c-1,0-1.8,1-1.8,2.2c0,0.5,0.1,0.8,0.2,1.2
										c-0.5,0.3-1,0.5-1.4,0.5c-0.7,0-1.8-0.3-1.8-1.9c0-3.6,4.8-6.7,4.8-11.2c0-2.2-1.4-4.3-4.5-4.3c-3.2,0-2.6,3-5.4,3
										c-0.1,0-0.2,0-0.2,0.2c0,0.2,0.5,1.8,1.9,1.8c1.6,0,2-2.7,3.4-2.7c0.5,0,1.3,0.3,1.3,2.1c0,1.4-0.7,3.7-1.7,5.9
										c-0.4-0.4-0.9-0.6-1.4-0.6c-1.2,0-2.1,1.2-2.1,2.5c0,0.9,0.3,1.7,0.9,2.3c-0.7,0.9-1.4,1.6-2.4,1.6c-1.9,0-2.8-1.1-2.8-2.3
										c0-1.3,2.4-1.8,2.4-3.8c0-1.4-0.9-2.1-1.8-2.1c-0.9,0-1.4,0.6-1.5,0.6c-0.1,0-0.6-0.6-1.5-0.6c-0.9,0-1.8,0.8-1.8,2.1
										c0,2,2.4,2.5,2.4,3.8c0,1.2-0.9,2.3-2.8,2.3c-1,0-1.7-0.7-2.4-1.6c0.6-0.6,0.9-1.4,0.9-2.3c0-1.4-0.9-2.5-2.1-2.5
										c-0.6,0-1,0.3-1.4,0.6c-1-2.2-1.7-4.5-1.7-5.9c0-1.8,0.8-2.1,1.3-2.1c1.4,0,1.8,2.7,3.4,2.7c1.4,0,1.9-1.6,1.9-1.8
										c0-0.1-0.1-0.2-0.2-0.2c-2.8,0-2.2-3-5.4-3c-3,0-4.5,2.2-4.5,4.3c0,4.5,4.8,7.7,4.8,11.2c0,1.6-1.1,1.9-1.8,1.9
										c-0.4,0-0.8-0.2-1.4-0.5c0.2-0.4,0.2-0.7,0.2-1.2c0-1.2-0.8-2.2-1.8-2.2c-0.6,0-1.1,0.3-1.5,0.8c-1.6-1.8-3-4.1-3-6.2
										c0-1.1,0.5-1.4,0.8-1.4c0.8,0,0.8,1.1,1.9,1.1c0.8,0,1.3-1,1.3-1.5c0-0.2-0.2-0.1-0.4-0.1c-1.7,0-1.4-1.3-3.4-1.3
										c-0.7,0-3,0.4-3,3.6c0,4.9,6.1,6.4,4.7,10.2c2.6-0.4,2.6,2.1,2.6,6.6C76.4,204.5,81.4,202.8,90.3,202.8z M74,209.5
										c-2.4,0.5-4.2,1-4.9,1.3c0-1.1,0.4-2.1,1.4-2.3c0.1,0,0.2-0.2,0-0.3c-2.2-1.4-3.3,1.3-3.4,1.4c-0.8-0.1-1.9,0.2-1.9,1.2
										c0,3.1-7.1,4.8-8.7,5.1c2.9,1.1,4.1,4.8,4.1,4.8c2.1-2.1,4.6-4,5.1-4c0.6,0,0.8,0.7,0.8,1.1c0,0.1,0.1,0.2,0.2,0.1
										c1.1-1.6,0.6-2,0.5-2.5c-0.1-0.4,0-1.8,1.6-1.6v20.7l-0.8,0.2c-0.4,0.1-3.4-2.5-6.9-4.9c-3.5-2.4-5.3-1-9.3,1.2
										c-5.2,2.8-10.4,0.3-10.4,0.3c-4.5,3.2-6,12.4-6,12.4c-0.9,0.4-2.4,0.8-3.8,0.8c-3.4,0-4-2.1-4-3.3c0-5.2,6.6-7.5,6.6-12.7
										c0-1.3-0.6-6.4-6.9-6.4c-0.8,0-5.6,0-5.7,0c-2.4,0-3-1.7-3.3-2.4c-0.1-0.3-0.4-0.1-0.3,0.1c0.2,0.4-0.3,1.1-0.3,2.4
										c0,2.1,1.2,3.4,3.5,3.4c1,0,2-0.3,2.3-0.5c0.2-0.1,0.3,0.1,0.2,0.2c-1,1.2-1.1,3.4-0.7,3.9c0.1,0.1,0.2,0.1,0.2,0
										c0.6-2.2,2.6-4.3,5.4-4.3c3.4,0,3.4,2.9,3.4,3.6c0,4.2-7.4,7.3-7.4,13.1c0,5.9,6.2,7.1,9.8,6.2c-0.2,5.9-6.9,7.9-7.1,3.7
										c0-0.2-0.2-0.2-0.3,0c-0.9,2.1-0.5,3.9,2.1,4.5c0.2,0,0.1,0.1-0.1,0.3c-2.6,1.6-1.2,8.1-1.1,10c0.2,2.7-2.5,2.4-2.8,2.3
										c-0.1,0-0.2,0,0,0.2c1.9,2.4,4.3,0.2,4.3,0.2c1.8,0.6,0.7,2.1-0.5,2.9c-0.2,0.1-0.2,0.3,0,0.3c0.3,0,3.1,0.3,3.6-2
										c1.2,1.5,3.1,0.9,3.4,0.7c0.5-0.3,3.2-1.2,3.4,1.7c0,0.2,0.1,0.1,0.2,0c2-2.5-0.1-4-1.3-4.2c0.1-0.1,1.7-1.5,3.1,0.4
										c0.1,0.1,0.2,0.2,0.2-0.1c0.2-3.2-2.4-3.4-4.1-2.1c-0.1-0.3-0.6-2.1,1.9-2c0.1,0,0.2-0.1,0.1-0.2c-2-2.1-3.6-0.2-3.9,0.3
										c-0.9,1-3,0.6-3.2,0.6c0.7-11,10.4-7.1,11.7-12.4c0.1-0.3,0.2-0.2,0.2-0.1c0.4,1.3,3.6,1.5,4.3-1.1c0-0.2,0-0.3-0.1-0.2
										c-2.8,2.8-9.1-5.9-0.5-13.1c7.3-6.1,13.9-2.7,16.4-0.7c0.1,0.9-0.4,1.2-0.7,1.3c-0.1,0-0.2,0.1,0,0.2
										c0.7,0.3,1.7,0.2,2.1-0.5c1.6,1.1,0.2,2.5-0.4,2.9c-0.2,0.1-0.1,0.2,0,0.2c1.4,0.3,2.6-1.2,2.7-2.1l0.2,0.1v6.2
										c0,8.9,10.3,10.1,21.5,17.7c11.2-7.5,21.5-8.8,21.5-17.7v-6.2l0.2-0.1c0.1,0.9,1.2,2.3,2.7,2.1c0.1,0,0.2-0.1,0-0.2
										c-0.6-0.4-2-1.8-0.4-2.9c0.5,0.7,1.4,0.7,2.1,0.5c0.2-0.1,0.2-0.2,0-0.2c-0.3-0.1-0.9-0.4-0.7-1.3c2.5-2,9.1-5.4,16.4,0.7
										c8.6,7.1,2.3,15.8-0.5,13.1c-0.1-0.1-0.1,0-0.1,0.2c0.6,2.6,3.9,2.4,4.3,1.1c0-0.1,0.2-0.2,0.2,0.1
										c1.3,5.3,11,1.4,11.7,12.4c-0.2,0-2.4,0.4-3.2-0.6c-0.4-0.4-2-2.3-3.9-0.3c-0.1,0.1,0,0.2,0.1,0.2c2.5-0.1,2,1.7,1.9,2
										c-1.7-1.4-4.2-1.1-4.1,2.1c0,0.2,0.1,0.2,0.2,0.1c1.4-1.8,3-0.5,3.1-0.4c-1.2,0.2-3.3,1.7-1.3,4.2c0.1,0.1,0.2,0.2,0.2,0
										c0.3-2.9,2.9-2,3.4-1.7c0.4,0.2,2.2,0.7,3.4-0.7c0.5,2.2,3.3,2,3.6,2c0.2,0,0.2-0.1,0-0.3c-1.2-0.8-2.3-2.3-0.5-2.9
										c0,0,2.4,2.2,4.3-0.2c0.2-0.2,0.1-0.3,0-0.2c-0.2,0.1-3,0.4-2.8-2.3c0.1-1.9,1.5-8.4-1.1-10c-0.2-0.1-0.3-0.2-0.1-0.3
										c2.6-0.6,3-2.4,2.1-4.5c-0.1-0.3-0.3-0.2-0.3,0c-0.2,4.2-6.9,2.2-7.1-3.7c3.6,0.9,9.8-0.3,9.8-6.2c0-5.8-7.4-8.9-7.4-13.1
										c0-0.7,0-3.6,3.4-3.6c2.8,0,4.9,2.1,5.4,4.3c0,0.1,0.1,0.1,0.2,0c0.4-0.5,0.3-2.7-0.7-3.9c-0.1-0.1,0-0.3,0.2-0.2
										c0.3,0.2,1.3,0.5,2.3,0.5c2.3,0,3.5-1.3,3.5-3.4c0-1.3-0.5-2-0.3-2.4c0.1-0.2-0.2-0.3-0.3-0.1c-0.3,0.7-0.9,2.4-3.3,2.4
										c0,0-4.8,0-5.7,0c-6.3,0-6.9,5.1-6.9,6.4c0,5.2,6.6,7.4,6.6,12.7c0,1.2-0.6,3.3-4,3.3c-1.4,0-2.9-0.4-3.7-0.8
										c0,0-1.5-9.2-6-12.4c0,0-5.2,2.5-10.4-0.3c-3.9-2.1-5.8-3.6-9.3-1.2c-3.5,2.4-6.5,5-6.9,4.9l-0.8-0.2v-20.7
										c1.6-0.2,1.7,1.3,1.6,1.6c-0.1,0.5-0.6,0.9,0.5,2.5c0.1,0.1,0.2,0.1,0.2-0.1c0-0.4,0.3-1.1,0.8-1.1c0.5,0,3,1.9,5.1,4
										c0,0,1.2-3.6,4.1-4.8c-1.6-0.3-8.7-2-8.7-5.1c0-1-1.2-1.3-1.9-1.2c0-0.1-1.2-2.8-3.4-1.4c-0.1,0.1-0.1,0.2,0,0.3
										c1,0.2,1.4,1.2,1.4,2.3c-2.1-0.6-10.9-3.1-21.3-3.1c-5.1,0-9.7,0.6-13.4,1.3v7.2H74V209.5L74,209.5 M54.7,282.9
										c-0.8-0.3-1.3-0.8-1.3-1.8v-4.5c-1.3-0.4-4.8-1.8-11.7-1.8c-5.8,0-7.6,1.3-7.7,1.8l-1.5,8.5c0,0,2.3-2.1,10.7-1.6
										c10.1,0.6,20.6,6.6,20.6,0.2V280C55.9,280,54.7,282.5,54.7,282.9z M116.9,280v3.7c0,6.4,10.5,0.4,20.6-0.2
										c8.4-0.5,10.7,1.6,10.7,1.6l-1.5-8.5c-0.1-0.5-1.9-1.8-7.7-1.8c-7,0-10.4,1.3-11.7,1.8v4.5c0,1-0.5,1.5-1.3,1.8
										C125.9,282.5,124.8,280,116.9,280z M90.3,276.2c16.3,0,32.8,0.9,34.9,3.3c0.2,0.2,0.2,0,0.2-0.2l0-8.6c0-2.5-17-4-35.2-4
										c-18.1,0-35.2,1.5-35.2,4l0,8.6c0,0.1,0.1,0.3,0.2,0.2C57.6,277,74.1,276.2,90.3,276.2z M75.8,235.5l-1.6-0.4l-0.1,0.2
										l-1.9-0.8c0,0,1.4,0,1.7,0c0.2,0,0.2-0.1,0.1-0.2c-0.8-0.8-1.5-1.4-1.5-1.4s0.8,0.3,1.9,0.7c0.1,0,0.2,0,0.1-0.1
										c-0.5-0.8-1.3-1.8-1.3-1.8s1.5,1,1.8,1.2c0.1,0.1,0.2,0,0.1-0.1c-0.4-1-0.9-2.2-0.9-2.2l1.7,1.6c0.1,0.1,0.2,0,0.1-0.1
										c-0.2-0.8-0.5-2.2-0.5-2.2l1.2,1.8c0.1,0.1,0.2,0.1,0.2,0c0-0.4,0-2,0-2s0.5,1.2,0.8,1.8c0.1,0.1,0.1,0.1,0.2,0
										c0.1-0.2,0.6-1.5,0.6-1.5l0.1,2.1l-0.3,0.1l-0.3,2.5c2.5-0.6,5.5-4.8,7.9-4.8c2.8,0,3.8,3.3,9,1.6c1.3,1.9,1.8,3.6,2.3,5.9
										c2,1.9,4.8,1.2,4.8-0.7c0-2.7-2.9-3.2-2.9-6c0-1.2,0.9-3,3.3-3c1.3,0,3.1,0.5,4.2,0.5c1.3,0,1.5-0.9,1.7-1.3
										c0.1-0.3,0.5-0.2,0.4,0c0,0.3,0.1,0.6,0.1,1.2c0,1.8-2.6,2-2.9,1.8c-0.1-0.1-0.2,0-0.1,0.1c0.4,0.3,0.3,1.4-0.2,2
										c-0.1,0.1-0.1,0.1-0.1,0c-0.3-1.3-1.8-2.8-3.1-2.8c-0.5,0-1.4,0.3-1.4,1.4c0,1.6,3.2,3,3.2,6.3c0,3.4-3.4,4.2-6.8,3.4
										c0.1,3.2,4.9,5.2,5.1,2.8c0-0.2,0.1-0.1,0.1,0c0.7,1,0.4,1.7-0.5,2.1c0.8,0.4,1,2.1,1.2,3.1c0.4,1.5,2,0.7,2.1,0.6
										c0.1-0.1,0.1,0,0.1,0.1c-0.6,1.6-2.2,1-2.2,1c-0.9,0.6,0.2,1.1,0.9,1.4c0.1,0,0.1,0.1,0,0.2c-0.6,0.2-1.8,0.6-2.4-0.4
										c-0.4,1.1-1.3,1-1.7,1c-0.6,0-1,0.6-0.9,1.5c0,0.1,0,0.1-0.1,0.1c-1.5-1-0.6-2.1,0-2.4c-0.1-0.1-1.1-0.5-1.6,0.7
										c0,0.1-0.1,0.1-0.1,0c-0.6-1.7,0.8-2.2,1.8-1.8c-0.1-0.2-0.6-1.1-1.9-0.8c-0.1,0-0.1,0-0.1-0.1c0.2-0.5,0.9-1.3,2.1-0.5
										c0.6,0.4,1.7-0.2,1.8-0.2c-2.2-4.3-6.4-0.7-7.3-4.1c0-0.1-0.1-0.1-0.2,0.1c-0.2,0.7-2.1,0.8-2.4-0.6c0-0.1,0-0.1,0.1-0.1
										c0.3,0.3,0.8,0.5,1.6-0.6c0.5-0.7,0.6-1.7,0.6-2.3c0-2.6-2.6-7-6.7-7c-2.6,0-5.3,1-7.4,2.5l1.9,0.4c-0.2,1.9-2,3.1-3.8,2.6
										l0.3-2.2c-0.3,0.1-1,0.4-1.4,0.9c0,0-0.1,0-0.1,0c-0.3-1.3,0.7-1.9,1-2.1c0,0,0,0,0,0c-0.9,0-1.5,0.6-1.6,0.9
										c0,0-0.1,0-0.1,0C75.6,236.6,75.4,236,75.8,235.5z M81.5,250.5c-0.7,0.9-1.4,0-2.3,0c-0.9,0-1.1,0.8-1.1,1.1
										c0,0.1,0,0.1-0.1,0c-1-1.4,0.1-2.2,0.8-2.3c-0.1-0.1-1.1-0.8-1.7,0.2c0,0.1-0.1,0-0.1,0c0-1.7,1.3-1.9,2.3-1.1
										c0.2-0.7-0.3-1.1-1-1.1c-0.1,0-0.1-0.1-0.1-0.1c0.3-0.3,0.6-0.5,0.9-0.5c1,0,1.1,1.2,1.7,1.2c0.9,0,2.3-1.3,2.4-1.4
										c0-0.1-0.9-2.5-0.8-4c0-0.1,0-0.1-0.1,0c-0.5,0.3-1.6,0.2-1.6-1.2c0-0.1,0-0.1,0.1,0c0.5,0.7,1.3-0.1,1.7-0.6
										c0.4-0.5,2.8-4,6-4c0.7,0,1.6,0.4,2.3,0.9c-1.1,1.3,0,2.6,0.8,2.5c0.1,0,0.1,0.1,0,0.1c-4.2,1.6-6.1,2.2-6.1,5.7
										c0,1.8,0.6,2.9,1.7,2.6c0.1,0,0.1,0,0,0.1c-0.4,0.5-0.8,0.6-1.2,0.6c-0.9,0-1-0.5-1.5-0.5c-0.5,0-2,0.9-2,1.7
										c0,0.3,0.2,0.7,0.7,1.1c0,0,0,0.1,0,0.1C83.1,251.6,81.8,251.7,81.5,250.5z M92.6,216.2c-1.3-0.1-2.2,0.2-2.1,0.6
										C91.1,217.5,92,217.5,92.6,216.2z M87.8,219.5c0.9-0.2,2-0.1,2.1-0.1c0.1,0,0.1,0.3,0,0.3c-1.9,0.2-2,1.1-3.3,1.1
										c-0.8,0-1.7-0.8-1.4-2c0-0.2,0.2-0.2,0.2,0C85.5,219.3,86.2,219.9,87.8,219.5z M62.6,262.4c1.3,1.6,2.5,0.1,4.2,0.1
										c0.8,0,1.8,0.3,2,1.9c0,0.1,0.1,0.1,0.2,0c1.8-2.5-0.3-3.9-1.5-4.1c0.3-0.2,2.1-1.3,3.2,0.3c0.1,0.1,0.2,0.1,0.2-0.1
										c0-3.2-2.4-3.4-4.1-2c-0.3-1.2,0.6-2.1,1.8-2.1c0.1,0,0.2-0.1,0.1-0.2c-2.1-2.3-3.7,0.6-4.1,1c-0.8,1.1-3.9-1-5.1-2.3
										c0,0,2.7-2.8,2.7-5.4c0-0.2,0-0.4,0-0.5c0-0.1,0-0.1,0.1-0.1c0.3,0.2,0.6,0.3,1,0.3c0.6,0,1.8-0.2,1.8-2.4
										c0-0.2-0.1-0.2-0.1-0.1c-0.3,0.5-0.7,0.6-0.9,0.6c-2.2,0-6.7-7.2-12-7.2c-1.4,0-4,1-5.4,2.4c0.6,0.4,0.8,1.2,0.7,1.7
										c-0.1,0.9-0.8,1.4-1.6,1.6c-0.1,0-0.1,0.1,0,0.2c2.7,1,7.6,2.9,8.7,3.8c1.3,1.1,1.1,3.3,0.3,6.3c-0.7,2.9-2.3,2.5-2.9,2.4
										c-0.1,0-0.1,0-0.1,0.1c0.7,0.9,1.5,1.2,2.3,1.2c1.4,0,1.9-0.9,2.6-0.9c1.2,0,3.8,1.7,3.8,3.1c0,0.7-0.6,1.4-1.3,1.9
										c0,0,0,0.1,0,0.1C59.7,264.4,62.1,264.6,62.6,262.4z M121.5,264.3c0.1,0,0.1-0.1,0-0.1c-0.8-0.5-1.3-1.2-1.3-1.9
										c0-1.3,2.6-3.1,3.8-3.1c0.7,0,1.2,0.9,2.6,0.9c0.7,0,1.6-0.3,2.3-1.2c0.1-0.1,0-0.1-0.1-0.1c-0.6,0.1-2.2,0.5-2.9-2.4
										c-0.8-3-1-5.1,0.3-6.3c1.1-1,6-2.8,8.7-3.8c0.1-0.1,0.1-0.2,0-0.2c-0.7-0.2-1.5-0.7-1.6-1.6c-0.1-0.6,0.1-1.4,0.7-1.7
										c-1.3-1.4-4-2.4-5.4-2.4c-5.3,0-9.9,7.2-12,7.2c-0.3,0-0.6-0.1-0.9-0.6c-0.1-0.1-0.1-0.1-0.1,0.1c0,2.2,1.2,2.4,1.8,2.4
										c0.3,0,0.7-0.1,1-0.3c0.1,0,0.1,0,0.1,0.1c0,0.1,0,0.3,0,0.5c0,2.6,2.7,5.4,2.7,5.4c-1.2,1.3-4.3,3.4-5.1,2.3
										c-0.4-0.5-2-3.3-4.1-1c-0.1,0.1,0,0.2,0.1,0.2c1.2,0,2.1,0.8,1.8,2.1c-1.7-1.4-4.1-1.2-4.1,2c0,0.1,0.1,0.2,0.2,0.1
										c1.1-1.6,2.9-0.5,3.2-0.3c-1.2,0.2-3.3,1.6-1.5,4.1c0.1,0.1,0.1,0.1,0.2,0c0.2-1.6,1.2-1.9,2-1.9c1.7,0,2.9,1.5,4.2-0.1
										C118.5,264.6,120.9,264.4,121.5,264.3z M78.4,222.6c-0.2,0.2-0.7,0-0.9-0.1c0,0-0.1,0,0,0c0.1,0.3,0.7,1.2,1.5,1.2
										c0.4,0,0.9-0.2,1-0.5c0,0,3.1,1,4.7,1.4c-0.6,0.8-1,1.8-1.1,2.8c-1.3-0.8-6.3-3.5-6.3-3.5l-1.6,2.1
										c-0.3,0.4-1.5-0.6-1.2-0.9l1.2-1.6c-0.4-0.4-1.3-0.2-1.6-0.1c0,0-0.1,0,0-0.1c0.2-0.3,0.7-1.3,2.2-0.9
										c0-0.9-1.3-0.6-1.7-0.5c0,0-0.1,0,0,0c0.4-0.4,1.5-1.3,2.7-0.5l0.5-0.7l-1.1-1.1l0.7-0.9l0.8,1l5.8-7.9
										c0.1-0.2,1.3-0.5,1.7-0.6c0,0.4,0.1,1.6,0,1.8l-5.7,8l1.2,0.4l-0.7,0.9l-1.4-0.7L78.4,222.6z M98.6,221.3
										c0,0.7,0.4,1.8,1.4,1.5c0,0,0.1,0,0.1,0c-0.1,0.8-1.6,1.6-2.3,0.6c-0.6,1.2-0.4,2.4,0.8,3.1c0.1,0,0.1,0.1,0,0.2
										c-0.8,0.5-1.9,0.4-2.5-0.6c-1,0.8-0.9,2.4-0.3,3c0,0-2.9,1.7-5.5,0.5c-1.7-0.8-3.1-1.9-5.4-1.7c0.3-3.1,1.9-3.9,4.7-4.4
										c2.3-0.4,2.6-1.4,2.3-2.2c-0.8-0.2-2.2,0.5-2.2,0.5c-0.3-0.4,0.1-0.9,0.1-0.9c-0.1-0.2-0.2-0.7-0.2-0.7
										c1.6,0,1.9-0.4,1.9-0.4c0.3-1.7-1.4-1.8-2.7-0.9c-0.6-0.5-0.5-1.2-0.5-1.2c-0.2-0.1-0.3-0.4-0.3-0.5c0-0.4,1.9-1.5,2.4-1.6
										c0.1-0.6,0.8-1.3,2.8-1.1c0.2-0.5-0.2-2.5-0.4-3c-0.1-0.2,0-0.2,0.2-0.1c0.7,0.4,1.4,2.1,1.9,2.1c0,0,2.3-1.2,2.4-1.1
										c0.1,0.1,0.4,2.6,0.4,2.6c0.3,0.4,2.1,0,2.8,0.3c0.2,0.1,0.2,0.2,0,0.3c-0.6,0.1-2.4,0.9-2.7,1.4
										C99.1,218.4,98.6,220.7,98.6,221.3z"/>
								</g>
							</g>
						</g>
					</g>
				</g>
			</g>
		</g>
		<g>
			<path d="M222.9,216.5c-0.5,0.1-0.9,0.2-1.5,0.3c-0.5,0.1-1,0.1-1.5,0.2c-0.6,0-1.2,0.1-1.8,0.1c-0.9,0-1.8-0.1-2.6-0.1
				c-0.8-0.1-1.5-0.2-2.1-0.4v-1c1.1-0.4,1.9-0.8,2.3-1.4c0.5-0.6,0.7-1.5,0.7-2.6v-25.7l-3.3-0.8v-1.1c1-0.3,2-0.5,3-0.6
				c1-0.2,2-0.2,3-0.2c0.9,0,1.8,0,2.6,0.1c0.8,0.1,1.5,0.3,2.3,0.4v1c-0.5,0.2-1,0.4-1.4,0.5c-0.4,0.2-0.7,0.5-0.9,0.8
				c-0.3,0.3-0.4,0.6-0.5,1c-0.1,0.4-0.2,0.9-0.2,1.5v25.8l3.3,0.8v1.1C223.7,216.3,223.3,216.4,222.9,216.5z M239.1,217
				c-0.5,0.2-1.2,0.3-2,0.3c-0.6,0-1.2,0-1.7-0.2c-0.5-0.1-1-0.3-1.6-0.6c-0.5-0.4-1-0.8-1.5-1.4c-0.5-0.6-1.1-1.2-1.7-2.1
				l-9.5-13.1v-0.2l12.4-14v-0.1l-2.8-0.6v-1.1c0.6-0.2,1.1-0.3,1.6-0.4c0.5-0.1,0.9-0.2,1.4-0.3c0.4-0.1,0.8-0.1,1.3-0.1
				c0.4,0,0.9,0,1.4,0c0.6,0,1.3,0,1.9,0.1c0.6,0.1,1.1,0.2,1.7,0.4v1c-0.7,0.4-1.4,0.7-2,1.1c-0.6,0.4-1.2,0.9-1.8,1.6l-10.4,11.6
				l9.3,11.8c0.4,0.6,0.9,1,1.3,1.5c0.4,0.4,0.8,0.8,1.3,1.1c0.5,0.3,0.9,0.7,1.5,0.9c0.5,0.3,1.2,0.6,1.8,0.9v1
				C240.3,216.5,239.7,216.8,239.1,217z"/>
			<path d="M251.3,216.5c-0.5,0.1-0.9,0.2-1.4,0.3c-0.5,0-1,0.1-1.5,0.2c-0.6,0-1.1,0-1.8,0c-0.6,0-1.3,0-1.9-0.1
				c-0.7-0.1-1.4-0.2-2-0.4v-0.9c0.4-0.1,0.7-0.3,1-0.5c0.3-0.2,0.6-0.4,0.9-0.7c0.3-0.2,0.5-0.5,0.6-0.8c0.2-0.3,0.2-0.6,0.2-0.9
				v-17.6l-3.3-1.4v-1.1c1.2-0.4,2.4-0.6,3.4-0.7c1.1-0.2,2-0.3,2.8-0.3h1.7l-0.3,2.8v19.8l2.9,0.8v1
				C252.2,216.3,251.8,216.4,251.3,216.5z M250.4,184.9c-0.2,0.4-0.4,0.7-0.6,1c-0.3,0.3-0.6,0.5-0.9,0.7c-0.4,0.2-0.7,0.3-1.1,0.3
				c-0.4,0-0.7-0.1-1.1-0.2c-0.3-0.2-0.6-0.4-0.9-0.6c-0.2-0.3-0.4-0.6-0.6-0.9c-0.2-0.4-0.2-0.8-0.2-1.2c0-0.4,0.1-0.8,0.2-1.1
				c0.1-0.4,0.3-0.7,0.6-1c0.3-0.3,0.6-0.5,0.9-0.7c0.4-0.2,0.8-0.3,1.3-0.3c0.4,0,0.7,0.1,1,0.2c0.3,0.1,0.6,0.3,0.9,0.6
				c0.3,0.2,0.4,0.5,0.6,0.9c0.2,0.3,0.2,0.7,0.2,1.1C250.6,184.1,250.5,184.5,250.4,184.9z"/>
			<path d="M275.6,217c-0.5,0-1.1,0-1.7-0.1c-0.6-0.1-1.2-0.2-1.7-0.4v-0.9c0.7-0.3,1.1-0.7,1.4-1.2c0.3-0.5,0.5-1.3,0.5-2.2v-10
				c0-1.2-0.2-2.3-0.4-3.2c-0.3-0.9-0.6-1.7-1.1-2.2c-0.5-0.6-1-1-1.6-1.3c-0.7-0.3-1.4-0.4-2.1-0.4c-1,0-2.1,0.2-3,0.5
				c-1,0.3-1.8,0.7-2.3,1.1v17.5l2.9,0.8v1c-0.5,0.2-0.9,0.3-1.3,0.4c-0.5,0.1-0.9,0.2-1.4,0.3c-0.5,0-1,0.1-1.6,0.2
				c-0.5,0-1.1,0-1.8,0c-0.6,0-1.3,0-2-0.1c-0.7-0.1-1.4-0.2-1.9-0.4v-0.9c0.4-0.1,0.7-0.3,1-0.5c0.4-0.2,0.6-0.4,0.9-0.7
				c0.3-0.2,0.5-0.5,0.7-0.8c0.2-0.3,0.2-0.6,0.2-0.9v-17.6l-3.4-1.4v-1.2c1.2-0.4,2.3-0.6,3.4-0.7c1.1-0.2,2-0.2,2.8-0.2h1.3v2.8
				c0.9-0.9,2-1.6,3.4-2.1c1.4-0.5,2.8-0.8,4.3-0.8c1.1,0,2.1,0.2,3,0.5c0.9,0.4,1.7,0.9,2.3,1.6c0.6,0.7,1.1,1.5,1.5,2.5
				c0.3,1,0.5,2.2,0.5,3.6v14.6l2.7,0.8v1C279.7,216.7,277.8,217,275.6,217z"/>
			<path d="M307.4,195.1c-0.8-0.2-1.7-0.3-2.7-0.4c-0.9-0.1-1.9-0.2-2.9-0.2v0c0.4,0.3,0.8,0.7,1.2,1.2c0.4,0.4,0.7,0.9,0.9,1.4
				c0.3,0.5,0.5,1,0.6,1.6c0.1,0.6,0.2,1.1,0.2,1.6c0,1.5-0.3,2.9-0.9,4.1c-0.6,1.2-1.4,2.3-2.3,3.2c-1,0.9-2.1,1.6-3.4,2.1
				c-1.3,0.5-2.6,0.7-4,0.7c-0.6,0-1.2-0.1-1.7-0.2c-0.6-0.1-1-0.3-1.5-0.5c-0.2,0.1-0.4,0.3-0.6,0.5c-0.2,0.2-0.4,0.4-0.6,0.6
				c-0.2,0.2-0.3,0.4-0.4,0.7c-0.1,0.3-0.2,0.5-0.2,0.7c0,0.8,0.3,1.4,0.9,1.8c0.6,0.4,1.4,0.6,2.5,0.6l7.3-0.1
				c2.2,0,3.9,0.4,5.1,1.4c1.2,1,1.8,2.5,1.8,4.4c0,1.2-0.3,2.4-1,3.6c-0.6,1.1-1.5,2-2.7,2.9c-1.1,0.8-2.5,1.5-4,2
				c-1.6,0.5-3.2,0.7-5.1,0.7c-1.7,0-3.1-0.2-4.3-0.5c-1.3-0.3-2.3-0.7-3.1-1.3c-0.8-0.5-1.5-1.2-1.9-1.9c-0.4-0.7-0.6-1.6-0.6-2.4
				c0-0.7,0.1-1.4,0.4-2c0.3-0.6,0.6-1.2,1-1.7c0.5-0.5,1-0.9,1.6-1.3c0.6-0.4,1.3-0.6,2-0.8v-0.1c-0.9-0.4-1.7-0.8-2.2-1.6
				c-0.6-0.7-0.8-1.5-0.8-2.5c0-0.5,0.1-1,0.3-1.5c0.2-0.5,0.4-0.9,0.8-1.4c0.3-0.4,0.7-0.8,1.1-1.1c0.4-0.3,0.9-0.6,1.4-0.7v-0.1
				c-0.6-0.3-1.2-0.6-1.7-1c-0.6-0.4-1.1-0.9-1.5-1.6c-0.4-0.6-0.8-1.4-1-2.1c-0.3-0.8-0.4-1.6-0.4-2.5c0-1.5,0.3-2.8,0.8-4.1
				c0.5-1.2,1.3-2.3,2.2-3.3c0.9-0.9,2.1-1.7,3.3-2.2c1.3-0.5,2.6-0.8,4-0.8c0.5,0,1.1,0.1,1.7,0.2c0.6,0.1,1.1,0.3,1.6,0.4
				c0.5,0.2,1,0.3,1.4,0.5c0.4,0.2,0.7,0.4,0.9,0.6c0.3-0.2,0.5-0.4,0.9-0.6c0.4-0.2,0.7-0.4,1.1-0.5c0.4-0.2,0.8-0.3,1.3-0.4
				c0.5-0.1,0.9-0.2,1.3-0.2c0.4,0,0.9,0.1,1.3,0.1c0.4,0.1,0.7,0.1,1,0.2L307.4,195.1z M302,219.3c-0.7-0.6-1.6-0.8-2.9-0.8h-8.4
				c-0.4,0.2-0.7,0.4-1,0.7c-0.3,0.3-0.6,0.6-0.8,1c-0.3,0.4-0.4,0.8-0.6,1.2c-0.2,0.4-0.2,0.9-0.2,1.3c0,0.6,0.2,1,0.4,1.5
				c0.3,0.5,0.7,0.9,1.3,1.3c0.6,0.4,1.3,0.7,2.1,0.9c0.8,0.2,1.8,0.3,2.9,0.3c1.3,0,2.4-0.2,3.4-0.4c1-0.3,1.9-0.7,2.6-1.1
				c0.7-0.5,1.3-1,1.7-1.6c0.4-0.6,0.6-1.2,0.6-1.8C303,220.6,302.7,219.9,302,219.3z M299.8,197.5c-0.3-0.8-0.7-1.5-1.1-2
				c-0.5-0.5-1-0.9-1.7-1.2c-0.6-0.3-1.3-0.4-2-0.4c-0.7,0-1.5,0.2-2.1,0.5c-0.6,0.3-1.2,0.8-1.7,1.5c-0.5,0.6-0.9,1.4-1.2,2.3
				c-0.3,0.9-0.4,1.9-0.4,3.1c0,1.1,0.2,2.1,0.4,2.9c0.3,0.8,0.6,1.5,1.1,2c0.5,0.5,1,0.9,1.6,1.2c0.6,0.3,1.3,0.4,1.9,0.4
				c0.8,0,1.6-0.2,2.2-0.4c0.7-0.3,1.3-0.7,1.8-1.4c0.5-0.6,0.9-1.4,1.2-2.3c0.3-0.9,0.5-2,0.5-3.3
				C300.2,199.3,300.1,198.3,299.8,197.5z"/>
			<path d="M330.2,216.2c-0.6,0.4-1.3,0.8-2,1.1c-0.5-0.4-1-0.9-1.5-1.5c-0.4-0.6-0.8-1.1-1-1.7c-0.4,0.4-0.9,0.8-1.5,1.2
				c-0.5,0.4-1.1,0.7-1.7,0.9c-0.6,0.3-1.2,0.5-1.8,0.6c-0.6,0.2-1.2,0.2-1.7,0.2c-1.3,0-2.6-0.3-3.7-0.8c-1.2-0.5-2.1-1.3-3-2.2
				c-0.8-1-1.5-2.2-2-3.6c-0.5-1.4-0.7-3-0.7-4.7c0-2.3,0.3-4.4,1-6.2c0.7-1.8,1.6-3.3,2.7-4.5c1.1-1.2,2.5-2.2,4-2.8
				s3.1-0.9,4.8-0.9c0.6,0,1.3,0.1,1.9,0.1c0.7,0.1,1.3,0.2,1.7,0.3v-9.2l-3.6-1.4V180c1.2-0.4,2.4-0.6,3.6-0.7
				c1.2-0.1,2.1-0.2,2.9-0.2h1.7l-0.3,2.9v29.9c0.2,0.5,0.5,1,0.8,1.6c0.3,0.5,0.7,1,1.2,1.5C331.4,215.4,330.8,215.8,330.2,216.2z
				 M325.7,194.8c-0.4-0.2-1-0.3-1.7-0.4c-0.7-0.1-1.4-0.2-2.1-0.2c-1.1,0-2.1,0.2-3.1,0.7c-0.9,0.4-1.8,1.1-2.5,2
				c-0.7,0.9-1.2,2-1.6,3.3c-0.4,1.4-0.6,2.9-0.6,4.8c0,1.4,0.2,2.7,0.5,3.8c0.4,1.1,0.8,2,1.4,2.8c0.6,0.7,1.2,1.3,2,1.7
				c0.7,0.4,1.5,0.6,2.4,0.6c0.5,0,1-0.1,1.5-0.1c0.5-0.1,1-0.2,1.5-0.4c0.5-0.2,0.9-0.3,1.3-0.5c0.4-0.2,0.7-0.4,1-0.7V194.8z"/>
			<path d="M358.5,209.2c-0.7,1.7-1.6,3.2-2.7,4.4c-1.2,1.2-2.5,2.1-3.9,2.8c-1.5,0.7-3,1-4.5,1c-1.6,0-3.1-0.3-4.4-0.8
				c-1.4-0.5-2.6-1.3-3.7-2.3c-1-1-1.8-2.3-2.5-3.8c-0.6-1.5-0.9-3.2-0.9-5.1c0-2.1,0.4-4.1,1-5.8c0.7-1.7,1.6-3.2,2.7-4.4
				c1.2-1.2,2.5-2.1,3.9-2.8c1.5-0.7,3-1,4.6-1c1.6,0,3.1,0.3,4.5,0.9c1.4,0.6,2.6,1.4,3.6,2.5c1,1,1.8,2.3,2.4,3.8
				c0.6,1.5,0.9,3.1,0.9,5C359.6,205.4,359.3,207.4,358.5,209.2z M354.2,199.7c-0.4-1.1-0.9-2.1-1.5-3c-0.7-0.8-1.4-1.4-2.2-1.8
				c-0.8-0.4-1.7-0.6-2.7-0.6c-0.9,0-1.8,0.3-2.6,0.7c-0.9,0.5-1.7,1.1-2.3,2c-0.7,0.9-1.3,2-1.6,3.3c-0.4,1.3-0.6,2.8-0.6,4.5
				c0,1.6,0.2,3,0.6,4.1c0.4,1.2,0.9,2.2,1.5,3c0.7,0.8,1.4,1.4,2.2,1.8c0.8,0.4,1.7,0.6,2.7,0.6c0.9,0,1.7-0.2,2.6-0.6
				c0.8-0.4,1.6-1.1,2.3-2c0.7-0.8,1.2-1.9,1.6-3.3c0.4-1.3,0.6-2.9,0.6-4.6C354.8,202.3,354.6,200.9,354.2,199.7z"/>
			<path d="M399.6,216.8c-0.9,0.1-1.9,0.2-3.1,0.2c-0.5,0-1.1,0-1.7-0.1c-0.6-0.1-1.2-0.2-1.7-0.4v-0.9c0.7-0.3,1.1-0.7,1.4-1.2
				c0.3-0.5,0.5-1.3,0.5-2.2V202c0-1.2-0.1-2.2-0.4-3.1c-0.3-0.9-0.6-1.6-1.1-2.1c-0.5-0.6-1-1-1.7-1.3c-0.6-0.3-1.4-0.4-2.2-0.4
				c-0.9,0-1.8,0.1-2.7,0.3c-0.8,0.2-1.6,0.5-2.3,0.9c0.1,0.5,0.2,1.1,0.3,1.8c0.1,0.7,0.1,1.4,0.1,2.1v14.1l2.7,0.8v1
				c-0.7,0.3-1.6,0.5-2.5,0.7c-0.9,0.1-1.9,0.2-3,0.2c-0.6,0-1.1,0-1.7-0.1c-0.6-0.1-1.1-0.2-1.7-0.4v-0.9c0.7-0.3,1.2-0.7,1.5-1.2
				c0.3-0.5,0.4-1.3,0.4-2.2v-9.6c0-1.5-0.1-2.7-0.3-3.6c-0.2-0.9-0.5-1.7-0.9-2.3c-0.4-0.6-0.9-0.9-1.6-1.2
				c-0.6-0.2-1.3-0.3-2.1-0.3c-0.5,0-1,0.1-1.5,0.1c-0.5,0.1-1,0.2-1.5,0.4c-0.4,0.2-0.8,0.3-1.2,0.5c-0.4,0.2-0.7,0.4-1,0.6v17.5
				l2.9,0.8v1c-0.9,0.3-1.8,0.5-2.7,0.7c-0.9,0.1-2,0.2-3.3,0.2c-0.6,0-1.3,0-2-0.1c-0.7-0.1-1.4-0.2-1.9-0.4v-0.9
				c0.4-0.1,0.7-0.3,1-0.5c0.4-0.2,0.6-0.4,0.9-0.7c0.3-0.2,0.5-0.5,0.7-0.8c0.2-0.3,0.2-0.6,0.2-0.9v-17.6l-3.4-1.4v-1.2
				c1.2-0.4,2.3-0.6,3.4-0.7c1.1-0.2,2-0.2,2.8-0.2h1.3v2.8c0.9-0.9,2-1.6,3.4-2.1c1.3-0.5,2.8-0.8,4.3-0.8c0.6,0,1.3,0.1,1.8,0.2
				c0.6,0.2,1.2,0.4,1.7,0.7c0.5,0.3,1,0.6,1.4,1c0.4,0.4,0.7,0.8,1,1.3c0.4-0.4,0.9-0.8,1.5-1.2c0.6-0.4,1.3-0.7,2-1
				c0.7-0.3,1.5-0.5,2.2-0.7c0.7-0.2,1.5-0.3,2.2-0.3c1.1,0,2.1,0.2,3,0.5c0.9,0.3,1.7,0.8,2.3,1.5c0.6,0.7,1.1,1.6,1.5,2.6
				c0.4,1,0.5,2.2,0.5,3.7v14.5l2.7,0.8v1C401.3,216.4,400.4,216.6,399.6,216.8z"/>
			<path d="M438.4,209.2c-0.7,1.7-1.6,3.2-2.7,4.4c-1.2,1.2-2.5,2.1-3.9,2.8c-1.5,0.7-3,1-4.5,1c-1.6,0-3.1-0.3-4.4-0.8
				c-1.4-0.5-2.6-1.3-3.7-2.3c-1-1-1.8-2.3-2.5-3.8c-0.6-1.5-0.9-3.2-0.9-5.1c0-2.1,0.4-4.1,1-5.8c0.7-1.7,1.6-3.2,2.7-4.4
				c1.2-1.2,2.5-2.1,3.9-2.8c1.5-0.7,3-1,4.6-1c1.6,0,3.1,0.3,4.5,0.9c1.4,0.6,2.6,1.4,3.6,2.5c1,1,1.8,2.3,2.4,3.8
				c0.6,1.5,0.9,3.1,0.9,5C439.5,205.4,439.2,207.4,438.4,209.2z M434.2,199.7c-0.4-1.1-0.9-2.1-1.5-3c-0.7-0.8-1.4-1.4-2.2-1.8
				c-0.8-0.4-1.7-0.6-2.7-0.6c-0.9,0-1.8,0.3-2.6,0.7c-0.9,0.5-1.7,1.1-2.3,2c-0.7,0.9-1.3,2-1.6,3.3c-0.4,1.3-0.6,2.8-0.6,4.5
				c0,1.6,0.2,3,0.6,4.1c0.4,1.2,0.9,2.2,1.5,3c0.7,0.8,1.4,1.4,2.2,1.8c0.8,0.4,1.7,0.6,2.7,0.6c0.9,0,1.7-0.2,2.6-0.6
				c0.8-0.4,1.6-1.1,2.3-2c0.7-0.8,1.2-1.9,1.6-3.3c0.4-1.3,0.6-2.9,0.6-4.6C434.7,202.3,434.5,200.9,434.2,199.7z"/>
			<path d="M461.5,182.4c-0.1,0.3-0.1,0.6-0.2,0.9c-0.5-0.2-1-0.3-1.6-0.5c-0.6-0.2-1.1-0.3-1.8-0.4c-0.6-0.1-1.3-0.2-1.8-0.2
				c-0.6-0.1-1.2-0.1-1.7-0.1c-0.5,0-1,0.1-1.5,0.4c-0.5,0.3-0.9,0.6-1.2,1.1c-0.4,0.5-0.6,1.1-0.8,1.8c-0.2,0.7-0.3,1.5-0.3,2.5
				c0,0.2,0,0.5,0.1,0.9c0,0.4,0,0.8,0.1,1.3c0,0.5,0,0.9,0.1,1.4c0,0.4,0.1,0.8,0.1,1.1h6.6l-0.6,2.8h-6.1v19l3.3,0.8v1
				c-0.4,0.2-0.9,0.3-1.4,0.4c-0.4,0.1-0.9,0.2-1.4,0.3c-0.5,0-1.1,0.1-1.7,0.2c-0.6,0-1.3,0-2,0c-0.6,0-1.3,0-2-0.1
				c-0.7-0.1-1.4-0.2-1.9-0.4v-0.9c0.4-0.1,0.7-0.3,1-0.5c0.4-0.2,0.6-0.4,0.9-0.7c0.3-0.2,0.5-0.5,0.7-0.8c0.2-0.3,0.2-0.6,0.2-0.9
				v-17.4h-2.9v-1.8l2.9-1.1v-3.9c0-1.4,0.2-2.7,0.6-3.8c0.5-1.2,1.1-2.2,2-3c0.8-0.8,1.9-1.5,3.1-1.9c1.3-0.5,2.7-0.7,4.3-0.7
				c1.9,0,3.2,0.3,4,0.7c0.8,0.5,1.2,1,1.2,1.8C461.6,181.8,461.6,182.1,461.5,182.4z"/>
			<path d="M479,217.2c-2.1,0-3.7-0.6-4.7-1.7c-1-1.1-1.5-3-1.5-5.5c0-1.2,0-2.6,0.1-3.9c0.1-1.4,0.1-2.6,0.1-3.8l0.2-6.9h-2.9v-1.7
				l5.6-5.6l1.7-0.2l-0.2,4.7h6.9l-0.4,2.8h-6.7l-0.1,6.6c0,1.1-0.1,2.1-0.1,3.2c0,1,0,1.9,0,2.9c0,1,0.1,1.9,0.2,2.7
				c0.2,0.7,0.4,1.3,0.7,1.8c0.3,0.4,0.6,0.7,1,0.9c0.4,0.2,0.8,0.3,1.3,0.3c0.8,0,1.5-0.1,2.1-0.4c0.6-0.3,1.2-0.6,1.7-1l0.5,0.2
				C484.4,215.6,482.5,217.2,479,217.2z"/>
			<path d="M509.4,216.8c-0.9,0.1-1.9,0.2-3.1,0.2c-0.5,0-1.1,0-1.7-0.1c-0.6-0.1-1.1-0.2-1.7-0.4v-0.9c0.6-0.3,1.1-0.7,1.4-1.2
				c0.3-0.5,0.5-1.3,0.5-2.2v-10c0-1.2-0.1-2.3-0.4-3.2c-0.3-0.9-0.6-1.7-1-2.2c-0.5-0.6-1-1-1.7-1.3c-0.7-0.3-1.4-0.4-2.2-0.4
				c-0.5,0-1,0.1-1.5,0.1c-0.5,0.1-1,0.2-1.4,0.4c-0.5,0.2-0.9,0.3-1.3,0.5c-0.4,0.2-0.7,0.4-1,0.6v17.5l2.9,0.8v1
				c-0.5,0.2-0.9,0.3-1.3,0.4c-0.5,0.1-0.9,0.2-1.4,0.3c-0.5,0-1,0.1-1.5,0.2c-0.6,0-1.2,0-1.8,0c-0.6,0-1.3,0-1.9-0.1
				c-0.7-0.1-1.4-0.2-2-0.4v-0.9c0.4-0.1,0.7-0.3,1-0.5c0.3-0.2,0.6-0.4,0.9-0.7c0.3-0.2,0.5-0.5,0.6-0.8c0.2-0.3,0.2-0.6,0.2-0.9
				v-30.3l-3.4-1.4V180c1.2-0.4,2.3-0.6,3.3-0.7c1-0.1,2-0.2,2.9-0.2h1.7l-0.3,2.9v12.5c0.9-0.9,2-1.6,3.3-2.1
				c1.2-0.5,2.7-0.7,4.3-0.7c1.1,0,2.1,0.2,3,0.5c0.9,0.4,1.7,0.9,2.3,1.6c0.6,0.7,1.2,1.5,1.5,2.5c0.4,1,0.5,2.2,0.5,3.6v14.6
				l2.7,0.8v1C511.1,216.4,510.3,216.6,509.4,216.8z"/>
			<path d="M535.2,204.4h-15.4c0,1.5,0.2,2.8,0.6,3.9c0.4,1.1,1,2.1,1.7,2.9c0.7,0.8,1.5,1.4,2.5,1.8c0.9,0.4,1.9,0.6,3,0.6
				c0.6,0,1.2,0,1.9-0.2c0.7-0.1,1.3-0.3,1.9-0.5c0.7-0.2,1.2-0.4,1.9-0.7c0.6-0.3,1.1-0.6,1.6-0.9c0.1,0.1,0.1,0.3,0.2,0.6
				c0.1,0.3,0.1,0.5,0.1,0.8c0,0.6-0.2,1.2-0.6,1.7c-0.4,0.5-1,1-1.8,1.5c-0.8,0.4-1.7,0.7-2.8,1c-1.2,0.3-2.4,0.4-3.8,0.4
				c-1.5,0-2.9-0.3-4.2-0.8c-1.4-0.6-2.5-1.4-3.4-2.4c-1-1-1.8-2.3-2.4-3.8c-0.5-1.5-0.8-3.1-0.8-5c0-2.3,0.3-4.3,0.9-6.1
				c0.6-1.7,1.5-3.2,2.5-4.4c1-1.1,2.1-2.1,3.4-2.7c1.3-0.6,2.7-0.9,4-0.9c1.4,0,2.7,0.2,3.8,0.7c1.1,0.5,2,1.1,2.8,1.9
				c0.8,0.9,1.4,1.9,1.8,3.1c0.4,1.3,0.6,2.6,0.6,4.1c0,0.5,0,1,0,1.6C535.2,203.1,535.2,203.8,535.2,204.4z M530.6,198.3
				c-0.3-0.9-0.6-1.7-1.1-2.3c-0.5-0.6-1-1.1-1.7-1.4c-0.6-0.3-1.4-0.5-2.1-0.5c-0.7,0-1.4,0.2-2.1,0.6c-0.7,0.4-1.4,0.9-1.9,1.6
				c-0.6,0.7-1,1.5-1.4,2.4c-0.4,0.9-0.5,1.9-0.5,2.9H531C531,200.4,530.9,199.3,530.6,198.3z"/>
			<path d="M576.8,185c-0.4,0.2-0.7,0.5-0.9,0.9c-0.2,0.4-0.4,0.8-0.5,1.4c-0.1,0.5-0.2,1.2-0.2,2v27.4l-2.5,0.6L556.3,190l-0.1,0.1
				v24.1l3.2,0.8v1.1c-0.8,0.3-1.5,0.5-2.3,0.7c-0.8,0.1-1.6,0.2-2.5,0.2c-1,0-1.9-0.1-2.7-0.1c-0.7-0.1-1.4-0.2-2-0.4v-1
				c0.6-0.2,1-0.4,1.4-0.6c0.4-0.3,0.7-0.6,0.9-0.9c0.3-0.4,0.4-0.8,0.5-1.3c0.1-0.5,0.2-1.1,0.2-1.8v-25.1l-3.3-0.9v-1.5
				c1-0.1,2-0.2,3-0.3c1-0.1,1.9-0.1,2.8-0.1h1.9l14.5,23.9l0.1-0.1v-21.2l-3.3-0.8v-1.1c0.8-0.3,1.7-0.5,2.6-0.6
				c0.8-0.2,1.7-0.3,2.6-0.3c0.5,0,1,0,1.4,0c0.4,0.1,0.8,0.1,1.1,0.1c0.3,0.1,0.6,0.2,0.9,0.2c0.3,0.1,0.6,0.2,1,0.3v0.9
				C577.6,184.5,577.1,184.7,576.8,185z"/>
			<path d="M601.4,204.4H586c0,1.5,0.2,2.8,0.6,3.9c0.4,1.1,1,2.1,1.7,2.9c0.7,0.8,1.5,1.4,2.5,1.8c0.9,0.4,1.9,0.6,3,0.6
				c0.6,0,1.2,0,1.9-0.2c0.7-0.1,1.3-0.3,1.9-0.5c0.7-0.2,1.3-0.4,1.9-0.7c0.6-0.3,1.2-0.6,1.6-0.9c0,0.1,0.1,0.3,0.2,0.6
				c0.1,0.3,0.1,0.5,0.1,0.8c0,0.6-0.2,1.2-0.6,1.7c-0.4,0.5-1,1-1.8,1.5c-0.8,0.4-1.7,0.7-2.8,1c-1.2,0.3-2.4,0.4-3.8,0.4
				c-1.5,0-2.9-0.3-4.2-0.8c-1.4-0.6-2.5-1.4-3.4-2.4c-1-1-1.8-2.3-2.3-3.8c-0.5-1.5-0.8-3.1-0.8-5c0-2.3,0.3-4.3,0.9-6.1
				c0.6-1.7,1.5-3.2,2.5-4.4c1-1.1,2.1-2.1,3.4-2.7c1.3-0.6,2.7-0.9,4-0.9c1.4,0,2.7,0.2,3.8,0.7c1.1,0.5,2,1.1,2.8,1.9
				c0.8,0.9,1.4,1.9,1.8,3.1c0.4,1.3,0.6,2.6,0.6,4.1c0,0.5,0,1,0,1.6C601.5,203.1,601.5,203.8,601.4,204.4z M596.9,198.3
				c-0.3-0.9-0.6-1.7-1.1-2.3c-0.5-0.6-1-1.1-1.7-1.4c-0.6-0.3-1.4-0.5-2.1-0.5c-0.7,0-1.4,0.2-2.1,0.6c-0.7,0.4-1.4,0.9-1.9,1.6
				c-0.6,0.7-1,1.5-1.4,2.4c-0.4,0.9-0.5,1.9-0.5,2.9h11.2C597.3,200.4,597.2,199.3,596.9,198.3z"/>
			<path d="M614.1,217.2c-2.1,0-3.7-0.6-4.7-1.7c-1-1.1-1.5-3-1.5-5.5c0-1.2,0-2.6,0.1-3.9c0.1-1.4,0.1-2.6,0.1-3.8l0.2-6.9h-2.9
				v-1.7l5.6-5.6l1.7-0.2l-0.2,4.7h6.9l-0.4,2.8h-6.7l-0.1,6.6c0,1.1-0.1,2.1-0.1,3.2c0,1,0,1.9,0,2.9c0,1,0.1,1.9,0.2,2.7
				c0.2,0.7,0.4,1.3,0.7,1.8c0.3,0.4,0.6,0.7,1,0.9c0.4,0.2,0.8,0.3,1.3,0.3c0.8,0,1.5-0.1,2.1-0.4c0.6-0.3,1.2-0.6,1.7-1l0.5,0.2
				C619.5,215.6,617.6,217.2,614.1,217.2z"/>
			<path d="M644.5,216.8c-0.9,0.1-1.9,0.2-3.1,0.2c-0.5,0-1.1,0-1.7-0.1c-0.6-0.1-1.1-0.2-1.7-0.4v-0.9c0.6-0.3,1.1-0.7,1.4-1.2
				c0.3-0.5,0.5-1.3,0.5-2.2v-10c0-1.2-0.1-2.3-0.4-3.2c-0.3-0.9-0.6-1.7-1-2.2c-0.5-0.6-1-1-1.7-1.3c-0.7-0.3-1.4-0.4-2.2-0.4
				c-0.5,0-1,0.1-1.5,0.1c-0.5,0.1-1,0.2-1.4,0.4c-0.5,0.2-0.9,0.3-1.3,0.5c-0.4,0.2-0.7,0.4-1,0.6v17.5l2.9,0.8v1
				c-0.5,0.2-0.9,0.3-1.3,0.4c-0.5,0.1-0.9,0.2-1.4,0.3c-0.5,0-1,0.1-1.5,0.2c-0.6,0-1.1,0-1.8,0c-0.6,0-1.2,0-1.9-0.1
				c-0.7-0.1-1.4-0.2-2-0.4v-0.9c0.4-0.1,0.7-0.3,1-0.5c0.3-0.2,0.6-0.4,0.9-0.7c0.3-0.2,0.5-0.5,0.6-0.8c0.2-0.3,0.2-0.6,0.2-0.9
				v-30.3l-3.4-1.4V180c1.2-0.4,2.3-0.6,3.3-0.7c1-0.1,2-0.2,2.9-0.2h1.7l-0.3,2.9v12.5c0.9-0.9,2-1.6,3.3-2.1
				c1.2-0.5,2.7-0.7,4.3-0.7c1.1,0,2.1,0.2,3,0.5c0.9,0.4,1.7,0.9,2.3,1.6c0.6,0.7,1.1,1.5,1.5,2.5c0.4,1,0.5,2.2,0.5,3.6v14.6
				l2.7,0.8v1C646.2,216.4,645.4,216.6,644.5,216.8z"/>
			<path d="M670.3,204.4h-15.4c0,1.5,0.2,2.8,0.6,3.9c0.4,1.1,1,2.1,1.7,2.9c0.7,0.8,1.5,1.4,2.5,1.8c0.9,0.4,1.9,0.6,3,0.6
				c0.6,0,1.3,0,1.9-0.2c0.7-0.1,1.3-0.3,1.9-0.5c0.7-0.2,1.3-0.4,1.9-0.7c0.6-0.3,1.2-0.6,1.6-0.9c0,0.1,0.1,0.3,0.2,0.6
				c0.1,0.3,0.1,0.5,0.1,0.8c0,0.6-0.2,1.2-0.6,1.7c-0.4,0.5-1,1-1.8,1.5c-0.8,0.4-1.7,0.7-2.8,1c-1.2,0.3-2.4,0.4-3.8,0.4
				c-1.5,0-2.9-0.3-4.2-0.8c-1.4-0.6-2.5-1.4-3.4-2.4c-1-1-1.8-2.3-2.3-3.8c-0.5-1.5-0.8-3.1-0.8-5c0-2.3,0.3-4.3,0.9-6.1
				c0.6-1.7,1.5-3.2,2.5-4.4c1-1.1,2.1-2.1,3.4-2.7c1.3-0.6,2.7-0.9,4-0.9c1.4,0,2.7,0.2,3.8,0.7c1.1,0.5,2,1.1,2.8,1.9
				c0.8,0.9,1.4,1.9,1.8,3.1c0.4,1.3,0.6,2.6,0.6,4.1c0,0.5,0,1,0,1.6C670.3,203.1,670.3,203.8,670.3,204.4z M665.7,198.3
				c-0.3-0.9-0.6-1.7-1.1-2.3c-0.5-0.6-1-1.1-1.7-1.4c-0.6-0.3-1.4-0.5-2.1-0.5c-0.7,0-1.4,0.2-2.1,0.6c-0.7,0.4-1.4,0.9-1.9,1.6
				c-0.6,0.7-1,1.5-1.4,2.4c-0.4,0.9-0.5,1.9-0.5,2.9h11.2C666.1,200.4,666,199.3,665.7,198.3z"/>
			<path d="M689.9,195.2c-0.2,0.6-0.4,1.1-0.6,1.6c-0.5-0.4-1-0.7-1.6-0.9c-0.6-0.2-1.1-0.3-1.7-0.3c-1.6,0-3.1,0.7-4.6,2.1v16.6
				l3.6,0.8v1c-0.4,0.2-0.9,0.3-1.4,0.4c-0.4,0.1-0.9,0.2-1.4,0.3c-0.5,0-1.1,0.1-1.7,0.2c-0.6,0-1.3,0-2,0c-0.8,0-1.5,0-2.2-0.1
				c-0.7-0.1-1.4-0.2-2-0.4v-0.9c0.4-0.1,0.7-0.3,1-0.5c0.4-0.2,0.6-0.4,0.9-0.7c0.3-0.2,0.5-0.5,0.7-0.8c0.2-0.3,0.2-0.6,0.2-0.9
				v-17.6l-3.4-1.4v-1.2c1.2-0.4,2.4-0.6,3.4-0.7c1.1-0.2,2-0.2,2.8-0.2h1.3v3.7h0.1l1.5-1.6c0.7-0.8,1.5-1.4,2.2-1.7
				c0.7-0.4,1.5-0.6,2.4-0.6c1.8,0,2.7,0.7,2.7,2.2C690.2,194.1,690.1,194.6,689.9,195.2z"/>
			<path d="M701.6,216.5c-0.5,0.1-0.9,0.2-1.4,0.3c-0.5,0-1,0.1-1.6,0.2c-0.5,0-1.1,0-1.8,0c-0.6,0-1.3,0-2-0.1
				c-0.7-0.1-1.4-0.2-1.9-0.4v-0.9c0.4-0.1,0.7-0.3,1-0.5c0.4-0.2,0.6-0.4,0.9-0.7c0.3-0.2,0.5-0.5,0.7-0.8c0.2-0.3,0.2-0.6,0.2-0.9
				v-30.3l-3.4-1.4V180c0.6-0.2,1.2-0.3,1.8-0.4c0.6-0.1,1.1-0.2,1.7-0.3c0.5,0,1-0.1,1.5-0.2c0.5,0,0.9-0.1,1.3-0.1h1.7l-0.3,2.9
				v32.4l2.9,0.8v1C702.4,216.3,702,216.4,701.6,216.5z"/>
			<path d="M724.2,216.1c-0.6,0.5-1.3,0.9-2,1.3c-0.5-0.3-0.9-0.7-1.4-1.1c-0.4-0.5-0.7-0.9-1-1.5c-0.4,0.4-0.8,0.7-1.3,1
				c-0.6,0.3-1.1,0.6-1.7,0.8c-0.6,0.3-1.3,0.4-2,0.5c-0.7,0.2-1.4,0.2-2,0.2c-1,0-1.9-0.2-2.7-0.4c-0.8-0.3-1.5-0.7-2.1-1.2
				c-0.6-0.5-1-1.1-1.4-1.9c-0.3-0.7-0.5-1.5-0.5-2.3c0-1.2,0.3-2.2,0.9-3.2c0.6-1,1.5-1.9,2.7-2.7c1.1-0.8,2.6-1.4,4.2-1.9
				c1.7-0.4,3.6-0.7,5.7-0.7v-1.4c0-1.4-0.1-2.6-0.3-3.4c-0.2-0.9-0.5-1.6-0.8-2.1c-0.4-0.5-0.8-0.8-1.5-1c-0.6-0.2-1.3-0.3-2.1-0.3
				c-1.5,0-2.8,0.3-4.2,0.9c-1.3,0.6-2.6,1.4-3.7,2.5c-0.1-0.5-0.2-1-0.2-1.6c0-0.8,0.2-1.6,0.5-2.2c0.3-0.6,0.8-1.2,1.5-1.6
				c0.7-0.5,1.6-0.8,2.7-1c1.1-0.3,2.4-0.4,3.9-0.4c1.3,0,2.5,0.2,3.6,0.5c1,0.4,1.9,0.8,2.6,1.4c0.7,0.6,1.3,1.4,1.7,2.2
				c0.4,0.8,0.6,1.8,0.6,2.9c0,0.3,0,0.6-0.1,1.1c0,0.4,0,0.9-0.1,1.4c0,0.5-0.1,1-0.1,1.5c0,0.5,0,0.9,0,1.3l-0.2,8.5
				c0.2,0.5,0.5,0.9,0.8,1.4c0.4,0.5,0.8,0.9,1.3,1.2C725.4,215.2,724.9,215.6,724.2,216.1z M719.7,205.4c-1.5,0-2.8,0.2-3.9,0.4
				c-1.1,0.3-2.1,0.7-2.8,1.1c-0.8,0.5-1.4,1-1.8,1.7c-0.4,0.7-0.6,1.3-0.6,2c0,1,0.4,1.9,1,2.5c0.7,0.6,1.7,0.9,3,0.9
				c0.4,0,0.8-0.1,1.3-0.1c0.5-0.1,0.9-0.2,1.4-0.3c0.5-0.1,0.9-0.3,1.3-0.5c0.4-0.2,0.8-0.3,1.1-0.5V205.4z"/>
			<path d="M749.2,217c-0.5,0-1.1,0-1.7-0.1c-0.6-0.1-1.1-0.2-1.7-0.4v-0.9c0.7-0.3,1.1-0.7,1.4-1.2c0.3-0.5,0.5-1.3,0.5-2.2v-10
				c0-1.2-0.2-2.3-0.4-3.2c-0.3-0.9-0.6-1.7-1.1-2.2c-0.5-0.6-1-1-1.6-1.3c-0.7-0.3-1.4-0.4-2.1-0.4c-1,0-2.1,0.2-3,0.5
				c-1,0.3-1.8,0.7-2.3,1.1v17.5l2.9,0.8v1c-0.5,0.2-0.9,0.3-1.3,0.4c-0.5,0.1-0.9,0.2-1.4,0.3c-0.5,0-1,0.1-1.6,0.2
				c-0.5,0-1.1,0-1.8,0c-0.6,0-1.3,0-2-0.1c-0.7-0.1-1.4-0.2-1.9-0.4v-0.9c0.4-0.1,0.7-0.3,1-0.5c0.4-0.2,0.6-0.4,0.9-0.7
				c0.3-0.2,0.5-0.5,0.7-0.8c0.2-0.3,0.2-0.6,0.2-0.9v-17.6l-3.4-1.4v-1.2c1.2-0.4,2.4-0.6,3.4-0.7c1.1-0.2,2-0.2,2.8-0.2h1.3v2.8
				c0.9-0.9,2-1.6,3.4-2.1c1.4-0.5,2.8-0.8,4.3-0.8c1.1,0,2.1,0.2,3,0.5c0.9,0.4,1.7,0.9,2.3,1.6c0.6,0.7,1.2,1.5,1.5,2.5
				c0.3,1,0.5,2.2,0.5,3.6v14.6l2.7,0.8v1C753.2,216.7,751.4,217,749.2,217z"/>
			<path d="M778.9,216.2c-0.6,0.4-1.3,0.8-2,1.1c-0.5-0.4-1-0.9-1.5-1.5c-0.4-0.6-0.8-1.1-1-1.7c-0.4,0.4-0.9,0.8-1.5,1.2
				c-0.5,0.4-1.1,0.7-1.7,0.9c-0.6,0.3-1.2,0.5-1.8,0.6c-0.6,0.2-1.2,0.2-1.7,0.2c-1.3,0-2.6-0.3-3.7-0.8c-1.1-0.5-2.1-1.3-3-2.2
				c-0.8-1-1.5-2.2-2-3.6c-0.5-1.4-0.7-3-0.7-4.7c0-2.3,0.3-4.4,1-6.2c0.7-1.8,1.6-3.3,2.7-4.5c1.1-1.2,2.5-2.2,4-2.8
				c1.5-0.6,3.1-0.9,4.8-0.9c0.6,0,1.3,0.1,1.9,0.1s1.3,0.2,1.7,0.3v-9.2l-3.6-1.4V180c1.2-0.4,2.4-0.6,3.6-0.7
				c1.2-0.1,2.1-0.2,2.9-0.2h1.7l-0.3,2.9v29.9c0.2,0.5,0.5,1,0.8,1.6c0.3,0.5,0.7,1,1.2,1.5C780.1,215.4,779.5,215.8,778.9,216.2z
				 M774.4,194.8c-0.4-0.2-1-0.3-1.7-0.4c-0.7-0.1-1.4-0.2-2.1-0.2c-1.1,0-2.1,0.2-3.1,0.7c-0.9,0.4-1.8,1.1-2.5,2
				c-0.7,0.9-1.2,2-1.6,3.3c-0.4,1.4-0.6,2.9-0.6,4.8c0,1.4,0.2,2.7,0.5,3.8c0.4,1.1,0.8,2,1.4,2.8c0.6,0.7,1.2,1.3,2,1.7
				c0.7,0.4,1.5,0.6,2.3,0.6c0.5,0,1-0.1,1.5-0.1c0.5-0.1,1-0.2,1.5-0.4c0.5-0.2,0.9-0.3,1.3-0.5c0.4-0.2,0.7-0.4,1-0.7V194.8z"/>
			<path d="M800,212.5c-0.5,0.9-1.1,1.7-2,2.4c-0.8,0.7-1.9,1.3-3.1,1.7c-1.2,0.4-2.5,0.6-4,0.6c-2.3,0-4-0.4-5-1.1
				c-1.1-0.7-1.6-1.8-1.6-3.2c0-0.4,0.1-0.7,0.1-1.1c0.1-0.4,0.2-0.7,0.4-1c1.1,1.1,2.3,1.9,3.5,2.5c1.2,0.6,2.5,0.8,3.9,0.8
				c1.5,0,2.6-0.3,3.3-0.9c0.7-0.6,1.1-1.4,1.1-2.3c0-0.5-0.1-0.9-0.2-1.3c-0.2-0.4-0.4-0.7-0.7-1.1c-0.4-0.4-0.8-0.7-1.4-1
				c-0.5-0.3-1.2-0.7-2.1-1l-2.6-1.1c-1.5-0.6-2.7-1.5-3.5-2.6c-0.8-1.1-1.2-2.3-1.2-3.9c0-1,0.2-2,0.6-2.9c0.5-0.9,1.1-1.8,1.9-2.5
				c0.8-0.7,1.7-1.3,2.9-1.7c1.1-0.4,2.4-0.6,3.7-0.6c1,0,1.9,0.1,2.7,0.3c0.7,0.1,1.4,0.4,1.8,0.6c0.5,0.3,0.8,0.6,1,1
				c0.2,0.4,0.3,0.9,0.3,1.4c0,0.4,0,0.8,0,1.1c-0.1,0.4-0.2,0.7-0.2,1.1c-0.8-0.6-1.8-1-2.9-1.4c-1-0.4-2.1-0.6-3.1-0.6
				c-0.8,0-1.6,0.1-2.2,0.3c-0.6,0.2-1.1,0.4-1.5,0.7c-0.4,0.3-0.7,0.7-0.9,1c-0.2,0.4-0.3,0.8-0.3,1.2c0,0.5,0.1,0.9,0.2,1.3
				c0.2,0.4,0.4,0.7,0.7,1c0.3,0.4,0.7,0.7,1.2,0.9c0.5,0.3,1.2,0.6,2,0.9l2.8,1.1c0.9,0.4,1.7,0.8,2.4,1.2c0.6,0.4,1.2,0.9,1.6,1.4
				c0.4,0.6,0.7,1.1,0.9,1.8c0.2,0.6,0.3,1.4,0.3,2.1C800.7,210.6,800.4,211.6,800,212.5z"/>
		</g>
	</g>
</g>
</svg>
