<?xml version="1.0" encoding="utf-8"?>
<!-- Generator: Adobe Illustrator 22.0.1, SVG Export Plug-In . SVG Version: 6.00 Build 0)  -->
<svg version="1.1" id="Layer_1" xmlns="http://www.w3.org/2000/svg" xmlns:xlink="http://www.w3.org/1999/xlink" x="0px" y="0px"
	 viewBox="0 0 47.1 46.7" style="enable-background:new 0 0 47.1 46.7;" xml:space="preserve">
<path d="M30,18.2c-0.1,0.8-0.2,1.4-0.5,1.7c-0.3,0.4-0.9,0.6-1.7,0.6c-1.2,0-2-0.7-2.2-2c-0.2,0.6-0.6,1.1-1.2,1.5
	c-0.5,0.4-1.2,0.5-1.9,0.5c-0.9,0-1.5-0.2-2.1-0.7c-0.5-0.5-0.8-1.1-0.8-2c0-1,0.5-1.7,1.4-2.2c0.9-0.5,2.4-0.8,4.3-0.8v-1.4
	c0-0.8-0.1-1.4-0.3-1.8c-0.2-0.4-0.5-0.6-1-0.6c-0.4,0-0.6,0.1-0.8,0.3c-0.1,0.2-0.3,0.5-0.4,0.9c-0.1,0.5-0.3,0.8-0.5,1
	c-0.2,0.2-0.5,0.3-1,0.3c-0.4,0-0.6-0.1-0.9-0.3c-0.2-0.2-0.4-0.5-0.4-0.8c0-0.6,0.3-1.1,1-1.5c0.7-0.4,1.7-0.6,2.9-0.6
	c1.2,0,2.2,0.3,2.9,0.9c0.7,0.6,1.1,1.5,1.1,2.7v4.6c0,0.4,0,0.6,0.1,0.8c0.1,0.2,0.2,0.3,0.4,0.3c0.2,0,0.4-0.1,0.5-0.4
	c0.1-0.2,0.2-0.6,0.3-1.2L30,18.2z M24.6,19c0.3-0.3,0.6-0.8,0.7-1.4v-2.1c-1,0-1.8,0.2-2.2,0.6c-0.4,0.3-0.6,0.9-0.6,1.6
	c0,1.3,0.4,2,1.1,2C24,19.6,24.3,19.4,24.6,19z"/>
<path d="M33.3,30.7c1.1-0.1,2-0.4,2.7-0.9v0.7c-0.7,0.5-1.6,0.8-2.7,0.9v4.4h-0.6v-4.3c-0.4,0.1-0.9,0.1-1.5,0.1
	c-1.6,0-2.8-0.3-3.7-0.9c-0.9-0.6-1.3-1.4-1.3-2.4c0-0.9,0.3-1.6,0.9-2.2c0.6-0.5,1.4-0.8,2.5-0.8h2.2c0-0.4-0.1-0.8-0.4-1.1
	c-0.3-0.3-0.6-0.5-1-0.5c-0.3,0-0.5,0.1-0.6,0.2s-0.2,0.2-0.3,0.4c-0.2,0.4-0.5,0.6-1,0.6c-0.2,0-0.4-0.1-0.6-0.2
	c-0.2-0.2-0.3-0.4-0.3-0.6c0-0.4,0.2-0.7,0.6-0.9c0.4-0.2,0.9-0.3,1.5-0.3c0.8,0,1.5,0.3,2,0.7c0.5,0.5,0.7,1.2,0.7,2.1v0.1h-0.7
	c-0.9,0-1.6,0.3-1.9,0.8c-0.3,0.5-0.5,1.1-0.5,1.6c0,0.8,0.3,1.4,0.8,1.9c0.5,0.5,1.2,0.7,2.2,0.7h0.4v-5.6c0-0.8,0.2-1.3,0.5-1.7
	c0.3-0.4,0.7-0.6,1.1-0.7l0.5,0.2l-0.2,0.1c-0.1,0.1-0.2,0.2-0.2,0.3c0,0.1,0,0.2,0.1,0.3c0.1,0.1,0.2,0.2,0.5,0.4
	c0.3,0.3,0.6,0.5,0.8,0.8c0.2,0.2,0.3,0.6,0.3,1c0,0.5-0.2,0.9-0.6,1.2c-0.4,0.3-0.9,0.4-1.4,0.4c-0.2,0-0.5,0-0.8-0.1V30.7z
	 M33.5,24.3c-0.1,0.3-0.1,0.6-0.1,0.9v1.6c0.1,0,0.2,0,0.4,0c0.3,0,0.5-0.1,0.6-0.3c0.2-0.2,0.3-0.5,0.3-0.9c0-0.2,0-0.4-0.1-0.6
	c0-0.2-0.1-0.3-0.3-0.5c-0.2-0.3-0.3-0.6-0.3-0.9v-0.1C33.7,23.8,33.5,24,33.5,24.3z"/>
<path d="M12.5,25.5c0-0.7,0.3-1.2,0.9-1.6c0.6-0.4,1.3-0.6,2.2-0.6c0.8,0,1.5,0.1,2.2,0.4c0.7,0.3,1.3,0.6,1.7,1.1
	c0.4,0.5,0.7,1,0.7,1.6c0,0.9-0.1,1.6-0.3,2.1h1v-5h2v8.4h-2v-2.9h-1.2c-0.5,0.8-1.3,1.5-2.5,1.9c-1.2,0.5-2.5,0.7-3.9,0.7
	c-0.7,0-1.4-0.1-2.1-0.3s-1.3-0.5-1.7-0.8c-0.4-0.4-0.7-0.8-0.7-1.3c0-0.2,0.1-0.4,0.3-0.6c0.2-0.2,0.4-0.2,0.6-0.2h8
	c0.3-0.6,0.5-1.3,0.5-2.1c0-0.4-0.1-0.8-0.3-1.2c-0.2-0.4-0.4-0.7-0.7-0.9c-0.3-0.2-0.6-0.4-1-0.4c0.3,0.2,0.5,0.4,0.7,0.7
	c0.2,0.3,0.3,0.6,0.3,1c0,0.4-0.1,0.7-0.3,1c-0.2,0.3-0.5,0.5-0.9,0.7c-0.4,0.2-0.7,0.3-1.1,0.3c-0.4,0-0.8-0.1-1.1-0.3
	c-0.4-0.2-0.6-0.4-0.9-0.7C12.6,26.2,12.5,25.9,12.5,25.5z M9.7,29.1c-0.1,0-0.2,0-0.2,0.1c-0.1,0.1-0.1,0.1-0.1,0.2
	c0,0.4,0.2,0.7,0.5,0.9c0.4,0.3,0.8,0.5,1.3,0.6c0.5,0.1,1.1,0.2,1.7,0.2c0.9,0,1.8-0.2,2.6-0.6c0.8-0.4,1.3-0.9,1.8-1.5H9.7z
	 M14,24.2c-0.3,0-0.5,0.1-0.7,0.4c-0.2,0.3-0.3,0.6-0.3,1c0,0.3,0.1,0.6,0.3,0.8c0.2,0.2,0.4,0.4,0.7,0.4c0.3,0,0.6-0.1,0.8-0.4
	c0.2-0.2,0.3-0.5,0.3-0.8c0-0.4-0.1-0.7-0.3-1C14.6,24.3,14.3,24.2,14,24.2z"/>
<path d="M23.8,0C15.2,0,7.7,4.6,3.7,11.5L0,10l1,8.5c-0.3,1.6-0.5,3.2-0.5,4.9c0,12.9,10.5,23.3,23.3,23.3s23.3-10.5,23.3-23.3
	S36.7,0,23.8,0z M23.8,44.1C12.3,44.1,3,34.8,3,23.3c0-1.8,0.2-3.5,0.6-5.1L9.4,14L6,12.6c3.6-6,10.2-10,17.8-10
	c11.5,0,20.8,9.3,20.8,20.8C44.6,34.8,35.3,44.1,23.8,44.1z"/>
</svg>
